<svg xmlns="http://www.w3.org/2000/svg" version="1.1">
<metadata>
Created using RobotronFontGen utility by Nikita Zimin
https://github.com/nzeemin/robotron-dotmatrix-font
</metadata>
<defs>
<font id="RobotronFont" horiz-adv-x="720">
<font-face font-family="Robotron Dot Matrix" font-weight="normal" font-style="normal" 
    units-per-em="1080" cap-height="840" x-height="600" ascent="840" descent="240" widths="1080">
<font-face-src><font-face-name name="Robotron Dot Matrix PICA"/></font-face-src>
</font-face>
<missing-glyph><path d="M0,0h200v200h-200z"/></missing-glyph>
<glyph glyph-name="space" unicode=" " horiz-adv-x="720"/>
<glyph glyph-name="exclamation" unicode="&#33;" d="M321.818,840 a60,60 0 0 0 60,60 a60,60 0 1 0 -60,-60 z M321.818,720 a60,60 0 0 0 60,60 a60,60 0 1 0 -60,-60 z M321.818,600 a60,60 0 0 0 60,60 a60,60 0 1 0 -60,-60 z M321.818,480 a60,60 0 0 0 60,60 a60,60 0 1 0 -60,-60 z M321.818,120 a60,60 0 0 0 60,60 a60,60 0 1 0 -60,-60 z "/>
<glyph glyph-name="dquote" unicode="&#34;" d="M190.909,840 a60,60 0 0 0 60,60 a60,60 0 1 0 -60,-60 z M452.727,840 a60,60 0 0 0 60,60 a60,60 0 1 0 -60,-60 z M190.909,720 a60,60 0 0 0 60,60 a60,60 0 1 0 -60,-60 z M452.727,720 a60,60 0 0 0 60,60 a60,60 0 1 0 -60,-60 z M190.909,600 a60,60 0 0 0 60,60 a60,60 0 1 0 -60,-60 z M452.727,600 a60,60 0 0 0 60,60 a60,60 0 1 0 -60,-60 z "/>
<glyph glyph-name="hash" unicode="&#35;" d="M190.909,840 a60,60 0 0 0 60,60 a60,60 0 1 0 -60,-60 z M452.727,840 a60,60 0 0 0 60,60 a60,60 0 1 0 -60,-60 z M190.909,720 a60,60 0 0 0 60,60 a60,60 0 1 0 -60,-60 z M452.727,720 a60,60 0 0 0 60,60 a60,60 0 1 0 -60,-60 z M60,600 a60,60 0 0 0 60,60 a60,60 0 1 0 -60,-60 z M190.909,600 a60,60 0 0 0 60,60 a60,60 0 1 0 -60,-60 z M321.818,600 a60,60 0 0 0 60,60 a60,60 0 1 0 -60,-60 z M452.727,600 a60,60 0 0 0 60,60 a60,60 0 1 0 -60,-60 z M583.636,600 a60,60 0 0 0 60,60 a60,60 0 1 0 -60,-60 z M190.909,480 a60,60 0 0 0 60,60 a60,60 0 1 0 -60,-60 z M452.727,480 a60,60 0 0 0 60,60 a60,60 0 1 0 -60,-60 z M60,360 a60,60 0 0 0 60,60 a60,60 0 1 0 -60,-60 z M190.909,360 a60,60 0 0 0 60,60 a60,60 0 1 0 -60,-60 z M321.818,360 a60,60 0 0 0 60,60 a60,60 0 1 0 -60,-60 z M452.727,360 a60,60 0 0 0 60,60 a60,60 0 1 0 -60,-60 z M583.636,360 a60,60 0 0 0 60,60 a60,60 0 1 0 -60,-60 z M190.909,240 a60,60 0 0 0 60,60 a60,60 0 1 0 -60,-60 z M452.727,240 a60,60 0 0 0 60,60 a60,60 0 1 0 -60,-60 z M190.909,120 a60,60 0 0 0 60,60 a60,60 0 1 0 -60,-60 z M452.727,120 a60,60 0 0 0 60,60 a60,60 0 1 0 -60,-60 z "/>
<glyph glyph-name="$" unicode="$" d="M321.818,840 a60,60 0 0 0 60,60 a60,60 0 1 0 -60,-60 z M125.455,720 a60,60 0 0 0 60,60 a60,60 0 1 0 -60,-60 z M256.364,720 a60,60 0 0 0 60,60 a60,60 0 1 0 -60,-60 z M387.273,720 a60,60 0 0 0 60,60 a60,60 0 1 0 -60,-60 z M518.182,720 a60,60 0 0 0 60,60 a60,60 0 1 0 -60,-60 z M60,600 a60,60 0 0 0 60,60 a60,60 0 1 0 -60,-60 z M321.818,600 a60,60 0 0 0 60,60 a60,60 0 1 0 -60,-60 z M125.455,480 a60,60 0 0 0 60,60 a60,60 0 1 0 -60,-60 z M256.364,480 a60,60 0 0 0 60,60 a60,60 0 1 0 -60,-60 z M387.273,480 a60,60 0 0 0 60,60 a60,60 0 1 0 -60,-60 z M518.182,480 a60,60 0 0 0 60,60 a60,60 0 1 0 -60,-60 z M321.818,360 a60,60 0 0 0 60,60 a60,60 0 1 0 -60,-60 z M583.636,360 a60,60 0 0 0 60,60 a60,60 0 1 0 -60,-60 z M125.455,240 a60,60 0 0 0 60,60 a60,60 0 1 0 -60,-60 z M256.364,240 a60,60 0 0 0 60,60 a60,60 0 1 0 -60,-60 z M387.273,240 a60,60 0 0 0 60,60 a60,60 0 1 0 -60,-60 z M518.182,240 a60,60 0 0 0 60,60 a60,60 0 1 0 -60,-60 z M321.818,120 a60,60 0 0 0 60,60 a60,60 0 1 0 -60,-60 z "/>
<glyph glyph-name="percent" unicode="&#37;" d="M60,840 a60,60 0 0 0 60,60 a60,60 0 1 0 -60,-60 z M190.909,840 a60,60 0 0 0 60,60 a60,60 0 1 0 -60,-60 z M518.182,840 a60,60 0 0 0 60,60 a60,60 0 1 0 -60,-60 z M60,720 a60,60 0 0 0 60,60 a60,60 0 1 0 -60,-60 z M190.909,720 a60,60 0 0 0 60,60 a60,60 0 1 0 -60,-60 z M452.727,720 a60,60 0 0 0 60,60 a60,60 0 1 0 -60,-60 z M387.273,600 a60,60 0 0 0 60,60 a60,60 0 1 0 -60,-60 z M321.818,480 a60,60 0 0 0 60,60 a60,60 0 1 0 -60,-60 z M256.364,360 a60,60 0 0 0 60,60 a60,60 0 1 0 -60,-60 z M190.909,240 a60,60 0 0 0 60,60 a60,60 0 1 0 -60,-60 z M452.727,240 a60,60 0 0 0 60,60 a60,60 0 1 0 -60,-60 z M583.636,240 a60,60 0 0 0 60,60 a60,60 0 1 0 -60,-60 z M125.455,120 a60,60 0 0 0 60,60 a60,60 0 1 0 -60,-60 z M452.727,120 a60,60 0 0 0 60,60 a60,60 0 1 0 -60,-60 z M583.636,120 a60,60 0 0 0 60,60 a60,60 0 1 0 -60,-60 z "/>
<glyph glyph-name="ampersand" unicode="&#38;" d="M125.455,840 a60,60 0 0 0 60,60 a60,60 0 1 0 -60,-60 z M256.364,840 a60,60 0 0 0 60,60 a60,60 0 1 0 -60,-60 z M60,720 a60,60 0 0 0 60,60 a60,60 0 1 0 -60,-60 z M321.818,720 a60,60 0 0 0 60,60 a60,60 0 1 0 -60,-60 z M125.455,600 a60,60 0 0 0 60,60 a60,60 0 1 0 -60,-60 z M256.364,600 a60,60 0 0 0 60,60 a60,60 0 1 0 -60,-60 z M190.909,480 a60,60 0 0 0 60,60 a60,60 0 1 0 -60,-60 z M583.636,480 a60,60 0 0 0 60,60 a60,60 0 1 0 -60,-60 z M60,360 a60,60 0 0 0 60,60 a60,60 0 1 0 -60,-60 z M321.818,360 a60,60 0 0 0 60,60 a60,60 0 1 0 -60,-60 z M518.182,360 a60,60 0 0 0 60,60 a60,60 0 1 0 -60,-60 z M60,240 a60,60 0 0 0 60,60 a60,60 0 1 0 -60,-60 z M452.727,240 a60,60 0 0 0 60,60 a60,60 0 1 0 -60,-60 z M190.909,120 a60,60 0 0 0 60,60 a60,60 0 1 0 -60,-60 z M321.818,120 a60,60 0 0 0 60,60 a60,60 0 1 0 -60,-60 z M583.636,120 a60,60 0 0 0 60,60 a60,60 0 1 0 -60,-60 z "/>
<glyph glyph-name="quote" unicode="&#39;" d="M321.818,840 a60,60 0 0 0 60,60 a60,60 0 1 0 -60,-60 z M321.818,720 a60,60 0 0 0 60,60 a60,60 0 1 0 -60,-60 z M321.818,600 a60,60 0 0 0 60,60 a60,60 0 1 0 -60,-60 z "/>
<glyph glyph-name="(" unicode="&#40;" d="M452.727,840 a60,60 0 0 0 60,60 a60,60 0 1 0 -60,-60 z M387.273,720 a60,60 0 0 0 60,60 a60,60 0 1 0 -60,-60 z M321.818,600 a60,60 0 0 0 60,60 a60,60 0 1 0 -60,-60 z M321.818,480 a60,60 0 0 0 60,60 a60,60 0 1 0 -60,-60 z M321.818,360 a60,60 0 0 0 60,60 a60,60 0 1 0 -60,-60 z M387.273,240 a60,60 0 0 0 60,60 a60,60 0 1 0 -60,-60 z M452.727,120 a60,60 0 0 0 60,60 a60,60 0 1 0 -60,-60 z "/>
<glyph glyph-name=")" unicode="&#41;" d="M190.909,840 a60,60 0 0 0 60,60 a60,60 0 1 0 -60,-60 z M256.364,720 a60,60 0 0 0 60,60 a60,60 0 1 0 -60,-60 z M321.818,600 a60,60 0 0 0 60,60 a60,60 0 1 0 -60,-60 z M321.818,480 a60,60 0 0 0 60,60 a60,60 0 1 0 -60,-60 z M321.818,360 a60,60 0 0 0 60,60 a60,60 0 1 0 -60,-60 z M256.364,240 a60,60 0 0 0 60,60 a60,60 0 1 0 -60,-60 z M190.909,120 a60,60 0 0 0 60,60 a60,60 0 1 0 -60,-60 z "/>
<glyph glyph-name="*" unicode="&#42;" d="M190.909,720 a60,60 0 0 0 60,60 a60,60 0 1 0 -60,-60 z M452.727,720 a60,60 0 0 0 60,60 a60,60 0 1 0 -60,-60 z M256.364,600 a60,60 0 0 0 60,60 a60,60 0 1 0 -60,-60 z M387.273,600 a60,60 0 0 0 60,60 a60,60 0 1 0 -60,-60 z M60,480 a60,60 0 0 0 60,60 a60,60 0 1 0 -60,-60 z M190.909,480 a60,60 0 0 0 60,60 a60,60 0 1 0 -60,-60 z M321.818,480 a60,60 0 0 0 60,60 a60,60 0 1 0 -60,-60 z M452.727,480 a60,60 0 0 0 60,60 a60,60 0 1 0 -60,-60 z M583.636,480 a60,60 0 0 0 60,60 a60,60 0 1 0 -60,-60 z M256.364,360 a60,60 0 0 0 60,60 a60,60 0 1 0 -60,-60 z M387.273,360 a60,60 0 0 0 60,60 a60,60 0 1 0 -60,-60 z M190.909,240 a60,60 0 0 0 60,60 a60,60 0 1 0 -60,-60 z M452.727,240 a60,60 0 0 0 60,60 a60,60 0 1 0 -60,-60 z "/>
<glyph glyph-name="+" unicode="&#43;" d="M321.818,720 a60,60 0 0 0 60,60 a60,60 0 1 0 -60,-60 z M321.818,600 a60,60 0 0 0 60,60 a60,60 0 1 0 -60,-60 z M60,480 a60,60 0 0 0 60,60 a60,60 0 1 0 -60,-60 z M190.909,480 a60,60 0 0 0 60,60 a60,60 0 1 0 -60,-60 z M321.818,480 a60,60 0 0 0 60,60 a60,60 0 1 0 -60,-60 z M452.727,480 a60,60 0 0 0 60,60 a60,60 0 1 0 -60,-60 z M583.636,480 a60,60 0 0 0 60,60 a60,60 0 1 0 -60,-60 z M321.818,360 a60,60 0 0 0 60,60 a60,60 0 1 0 -60,-60 z M321.818,240 a60,60 0 0 0 60,60 a60,60 0 1 0 -60,-60 z "/>
<glyph glyph-name="," unicode="&#44;" d="M256.364,240 a60,60 0 0 0 60,60 a60,60 0 1 0 -60,-60 z M387.273,240 a60,60 0 0 0 60,60 a60,60 0 1 0 -60,-60 z M256.364,120 a60,60 0 0 0 60,60 a60,60 0 1 0 -60,-60 z M387.273,120 a60,60 0 0 0 60,60 a60,60 0 1 0 -60,-60 z M387.273,0 a60,60 0 0 0 60,60 a60,60 0 1 0 -60,-60 z M321.818,-120 a60,60 0 0 0 60,60 a60,60 0 1 0 -60,-60 z "/>
<glyph glyph-name="-" unicode="&#45;" d="M60,480 a60,60 0 0 0 60,60 a60,60 0 1 0 -60,-60 z M190.909,480 a60,60 0 0 0 60,60 a60,60 0 1 0 -60,-60 z M321.818,480 a60,60 0 0 0 60,60 a60,60 0 1 0 -60,-60 z M452.727,480 a60,60 0 0 0 60,60 a60,60 0 1 0 -60,-60 z M583.636,480 a60,60 0 0 0 60,60 a60,60 0 1 0 -60,-60 z "/>
<glyph glyph-name="." unicode="&#46;" d="M190.909,240 a60,60 0 0 0 60,60 a60,60 0 1 0 -60,-60 z M321.818,240 a60,60 0 0 0 60,60 a60,60 0 1 0 -60,-60 z M190.909,120 a60,60 0 0 0 60,60 a60,60 0 1 0 -60,-60 z M321.818,120 a60,60 0 0 0 60,60 a60,60 0 1 0 -60,-60 z "/>
<glyph glyph-name="/" unicode="&#47;" d="M518.182,840 a60,60 0 0 0 60,60 a60,60 0 1 0 -60,-60 z M452.727,720 a60,60 0 0 0 60,60 a60,60 0 1 0 -60,-60 z M387.273,600 a60,60 0 0 0 60,60 a60,60 0 1 0 -60,-60 z M321.818,480 a60,60 0 0 0 60,60 a60,60 0 1 0 -60,-60 z M256.364,360 a60,60 0 0 0 60,60 a60,60 0 1 0 -60,-60 z M190.909,240 a60,60 0 0 0 60,60 a60,60 0 1 0 -60,-60 z M125.455,120 a60,60 0 0 0 60,60 a60,60 0 1 0 -60,-60 z "/>
<glyph glyph-name="0" unicode="0" d="M256.364,840 a60,60 0 0 0 60,60 a60,60 0 1 0 -60,-60 z M387.273,840 a60,60 0 0 0 60,60 a60,60 0 1 0 -60,-60 z M125.455,720 a60,60 0 0 0 60,60 a60,60 0 1 0 -60,-60 z M518.182,720 a60,60 0 0 0 60,60 a60,60 0 1 0 -60,-60 z M60,600 a60,60 0 0 0 60,60 a60,60 0 1 0 -60,-60 z M583.636,600 a60,60 0 0 0 60,60 a60,60 0 1 0 -60,-60 z M60,480 a60,60 0 0 0 60,60 a60,60 0 1 0 -60,-60 z M583.636,480 a60,60 0 0 0 60,60 a60,60 0 1 0 -60,-60 z M60,360 a60,60 0 0 0 60,60 a60,60 0 1 0 -60,-60 z M583.636,360 a60,60 0 0 0 60,60 a60,60 0 1 0 -60,-60 z M125.455,240 a60,60 0 0 0 60,60 a60,60 0 1 0 -60,-60 z M518.182,240 a60,60 0 0 0 60,60 a60,60 0 1 0 -60,-60 z M256.364,120 a60,60 0 0 0 60,60 a60,60 0 1 0 -60,-60 z M387.273,120 a60,60 0 0 0 60,60 a60,60 0 1 0 -60,-60 z "/>
<glyph glyph-name="1" unicode="1" d="M321.818,840 a60,60 0 0 0 60,60 a60,60 0 1 0 -60,-60 z M190.909,720 a60,60 0 0 0 60,60 a60,60 0 1 0 -60,-60 z M321.818,720 a60,60 0 0 0 60,60 a60,60 0 1 0 -60,-60 z M321.818,600 a60,60 0 0 0 60,60 a60,60 0 1 0 -60,-60 z M321.818,480 a60,60 0 0 0 60,60 a60,60 0 1 0 -60,-60 z M321.818,360 a60,60 0 0 0 60,60 a60,60 0 1 0 -60,-60 z M321.818,240 a60,60 0 0 0 60,60 a60,60 0 1 0 -60,-60 z M190.909,120 a60,60 0 0 0 60,60 a60,60 0 1 0 -60,-60 z M321.818,120 a60,60 0 0 0 60,60 a60,60 0 1 0 -60,-60 z M452.727,120 a60,60 0 0 0 60,60 a60,60 0 1 0 -60,-60 z "/>
<glyph glyph-name="2" unicode="2" d="M125.455,840 a60,60 0 0 0 60,60 a60,60 0 1 0 -60,-60 z M256.364,840 a60,60 0 0 0 60,60 a60,60 0 1 0 -60,-60 z M387.273,840 a60,60 0 0 0 60,60 a60,60 0 1 0 -60,-60 z M518.182,840 a60,60 0 0 0 60,60 a60,60 0 1 0 -60,-60 z M60,720 a60,60 0 0 0 60,60 a60,60 0 1 0 -60,-60 z M583.636,720 a60,60 0 0 0 60,60 a60,60 0 1 0 -60,-60 z M583.636,600 a60,60 0 0 0 60,60 a60,60 0 1 0 -60,-60 z M452.727,480 a60,60 0 0 0 60,60 a60,60 0 1 0 -60,-60 z M321.818,360 a60,60 0 0 0 60,60 a60,60 0 1 0 -60,-60 z M190.909,240 a60,60 0 0 0 60,60 a60,60 0 1 0 -60,-60 z M60,120 a60,60 0 0 0 60,60 a60,60 0 1 0 -60,-60 z M190.909,120 a60,60 0 0 0 60,60 a60,60 0 1 0 -60,-60 z M321.818,120 a60,60 0 0 0 60,60 a60,60 0 1 0 -60,-60 z M452.727,120 a60,60 0 0 0 60,60 a60,60 0 1 0 -60,-60 z M583.636,120 a60,60 0 0 0 60,60 a60,60 0 1 0 -60,-60 z "/>
<glyph glyph-name="3" unicode="3" d="M60,840 a60,60 0 0 0 60,60 a60,60 0 1 0 -60,-60 z M190.909,840 a60,60 0 0 0 60,60 a60,60 0 1 0 -60,-60 z M321.818,840 a60,60 0 0 0 60,60 a60,60 0 1 0 -60,-60 z M452.727,840 a60,60 0 0 0 60,60 a60,60 0 1 0 -60,-60 z M583.636,840 a60,60 0 0 0 60,60 a60,60 0 1 0 -60,-60 z M452.727,720 a60,60 0 0 0 60,60 a60,60 0 1 0 -60,-60 z M321.818,600 a60,60 0 0 0 60,60 a60,60 0 1 0 -60,-60 z M452.727,480 a60,60 0 0 0 60,60 a60,60 0 1 0 -60,-60 z M583.636,360 a60,60 0 0 0 60,60 a60,60 0 1 0 -60,-60 z M60,240 a60,60 0 0 0 60,60 a60,60 0 1 0 -60,-60 z M583.636,240 a60,60 0 0 0 60,60 a60,60 0 1 0 -60,-60 z M190.909,120 a60,60 0 0 0 60,60 a60,60 0 1 0 -60,-60 z M321.818,120 a60,60 0 0 0 60,60 a60,60 0 1 0 -60,-60 z M452.727,120 a60,60 0 0 0 60,60 a60,60 0 1 0 -60,-60 z "/>
<glyph glyph-name="4" unicode="4" d="M321.818,840 a60,60 0 0 0 60,60 a60,60 0 1 0 -60,-60 z M452.727,840 a60,60 0 0 0 60,60 a60,60 0 1 0 -60,-60 z M256.364,720 a60,60 0 0 0 60,60 a60,60 0 1 0 -60,-60 z M452.727,720 a60,60 0 0 0 60,60 a60,60 0 1 0 -60,-60 z M190.909,600 a60,60 0 0 0 60,60 a60,60 0 1 0 -60,-60 z M452.727,600 a60,60 0 0 0 60,60 a60,60 0 1 0 -60,-60 z M125.455,480 a60,60 0 0 0 60,60 a60,60 0 1 0 -60,-60 z M452.727,480 a60,60 0 0 0 60,60 a60,60 0 1 0 -60,-60 z M60,360 a60,60 0 0 0 60,60 a60,60 0 1 0 -60,-60 z M190.909,360 a60,60 0 0 0 60,60 a60,60 0 1 0 -60,-60 z M321.818,360 a60,60 0 0 0 60,60 a60,60 0 1 0 -60,-60 z M452.727,360 a60,60 0 0 0 60,60 a60,60 0 1 0 -60,-60 z M583.636,360 a60,60 0 0 0 60,60 a60,60 0 1 0 -60,-60 z M452.727,240 a60,60 0 0 0 60,60 a60,60 0 1 0 -60,-60 z M452.727,120 a60,60 0 0 0 60,60 a60,60 0 1 0 -60,-60 z "/>
<glyph glyph-name="5" unicode="5" d="M60,840 a60,60 0 0 0 60,60 a60,60 0 1 0 -60,-60 z M190.909,840 a60,60 0 0 0 60,60 a60,60 0 1 0 -60,-60 z M321.818,840 a60,60 0 0 0 60,60 a60,60 0 1 0 -60,-60 z M452.727,840 a60,60 0 0 0 60,60 a60,60 0 1 0 -60,-60 z M583.636,840 a60,60 0 0 0 60,60 a60,60 0 1 0 -60,-60 z M60,720 a60,60 0 0 0 60,60 a60,60 0 1 0 -60,-60 z M60,600 a60,60 0 0 0 60,60 a60,60 0 1 0 -60,-60 z M190.909,600 a60,60 0 0 0 60,60 a60,60 0 1 0 -60,-60 z M321.818,600 a60,60 0 0 0 60,60 a60,60 0 1 0 -60,-60 z M452.727,600 a60,60 0 0 0 60,60 a60,60 0 1 0 -60,-60 z M583.636,480 a60,60 0 0 0 60,60 a60,60 0 1 0 -60,-60 z M583.636,360 a60,60 0 0 0 60,60 a60,60 0 1 0 -60,-60 z M60,240 a60,60 0 0 0 60,60 a60,60 0 1 0 -60,-60 z M583.636,240 a60,60 0 0 0 60,60 a60,60 0 1 0 -60,-60 z M125.455,120 a60,60 0 0 0 60,60 a60,60 0 1 0 -60,-60 z M256.364,120 a60,60 0 0 0 60,60 a60,60 0 1 0 -60,-60 z M387.273,120 a60,60 0 0 0 60,60 a60,60 0 1 0 -60,-60 z M518.182,120 a60,60 0 0 0 60,60 a60,60 0 1 0 -60,-60 z "/>
<glyph glyph-name="6" unicode="6" d="M321.818,840 a60,60 0 0 0 60,60 a60,60 0 1 0 -60,-60 z M256.364,720 a60,60 0 0 0 60,60 a60,60 0 1 0 -60,-60 z M190.909,600 a60,60 0 0 0 60,60 a60,60 0 1 0 -60,-60 z M125.455,480 a60,60 0 0 0 60,60 a60,60 0 1 0 -60,-60 z M256.364,480 a60,60 0 0 0 60,60 a60,60 0 1 0 -60,-60 z M387.273,480 a60,60 0 0 0 60,60 a60,60 0 1 0 -60,-60 z M518.182,480 a60,60 0 0 0 60,60 a60,60 0 1 0 -60,-60 z M60,360 a60,60 0 0 0 60,60 a60,60 0 1 0 -60,-60 z M583.636,360 a60,60 0 0 0 60,60 a60,60 0 1 0 -60,-60 z M60,240 a60,60 0 0 0 60,60 a60,60 0 1 0 -60,-60 z M583.636,240 a60,60 0 0 0 60,60 a60,60 0 1 0 -60,-60 z M125.455,120 a60,60 0 0 0 60,60 a60,60 0 1 0 -60,-60 z M256.364,120 a60,60 0 0 0 60,60 a60,60 0 1 0 -60,-60 z M387.273,120 a60,60 0 0 0 60,60 a60,60 0 1 0 -60,-60 z M518.182,120 a60,60 0 0 0 60,60 a60,60 0 1 0 -60,-60 z "/>
<glyph glyph-name="7" unicode="7" d="M60,840 a60,60 0 0 0 60,60 a60,60 0 1 0 -60,-60 z M190.909,840 a60,60 0 0 0 60,60 a60,60 0 1 0 -60,-60 z M321.818,840 a60,60 0 0 0 60,60 a60,60 0 1 0 -60,-60 z M452.727,840 a60,60 0 0 0 60,60 a60,60 0 1 0 -60,-60 z M583.636,840 a60,60 0 0 0 60,60 a60,60 0 1 0 -60,-60 z M518.182,720 a60,60 0 0 0 60,60 a60,60 0 1 0 -60,-60 z M452.727,600 a60,60 0 0 0 60,60 a60,60 0 1 0 -60,-60 z M387.273,480 a60,60 0 0 0 60,60 a60,60 0 1 0 -60,-60 z M321.818,360 a60,60 0 0 0 60,60 a60,60 0 1 0 -60,-60 z M256.364,240 a60,60 0 0 0 60,60 a60,60 0 1 0 -60,-60 z M190.909,120 a60,60 0 0 0 60,60 a60,60 0 1 0 -60,-60 z "/>
<glyph glyph-name="8" unicode="8" d="M190.909,840 a60,60 0 0 0 60,60 a60,60 0 1 0 -60,-60 z M321.818,840 a60,60 0 0 0 60,60 a60,60 0 1 0 -60,-60 z M452.727,840 a60,60 0 0 0 60,60 a60,60 0 1 0 -60,-60 z M125.455,720 a60,60 0 0 0 60,60 a60,60 0 1 0 -60,-60 z M518.182,720 a60,60 0 0 0 60,60 a60,60 0 1 0 -60,-60 z M125.455,600 a60,60 0 0 0 60,60 a60,60 0 1 0 -60,-60 z M518.182,600 a60,60 0 0 0 60,60 a60,60 0 1 0 -60,-60 z M190.909,480 a60,60 0 0 0 60,60 a60,60 0 1 0 -60,-60 z M321.818,480 a60,60 0 0 0 60,60 a60,60 0 1 0 -60,-60 z M452.727,480 a60,60 0 0 0 60,60 a60,60 0 1 0 -60,-60 z M60,360 a60,60 0 0 0 60,60 a60,60 0 1 0 -60,-60 z M583.636,360 a60,60 0 0 0 60,60 a60,60 0 1 0 -60,-60 z M60,240 a60,60 0 0 0 60,60 a60,60 0 1 0 -60,-60 z M583.636,240 a60,60 0 0 0 60,60 a60,60 0 1 0 -60,-60 z M125.455,120 a60,60 0 0 0 60,60 a60,60 0 1 0 -60,-60 z M256.364,120 a60,60 0 0 0 60,60 a60,60 0 1 0 -60,-60 z M387.273,120 a60,60 0 0 0 60,60 a60,60 0 1 0 -60,-60 z M518.182,120 a60,60 0 0 0 60,60 a60,60 0 1 0 -60,-60 z "/>
<glyph glyph-name="9" unicode="9" d="M125.455,840 a60,60 0 0 0 60,60 a60,60 0 1 0 -60,-60 z M256.364,840 a60,60 0 0 0 60,60 a60,60 0 1 0 -60,-60 z M387.273,840 a60,60 0 0 0 60,60 a60,60 0 1 0 -60,-60 z M518.182,840 a60,60 0 0 0 60,60 a60,60 0 1 0 -60,-60 z M60,720 a60,60 0 0 0 60,60 a60,60 0 1 0 -60,-60 z M583.636,720 a60,60 0 0 0 60,60 a60,60 0 1 0 -60,-60 z M60,600 a60,60 0 0 0 60,60 a60,60 0 1 0 -60,-60 z M583.636,600 a60,60 0 0 0 60,60 a60,60 0 1 0 -60,-60 z M125.455,480 a60,60 0 0 0 60,60 a60,60 0 1 0 -60,-60 z M256.364,480 a60,60 0 0 0 60,60 a60,60 0 1 0 -60,-60 z M387.273,480 a60,60 0 0 0 60,60 a60,60 0 1 0 -60,-60 z M518.182,480 a60,60 0 0 0 60,60 a60,60 0 1 0 -60,-60 z M452.727,360 a60,60 0 0 0 60,60 a60,60 0 1 0 -60,-60 z M387.273,240 a60,60 0 0 0 60,60 a60,60 0 1 0 -60,-60 z M321.818,120 a60,60 0 0 0 60,60 a60,60 0 1 0 -60,-60 z "/>
<glyph glyph-name=":" unicode=":" d="M190.909,600 a60,60 0 0 0 60,60 a60,60 0 1 0 -60,-60 z M321.818,600 a60,60 0 0 0 60,60 a60,60 0 1 0 -60,-60 z M190.909,480 a60,60 0 0 0 60,60 a60,60 0 1 0 -60,-60 z M321.818,480 a60,60 0 0 0 60,60 a60,60 0 1 0 -60,-60 z M190.909,240 a60,60 0 0 0 60,60 a60,60 0 1 0 -60,-60 z M321.818,240 a60,60 0 0 0 60,60 a60,60 0 1 0 -60,-60 z M190.909,120 a60,60 0 0 0 60,60 a60,60 0 1 0 -60,-60 z M321.818,120 a60,60 0 0 0 60,60 a60,60 0 1 0 -60,-60 z "/>
<glyph glyph-name=";" unicode=";" d="M190.909,600 a60,60 0 0 0 60,60 a60,60 0 1 0 -60,-60 z M321.818,600 a60,60 0 0 0 60,60 a60,60 0 1 0 -60,-60 z M190.909,480 a60,60 0 0 0 60,60 a60,60 0 1 0 -60,-60 z M321.818,480 a60,60 0 0 0 60,60 a60,60 0 1 0 -60,-60 z M190.909,240 a60,60 0 0 0 60,60 a60,60 0 1 0 -60,-60 z M321.818,240 a60,60 0 0 0 60,60 a60,60 0 1 0 -60,-60 z M190.909,120 a60,60 0 0 0 60,60 a60,60 0 1 0 -60,-60 z M321.818,120 a60,60 0 0 0 60,60 a60,60 0 1 0 -60,-60 z M321.818,0 a60,60 0 0 0 60,60 a60,60 0 1 0 -60,-60 z M190.909,-120 a60,60 0 0 0 60,60 a60,60 0 1 0 -60,-60 z "/>
<glyph glyph-name="lt" unicode="&lt;" d="M452.727,840 a60,60 0 0 0 60,60 a60,60 0 1 0 -60,-60 z M321.818,720 a60,60 0 0 0 60,60 a60,60 0 1 0 -60,-60 z M190.909,600 a60,60 0 0 0 60,60 a60,60 0 1 0 -60,-60 z M60,480 a60,60 0 0 0 60,60 a60,60 0 1 0 -60,-60 z M190.909,360 a60,60 0 0 0 60,60 a60,60 0 1 0 -60,-60 z M321.818,240 a60,60 0 0 0 60,60 a60,60 0 1 0 -60,-60 z M452.727,120 a60,60 0 0 0 60,60 a60,60 0 1 0 -60,-60 z "/>
<glyph glyph-name="eq" unicode="=" d="M60,600 a60,60 0 0 0 60,60 a60,60 0 1 0 -60,-60 z M190.909,600 a60,60 0 0 0 60,60 a60,60 0 1 0 -60,-60 z M321.818,600 a60,60 0 0 0 60,60 a60,60 0 1 0 -60,-60 z M452.727,600 a60,60 0 0 0 60,60 a60,60 0 1 0 -60,-60 z M583.636,600 a60,60 0 0 0 60,60 a60,60 0 1 0 -60,-60 z M60,360 a60,60 0 0 0 60,60 a60,60 0 1 0 -60,-60 z M190.909,360 a60,60 0 0 0 60,60 a60,60 0 1 0 -60,-60 z M321.818,360 a60,60 0 0 0 60,60 a60,60 0 1 0 -60,-60 z M452.727,360 a60,60 0 0 0 60,60 a60,60 0 1 0 -60,-60 z M583.636,360 a60,60 0 0 0 60,60 a60,60 0 1 0 -60,-60 z "/>
<glyph glyph-name="gt" unicode="&gt;" d="M190.909,840 a60,60 0 0 0 60,60 a60,60 0 1 0 -60,-60 z M321.818,720 a60,60 0 0 0 60,60 a60,60 0 1 0 -60,-60 z M452.727,600 a60,60 0 0 0 60,60 a60,60 0 1 0 -60,-60 z M583.636,480 a60,60 0 0 0 60,60 a60,60 0 1 0 -60,-60 z M452.727,360 a60,60 0 0 0 60,60 a60,60 0 1 0 -60,-60 z M321.818,240 a60,60 0 0 0 60,60 a60,60 0 1 0 -60,-60 z M190.909,120 a60,60 0 0 0 60,60 a60,60 0 1 0 -60,-60 z "/>
<glyph glyph-name="?" unicode="?" d="M125.455,840 a60,60 0 0 0 60,60 a60,60 0 1 0 -60,-60 z M256.364,840 a60,60 0 0 0 60,60 a60,60 0 1 0 -60,-60 z M387.273,840 a60,60 0 0 0 60,60 a60,60 0 1 0 -60,-60 z M518.182,840 a60,60 0 0 0 60,60 a60,60 0 1 0 -60,-60 z M60,720 a60,60 0 0 0 60,60 a60,60 0 1 0 -60,-60 z M583.636,720 a60,60 0 0 0 60,60 a60,60 0 1 0 -60,-60 z M583.636,600 a60,60 0 0 0 60,60 a60,60 0 1 0 -60,-60 z M452.727,480 a60,60 0 0 0 60,60 a60,60 0 1 0 -60,-60 z M321.818,360 a60,60 0 0 0 60,60 a60,60 0 1 0 -60,-60 z M321.818,120 a60,60 0 0 0 60,60 a60,60 0 1 0 -60,-60 z "/>
<glyph glyph-name="@" unicode="@" d="M190.909,840 a60,60 0 0 0 60,60 a60,60 0 1 0 -60,-60 z M321.818,840 a60,60 0 0 0 60,60 a60,60 0 1 0 -60,-60 z M452.727,840 a60,60 0 0 0 60,60 a60,60 0 1 0 -60,-60 z M125.455,720 a60,60 0 0 0 60,60 a60,60 0 1 0 -60,-60 z M583.636,720 a60,60 0 0 0 60,60 a60,60 0 1 0 -60,-60 z M60,600 a60,60 0 0 0 60,60 a60,60 0 1 0 -60,-60 z M321.818,600 a60,60 0 0 0 60,60 a60,60 0 1 0 -60,-60 z M452.727,600 a60,60 0 0 0 60,60 a60,60 0 1 0 -60,-60 z M583.636,600 a60,60 0 0 0 60,60 a60,60 0 1 0 -60,-60 z M60,480 a60,60 0 0 0 60,60 a60,60 0 1 0 -60,-60 z M256.364,480 a60,60 0 0 0 60,60 a60,60 0 1 0 -60,-60 z M583.636,480 a60,60 0 0 0 60,60 a60,60 0 1 0 -60,-60 z M60,360 a60,60 0 0 0 60,60 a60,60 0 1 0 -60,-60 z M321.818,360 a60,60 0 0 0 60,60 a60,60 0 1 0 -60,-60 z M452.727,360 a60,60 0 0 0 60,60 a60,60 0 1 0 -60,-60 z M583.636,360 a60,60 0 0 0 60,60 a60,60 0 1 0 -60,-60 z M125.455,240 a60,60 0 0 0 60,60 a60,60 0 1 0 -60,-60 z M190.909,120 a60,60 0 0 0 60,60 a60,60 0 1 0 -60,-60 z M321.818,120 a60,60 0 0 0 60,60 a60,60 0 1 0 -60,-60 z M452.727,120 a60,60 0 0 0 60,60 a60,60 0 1 0 -60,-60 z M583.636,120 a60,60 0 0 0 60,60 a60,60 0 1 0 -60,-60 z "/>
<glyph glyph-name="A" unicode="A" d="M256.364,840 a60,60 0 0 0 60,60 a60,60 0 1 0 -60,-60 z M387.273,840 a60,60 0 0 0 60,60 a60,60 0 1 0 -60,-60 z M190.909,720 a60,60 0 0 0 60,60 a60,60 0 1 0 -60,-60 z M452.727,720 a60,60 0 0 0 60,60 a60,60 0 1 0 -60,-60 z M125.455,600 a60,60 0 0 0 60,60 a60,60 0 1 0 -60,-60 z M518.182,600 a60,60 0 0 0 60,60 a60,60 0 1 0 -60,-60 z M60,480 a60,60 0 0 0 60,60 a60,60 0 1 0 -60,-60 z M583.636,480 a60,60 0 0 0 60,60 a60,60 0 1 0 -60,-60 z M60,360 a60,60 0 0 0 60,60 a60,60 0 1 0 -60,-60 z M190.909,360 a60,60 0 0 0 60,60 a60,60 0 1 0 -60,-60 z M321.818,360 a60,60 0 0 0 60,60 a60,60 0 1 0 -60,-60 z M452.727,360 a60,60 0 0 0 60,60 a60,60 0 1 0 -60,-60 z M583.636,360 a60,60 0 0 0 60,60 a60,60 0 1 0 -60,-60 z M60,240 a60,60 0 0 0 60,60 a60,60 0 1 0 -60,-60 z M583.636,240 a60,60 0 0 0 60,60 a60,60 0 1 0 -60,-60 z M60,120 a60,60 0 0 0 60,60 a60,60 0 1 0 -60,-60 z M583.636,120 a60,60 0 0 0 60,60 a60,60 0 1 0 -60,-60 z "/>
<glyph glyph-name="B" unicode="B" d="M60,840 a60,60 0 0 0 60,60 a60,60 0 1 0 -60,-60 z M190.909,840 a60,60 0 0 0 60,60 a60,60 0 1 0 -60,-60 z M321.818,840 a60,60 0 0 0 60,60 a60,60 0 1 0 -60,-60 z M452.727,840 a60,60 0 0 0 60,60 a60,60 0 1 0 -60,-60 z M190.909,720 a60,60 0 0 0 60,60 a60,60 0 1 0 -60,-60 z M518.182,720 a60,60 0 0 0 60,60 a60,60 0 1 0 -60,-60 z M190.909,600 a60,60 0 0 0 60,60 a60,60 0 1 0 -60,-60 z M518.182,600 a60,60 0 0 0 60,60 a60,60 0 1 0 -60,-60 z M190.909,480 a60,60 0 0 0 60,60 a60,60 0 1 0 -60,-60 z M321.818,480 a60,60 0 0 0 60,60 a60,60 0 1 0 -60,-60 z M452.727,480 a60,60 0 0 0 60,60 a60,60 0 1 0 -60,-60 z M190.909,360 a60,60 0 0 0 60,60 a60,60 0 1 0 -60,-60 z M518.182,360 a60,60 0 0 0 60,60 a60,60 0 1 0 -60,-60 z M190.909,240 a60,60 0 0 0 60,60 a60,60 0 1 0 -60,-60 z M518.182,240 a60,60 0 0 0 60,60 a60,60 0 1 0 -60,-60 z M60,120 a60,60 0 0 0 60,60 a60,60 0 1 0 -60,-60 z M190.909,120 a60,60 0 0 0 60,60 a60,60 0 1 0 -60,-60 z M321.818,120 a60,60 0 0 0 60,60 a60,60 0 1 0 -60,-60 z M452.727,120 a60,60 0 0 0 60,60 a60,60 0 1 0 -60,-60 z "/>
<glyph glyph-name="C" unicode="C" d="M125.455,840 a60,60 0 0 0 60,60 a60,60 0 1 0 -60,-60 z M256.364,840 a60,60 0 0 0 60,60 a60,60 0 1 0 -60,-60 z M387.273,840 a60,60 0 0 0 60,60 a60,60 0 1 0 -60,-60 z M518.182,840 a60,60 0 0 0 60,60 a60,60 0 1 0 -60,-60 z M60,720 a60,60 0 0 0 60,60 a60,60 0 1 0 -60,-60 z M583.636,720 a60,60 0 0 0 60,60 a60,60 0 1 0 -60,-60 z M60,600 a60,60 0 0 0 60,60 a60,60 0 1 0 -60,-60 z M60,480 a60,60 0 0 0 60,60 a60,60 0 1 0 -60,-60 z M60,360 a60,60 0 0 0 60,60 a60,60 0 1 0 -60,-60 z M60,240 a60,60 0 0 0 60,60 a60,60 0 1 0 -60,-60 z M583.636,240 a60,60 0 0 0 60,60 a60,60 0 1 0 -60,-60 z M125.455,120 a60,60 0 0 0 60,60 a60,60 0 1 0 -60,-60 z M256.364,120 a60,60 0 0 0 60,60 a60,60 0 1 0 -60,-60 z M387.273,120 a60,60 0 0 0 60,60 a60,60 0 1 0 -60,-60 z M518.182,120 a60,60 0 0 0 60,60 a60,60 0 1 0 -60,-60 z "/>
<glyph glyph-name="D" unicode="D" d="M60,840 a60,60 0 0 0 60,60 a60,60 0 1 0 -60,-60 z M190.909,840 a60,60 0 0 0 60,60 a60,60 0 1 0 -60,-60 z M321.818,840 a60,60 0 0 0 60,60 a60,60 0 1 0 -60,-60 z M452.727,840 a60,60 0 0 0 60,60 a60,60 0 1 0 -60,-60 z M190.909,720 a60,60 0 0 0 60,60 a60,60 0 1 0 -60,-60 z M518.182,720 a60,60 0 0 0 60,60 a60,60 0 1 0 -60,-60 z M190.909,600 a60,60 0 0 0 60,60 a60,60 0 1 0 -60,-60 z M583.636,600 a60,60 0 0 0 60,60 a60,60 0 1 0 -60,-60 z M190.909,480 a60,60 0 0 0 60,60 a60,60 0 1 0 -60,-60 z M583.636,480 a60,60 0 0 0 60,60 a60,60 0 1 0 -60,-60 z M190.909,360 a60,60 0 0 0 60,60 a60,60 0 1 0 -60,-60 z M583.636,360 a60,60 0 0 0 60,60 a60,60 0 1 0 -60,-60 z M190.909,240 a60,60 0 0 0 60,60 a60,60 0 1 0 -60,-60 z M518.182,240 a60,60 0 0 0 60,60 a60,60 0 1 0 -60,-60 z M60,120 a60,60 0 0 0 60,60 a60,60 0 1 0 -60,-60 z M190.909,120 a60,60 0 0 0 60,60 a60,60 0 1 0 -60,-60 z M321.818,120 a60,60 0 0 0 60,60 a60,60 0 1 0 -60,-60 z M452.727,120 a60,60 0 0 0 60,60 a60,60 0 1 0 -60,-60 z "/>
<glyph glyph-name="E" unicode="E" d="M60,840 a60,60 0 0 0 60,60 a60,60 0 1 0 -60,-60 z M190.909,840 a60,60 0 0 0 60,60 a60,60 0 1 0 -60,-60 z M321.818,840 a60,60 0 0 0 60,60 a60,60 0 1 0 -60,-60 z M452.727,840 a60,60 0 0 0 60,60 a60,60 0 1 0 -60,-60 z M583.636,840 a60,60 0 0 0 60,60 a60,60 0 1 0 -60,-60 z M60,720 a60,60 0 0 0 60,60 a60,60 0 1 0 -60,-60 z M60,600 a60,60 0 0 0 60,60 a60,60 0 1 0 -60,-60 z M60,480 a60,60 0 0 0 60,60 a60,60 0 1 0 -60,-60 z M190.909,480 a60,60 0 0 0 60,60 a60,60 0 1 0 -60,-60 z M321.818,480 a60,60 0 0 0 60,60 a60,60 0 1 0 -60,-60 z M452.727,480 a60,60 0 0 0 60,60 a60,60 0 1 0 -60,-60 z M60,360 a60,60 0 0 0 60,60 a60,60 0 1 0 -60,-60 z M60,240 a60,60 0 0 0 60,60 a60,60 0 1 0 -60,-60 z M60,120 a60,60 0 0 0 60,60 a60,60 0 1 0 -60,-60 z M190.909,120 a60,60 0 0 0 60,60 a60,60 0 1 0 -60,-60 z M321.818,120 a60,60 0 0 0 60,60 a60,60 0 1 0 -60,-60 z M452.727,120 a60,60 0 0 0 60,60 a60,60 0 1 0 -60,-60 z M583.636,120 a60,60 0 0 0 60,60 a60,60 0 1 0 -60,-60 z "/>
<glyph glyph-name="F" unicode="F" d="M60,840 a60,60 0 0 0 60,60 a60,60 0 1 0 -60,-60 z M190.909,840 a60,60 0 0 0 60,60 a60,60 0 1 0 -60,-60 z M321.818,840 a60,60 0 0 0 60,60 a60,60 0 1 0 -60,-60 z M452.727,840 a60,60 0 0 0 60,60 a60,60 0 1 0 -60,-60 z M583.636,840 a60,60 0 0 0 60,60 a60,60 0 1 0 -60,-60 z M60,720 a60,60 0 0 0 60,60 a60,60 0 1 0 -60,-60 z M60,600 a60,60 0 0 0 60,60 a60,60 0 1 0 -60,-60 z M60,480 a60,60 0 0 0 60,60 a60,60 0 1 0 -60,-60 z M190.909,480 a60,60 0 0 0 60,60 a60,60 0 1 0 -60,-60 z M321.818,480 a60,60 0 0 0 60,60 a60,60 0 1 0 -60,-60 z M452.727,480 a60,60 0 0 0 60,60 a60,60 0 1 0 -60,-60 z M60,360 a60,60 0 0 0 60,60 a60,60 0 1 0 -60,-60 z M60,240 a60,60 0 0 0 60,60 a60,60 0 1 0 -60,-60 z M60,120 a60,60 0 0 0 60,60 a60,60 0 1 0 -60,-60 z "/>
<glyph glyph-name="G" unicode="G" d="M125.455,840 a60,60 0 0 0 60,60 a60,60 0 1 0 -60,-60 z M256.364,840 a60,60 0 0 0 60,60 a60,60 0 1 0 -60,-60 z M387.273,840 a60,60 0 0 0 60,60 a60,60 0 1 0 -60,-60 z M518.182,840 a60,60 0 0 0 60,60 a60,60 0 1 0 -60,-60 z M60,720 a60,60 0 0 0 60,60 a60,60 0 1 0 -60,-60 z M583.636,720 a60,60 0 0 0 60,60 a60,60 0 1 0 -60,-60 z M60,600 a60,60 0 0 0 60,60 a60,60 0 1 0 -60,-60 z M60,480 a60,60 0 0 0 60,60 a60,60 0 1 0 -60,-60 z M321.818,480 a60,60 0 0 0 60,60 a60,60 0 1 0 -60,-60 z M452.727,480 a60,60 0 0 0 60,60 a60,60 0 1 0 -60,-60 z M583.636,480 a60,60 0 0 0 60,60 a60,60 0 1 0 -60,-60 z M60,360 a60,60 0 0 0 60,60 a60,60 0 1 0 -60,-60 z M583.636,360 a60,60 0 0 0 60,60 a60,60 0 1 0 -60,-60 z M60,240 a60,60 0 0 0 60,60 a60,60 0 1 0 -60,-60 z M583.636,240 a60,60 0 0 0 60,60 a60,60 0 1 0 -60,-60 z M125.455,120 a60,60 0 0 0 60,60 a60,60 0 1 0 -60,-60 z M256.364,120 a60,60 0 0 0 60,60 a60,60 0 1 0 -60,-60 z M387.273,120 a60,60 0 0 0 60,60 a60,60 0 1 0 -60,-60 z M518.182,120 a60,60 0 0 0 60,60 a60,60 0 1 0 -60,-60 z "/>
<glyph glyph-name="H" unicode="H" d="M60,840 a60,60 0 0 0 60,60 a60,60 0 1 0 -60,-60 z M583.636,840 a60,60 0 0 0 60,60 a60,60 0 1 0 -60,-60 z M60,720 a60,60 0 0 0 60,60 a60,60 0 1 0 -60,-60 z M583.636,720 a60,60 0 0 0 60,60 a60,60 0 1 0 -60,-60 z M60,600 a60,60 0 0 0 60,60 a60,60 0 1 0 -60,-60 z M583.636,600 a60,60 0 0 0 60,60 a60,60 0 1 0 -60,-60 z M60,480 a60,60 0 0 0 60,60 a60,60 0 1 0 -60,-60 z M190.909,480 a60,60 0 0 0 60,60 a60,60 0 1 0 -60,-60 z M321.818,480 a60,60 0 0 0 60,60 a60,60 0 1 0 -60,-60 z M452.727,480 a60,60 0 0 0 60,60 a60,60 0 1 0 -60,-60 z M583.636,480 a60,60 0 0 0 60,60 a60,60 0 1 0 -60,-60 z M60,360 a60,60 0 0 0 60,60 a60,60 0 1 0 -60,-60 z M583.636,360 a60,60 0 0 0 60,60 a60,60 0 1 0 -60,-60 z M60,240 a60,60 0 0 0 60,60 a60,60 0 1 0 -60,-60 z M583.636,240 a60,60 0 0 0 60,60 a60,60 0 1 0 -60,-60 z M60,120 a60,60 0 0 0 60,60 a60,60 0 1 0 -60,-60 z M583.636,120 a60,60 0 0 0 60,60 a60,60 0 1 0 -60,-60 z "/>
<glyph glyph-name="I" unicode="I" d="M190.909,840 a60,60 0 0 0 60,60 a60,60 0 1 0 -60,-60 z M321.818,840 a60,60 0 0 0 60,60 a60,60 0 1 0 -60,-60 z M452.727,840 a60,60 0 0 0 60,60 a60,60 0 1 0 -60,-60 z M321.818,720 a60,60 0 0 0 60,60 a60,60 0 1 0 -60,-60 z M321.818,600 a60,60 0 0 0 60,60 a60,60 0 1 0 -60,-60 z M321.818,480 a60,60 0 0 0 60,60 a60,60 0 1 0 -60,-60 z M321.818,360 a60,60 0 0 0 60,60 a60,60 0 1 0 -60,-60 z M321.818,240 a60,60 0 0 0 60,60 a60,60 0 1 0 -60,-60 z M190.909,120 a60,60 0 0 0 60,60 a60,60 0 1 0 -60,-60 z M321.818,120 a60,60 0 0 0 60,60 a60,60 0 1 0 -60,-60 z M452.727,120 a60,60 0 0 0 60,60 a60,60 0 1 0 -60,-60 z "/>
<glyph glyph-name="J" unicode="J" d="M256.364,840 a60,60 0 0 0 60,60 a60,60 0 1 0 -60,-60 z M387.273,840 a60,60 0 0 0 60,60 a60,60 0 1 0 -60,-60 z M518.182,840 a60,60 0 0 0 60,60 a60,60 0 1 0 -60,-60 z M452.727,720 a60,60 0 0 0 60,60 a60,60 0 1 0 -60,-60 z M452.727,600 a60,60 0 0 0 60,60 a60,60 0 1 0 -60,-60 z M452.727,480 a60,60 0 0 0 60,60 a60,60 0 1 0 -60,-60 z M60,360 a60,60 0 0 0 60,60 a60,60 0 1 0 -60,-60 z M452.727,360 a60,60 0 0 0 60,60 a60,60 0 1 0 -60,-60 z M60,240 a60,60 0 0 0 60,60 a60,60 0 1 0 -60,-60 z M452.727,240 a60,60 0 0 0 60,60 a60,60 0 1 0 -60,-60 z M125.455,120 a60,60 0 0 0 60,60 a60,60 0 1 0 -60,-60 z M256.364,120 a60,60 0 0 0 60,60 a60,60 0 1 0 -60,-60 z M387.273,120 a60,60 0 0 0 60,60 a60,60 0 1 0 -60,-60 z "/>
<glyph glyph-name="K" unicode="K" d="M60,840 a60,60 0 0 0 60,60 a60,60 0 1 0 -60,-60 z M583.636,840 a60,60 0 0 0 60,60 a60,60 0 1 0 -60,-60 z M60,720 a60,60 0 0 0 60,60 a60,60 0 1 0 -60,-60 z M452.727,720 a60,60 0 0 0 60,60 a60,60 0 1 0 -60,-60 z M60,600 a60,60 0 0 0 60,60 a60,60 0 1 0 -60,-60 z M321.818,600 a60,60 0 0 0 60,60 a60,60 0 1 0 -60,-60 z M60,480 a60,60 0 0 0 60,60 a60,60 0 1 0 -60,-60 z M190.909,480 a60,60 0 0 0 60,60 a60,60 0 1 0 -60,-60 z M60,360 a60,60 0 0 0 60,60 a60,60 0 1 0 -60,-60 z M321.818,360 a60,60 0 0 0 60,60 a60,60 0 1 0 -60,-60 z M60,240 a60,60 0 0 0 60,60 a60,60 0 1 0 -60,-60 z M452.727,240 a60,60 0 0 0 60,60 a60,60 0 1 0 -60,-60 z M60,120 a60,60 0 0 0 60,60 a60,60 0 1 0 -60,-60 z M583.636,120 a60,60 0 0 0 60,60 a60,60 0 1 0 -60,-60 z "/>
<glyph glyph-name="L" unicode="L" d="M60,840 a60,60 0 0 0 60,60 a60,60 0 1 0 -60,-60 z M60,720 a60,60 0 0 0 60,60 a60,60 0 1 0 -60,-60 z M60,600 a60,60 0 0 0 60,60 a60,60 0 1 0 -60,-60 z M60,480 a60,60 0 0 0 60,60 a60,60 0 1 0 -60,-60 z M60,360 a60,60 0 0 0 60,60 a60,60 0 1 0 -60,-60 z M60,240 a60,60 0 0 0 60,60 a60,60 0 1 0 -60,-60 z M60,120 a60,60 0 0 0 60,60 a60,60 0 1 0 -60,-60 z M190.909,120 a60,60 0 0 0 60,60 a60,60 0 1 0 -60,-60 z M321.818,120 a60,60 0 0 0 60,60 a60,60 0 1 0 -60,-60 z M452.727,120 a60,60 0 0 0 60,60 a60,60 0 1 0 -60,-60 z M583.636,120 a60,60 0 0 0 60,60 a60,60 0 1 0 -60,-60 z "/>
<glyph glyph-name="M" unicode="M" d="M60,840 a60,60 0 0 0 60,60 a60,60 0 1 0 -60,-60 z M583.636,840 a60,60 0 0 0 60,60 a60,60 0 1 0 -60,-60 z M60,720 a60,60 0 0 0 60,60 a60,60 0 1 0 -60,-60 z M190.909,720 a60,60 0 0 0 60,60 a60,60 0 1 0 -60,-60 z M452.727,720 a60,60 0 0 0 60,60 a60,60 0 1 0 -60,-60 z M583.636,720 a60,60 0 0 0 60,60 a60,60 0 1 0 -60,-60 z M60,600 a60,60 0 0 0 60,60 a60,60 0 1 0 -60,-60 z M256.364,600 a60,60 0 0 0 60,60 a60,60 0 1 0 -60,-60 z M387.273,600 a60,60 0 0 0 60,60 a60,60 0 1 0 -60,-60 z M583.636,600 a60,60 0 0 0 60,60 a60,60 0 1 0 -60,-60 z M60,480 a60,60 0 0 0 60,60 a60,60 0 1 0 -60,-60 z M321.818,480 a60,60 0 0 0 60,60 a60,60 0 1 0 -60,-60 z M583.636,480 a60,60 0 0 0 60,60 a60,60 0 1 0 -60,-60 z M60,360 a60,60 0 0 0 60,60 a60,60 0 1 0 -60,-60 z M583.636,360 a60,60 0 0 0 60,60 a60,60 0 1 0 -60,-60 z M60,240 a60,60 0 0 0 60,60 a60,60 0 1 0 -60,-60 z M583.636,240 a60,60 0 0 0 60,60 a60,60 0 1 0 -60,-60 z M60,120 a60,60 0 0 0 60,60 a60,60 0 1 0 -60,-60 z M583.636,120 a60,60 0 0 0 60,60 a60,60 0 1 0 -60,-60 z "/>
<glyph glyph-name="N" unicode="N" d="M60,840 a60,60 0 0 0 60,60 a60,60 0 1 0 -60,-60 z M583.636,840 a60,60 0 0 0 60,60 a60,60 0 1 0 -60,-60 z M60,720 a60,60 0 0 0 60,60 a60,60 0 1 0 -60,-60 z M190.909,720 a60,60 0 0 0 60,60 a60,60 0 1 0 -60,-60 z M583.636,720 a60,60 0 0 0 60,60 a60,60 0 1 0 -60,-60 z M60,600 a60,60 0 0 0 60,60 a60,60 0 1 0 -60,-60 z M256.364,600 a60,60 0 0 0 60,60 a60,60 0 1 0 -60,-60 z M583.636,600 a60,60 0 0 0 60,60 a60,60 0 1 0 -60,-60 z M60,480 a60,60 0 0 0 60,60 a60,60 0 1 0 -60,-60 z M321.818,480 a60,60 0 0 0 60,60 a60,60 0 1 0 -60,-60 z M583.636,480 a60,60 0 0 0 60,60 a60,60 0 1 0 -60,-60 z M60,360 a60,60 0 0 0 60,60 a60,60 0 1 0 -60,-60 z M387.273,360 a60,60 0 0 0 60,60 a60,60 0 1 0 -60,-60 z M583.636,360 a60,60 0 0 0 60,60 a60,60 0 1 0 -60,-60 z M60,240 a60,60 0 0 0 60,60 a60,60 0 1 0 -60,-60 z M452.727,240 a60,60 0 0 0 60,60 a60,60 0 1 0 -60,-60 z M583.636,240 a60,60 0 0 0 60,60 a60,60 0 1 0 -60,-60 z M60,120 a60,60 0 0 0 60,60 a60,60 0 1 0 -60,-60 z M583.636,120 a60,60 0 0 0 60,60 a60,60 0 1 0 -60,-60 z "/>
<glyph glyph-name="O" unicode="O" d="M125.455,840 a60,60 0 0 0 60,60 a60,60 0 1 0 -60,-60 z M256.364,840 a60,60 0 0 0 60,60 a60,60 0 1 0 -60,-60 z M387.273,840 a60,60 0 0 0 60,60 a60,60 0 1 0 -60,-60 z M518.182,840 a60,60 0 0 0 60,60 a60,60 0 1 0 -60,-60 z M60,720 a60,60 0 0 0 60,60 a60,60 0 1 0 -60,-60 z M583.636,720 a60,60 0 0 0 60,60 a60,60 0 1 0 -60,-60 z M60,600 a60,60 0 0 0 60,60 a60,60 0 1 0 -60,-60 z M583.636,600 a60,60 0 0 0 60,60 a60,60 0 1 0 -60,-60 z M60,480 a60,60 0 0 0 60,60 a60,60 0 1 0 -60,-60 z M583.636,480 a60,60 0 0 0 60,60 a60,60 0 1 0 -60,-60 z M60,360 a60,60 0 0 0 60,60 a60,60 0 1 0 -60,-60 z M583.636,360 a60,60 0 0 0 60,60 a60,60 0 1 0 -60,-60 z M60,240 a60,60 0 0 0 60,60 a60,60 0 1 0 -60,-60 z M583.636,240 a60,60 0 0 0 60,60 a60,60 0 1 0 -60,-60 z M125.455,120 a60,60 0 0 0 60,60 a60,60 0 1 0 -60,-60 z M256.364,120 a60,60 0 0 0 60,60 a60,60 0 1 0 -60,-60 z M387.273,120 a60,60 0 0 0 60,60 a60,60 0 1 0 -60,-60 z M518.182,120 a60,60 0 0 0 60,60 a60,60 0 1 0 -60,-60 z "/>
<glyph glyph-name="P" unicode="P" d="M60,840 a60,60 0 0 0 60,60 a60,60 0 1 0 -60,-60 z M190.909,840 a60,60 0 0 0 60,60 a60,60 0 1 0 -60,-60 z M321.818,840 a60,60 0 0 0 60,60 a60,60 0 1 0 -60,-60 z M452.727,840 a60,60 0 0 0 60,60 a60,60 0 1 0 -60,-60 z M60,720 a60,60 0 0 0 60,60 a60,60 0 1 0 -60,-60 z M583.636,720 a60,60 0 0 0 60,60 a60,60 0 1 0 -60,-60 z M60,600 a60,60 0 0 0 60,60 a60,60 0 1 0 -60,-60 z M583.636,600 a60,60 0 0 0 60,60 a60,60 0 1 0 -60,-60 z M60,480 a60,60 0 0 0 60,60 a60,60 0 1 0 -60,-60 z M190.909,480 a60,60 0 0 0 60,60 a60,60 0 1 0 -60,-60 z M321.818,480 a60,60 0 0 0 60,60 a60,60 0 1 0 -60,-60 z M452.727,480 a60,60 0 0 0 60,60 a60,60 0 1 0 -60,-60 z M60,360 a60,60 0 0 0 60,60 a60,60 0 1 0 -60,-60 z M60,240 a60,60 0 0 0 60,60 a60,60 0 1 0 -60,-60 z M60,120 a60,60 0 0 0 60,60 a60,60 0 1 0 -60,-60 z "/>
<glyph glyph-name="Q" unicode="Q" d="M125.455,840 a60,60 0 0 0 60,60 a60,60 0 1 0 -60,-60 z M256.364,840 a60,60 0 0 0 60,60 a60,60 0 1 0 -60,-60 z M387.273,840 a60,60 0 0 0 60,60 a60,60 0 1 0 -60,-60 z M518.182,840 a60,60 0 0 0 60,60 a60,60 0 1 0 -60,-60 z M60,720 a60,60 0 0 0 60,60 a60,60 0 1 0 -60,-60 z M583.636,720 a60,60 0 0 0 60,60 a60,60 0 1 0 -60,-60 z M60,600 a60,60 0 0 0 60,60 a60,60 0 1 0 -60,-60 z M583.636,600 a60,60 0 0 0 60,60 a60,60 0 1 0 -60,-60 z M60,480 a60,60 0 0 0 60,60 a60,60 0 1 0 -60,-60 z M583.636,480 a60,60 0 0 0 60,60 a60,60 0 1 0 -60,-60 z M60,360 a60,60 0 0 0 60,60 a60,60 0 1 0 -60,-60 z M321.818,360 a60,60 0 0 0 60,60 a60,60 0 1 0 -60,-60 z M583.636,360 a60,60 0 0 0 60,60 a60,60 0 1 0 -60,-60 z M60,240 a60,60 0 0 0 60,60 a60,60 0 1 0 -60,-60 z M452.727,240 a60,60 0 0 0 60,60 a60,60 0 1 0 -60,-60 z M125.455,120 a60,60 0 0 0 60,60 a60,60 0 1 0 -60,-60 z M256.364,120 a60,60 0 0 0 60,60 a60,60 0 1 0 -60,-60 z M387.273,120 a60,60 0 0 0 60,60 a60,60 0 1 0 -60,-60 z M583.636,120 a60,60 0 0 0 60,60 a60,60 0 1 0 -60,-60 z "/>
<glyph glyph-name="R" unicode="R" d="M60,840 a60,60 0 0 0 60,60 a60,60 0 1 0 -60,-60 z M190.909,840 a60,60 0 0 0 60,60 a60,60 0 1 0 -60,-60 z M321.818,840 a60,60 0 0 0 60,60 a60,60 0 1 0 -60,-60 z M452.727,840 a60,60 0 0 0 60,60 a60,60 0 1 0 -60,-60 z M60,720 a60,60 0 0 0 60,60 a60,60 0 1 0 -60,-60 z M583.636,720 a60,60 0 0 0 60,60 a60,60 0 1 0 -60,-60 z M60,600 a60,60 0 0 0 60,60 a60,60 0 1 0 -60,-60 z M583.636,600 a60,60 0 0 0 60,60 a60,60 0 1 0 -60,-60 z M60,480 a60,60 0 0 0 60,60 a60,60 0 1 0 -60,-60 z M190.909,480 a60,60 0 0 0 60,60 a60,60 0 1 0 -60,-60 z M321.818,480 a60,60 0 0 0 60,60 a60,60 0 1 0 -60,-60 z M452.727,480 a60,60 0 0 0 60,60 a60,60 0 1 0 -60,-60 z M60,360 a60,60 0 0 0 60,60 a60,60 0 1 0 -60,-60 z M452.727,360 a60,60 0 0 0 60,60 a60,60 0 1 0 -60,-60 z M60,240 a60,60 0 0 0 60,60 a60,60 0 1 0 -60,-60 z M518.182,240 a60,60 0 0 0 60,60 a60,60 0 1 0 -60,-60 z M60,120 a60,60 0 0 0 60,60 a60,60 0 1 0 -60,-60 z M583.636,120 a60,60 0 0 0 60,60 a60,60 0 1 0 -60,-60 z "/>
<glyph glyph-name="S" unicode="S" d="M125.455,840 a60,60 0 0 0 60,60 a60,60 0 1 0 -60,-60 z M256.364,840 a60,60 0 0 0 60,60 a60,60 0 1 0 -60,-60 z M387.273,840 a60,60 0 0 0 60,60 a60,60 0 1 0 -60,-60 z M518.182,840 a60,60 0 0 0 60,60 a60,60 0 1 0 -60,-60 z M60,720 a60,60 0 0 0 60,60 a60,60 0 1 0 -60,-60 z M583.636,720 a60,60 0 0 0 60,60 a60,60 0 1 0 -60,-60 z M60,600 a60,60 0 0 0 60,60 a60,60 0 1 0 -60,-60 z M125.455,480 a60,60 0 0 0 60,60 a60,60 0 1 0 -60,-60 z M256.364,480 a60,60 0 0 0 60,60 a60,60 0 1 0 -60,-60 z M387.273,480 a60,60 0 0 0 60,60 a60,60 0 1 0 -60,-60 z M518.182,480 a60,60 0 0 0 60,60 a60,60 0 1 0 -60,-60 z M583.636,360 a60,60 0 0 0 60,60 a60,60 0 1 0 -60,-60 z M60,240 a60,60 0 0 0 60,60 a60,60 0 1 0 -60,-60 z M583.636,240 a60,60 0 0 0 60,60 a60,60 0 1 0 -60,-60 z M125.455,120 a60,60 0 0 0 60,60 a60,60 0 1 0 -60,-60 z M256.364,120 a60,60 0 0 0 60,60 a60,60 0 1 0 -60,-60 z M387.273,120 a60,60 0 0 0 60,60 a60,60 0 1 0 -60,-60 z M518.182,120 a60,60 0 0 0 60,60 a60,60 0 1 0 -60,-60 z "/>
<glyph glyph-name="T" unicode="T" d="M60,840 a60,60 0 0 0 60,60 a60,60 0 1 0 -60,-60 z M190.909,840 a60,60 0 0 0 60,60 a60,60 0 1 0 -60,-60 z M321.818,840 a60,60 0 0 0 60,60 a60,60 0 1 0 -60,-60 z M452.727,840 a60,60 0 0 0 60,60 a60,60 0 1 0 -60,-60 z M583.636,840 a60,60 0 0 0 60,60 a60,60 0 1 0 -60,-60 z M321.818,720 a60,60 0 0 0 60,60 a60,60 0 1 0 -60,-60 z M321.818,600 a60,60 0 0 0 60,60 a60,60 0 1 0 -60,-60 z M321.818,480 a60,60 0 0 0 60,60 a60,60 0 1 0 -60,-60 z M321.818,360 a60,60 0 0 0 60,60 a60,60 0 1 0 -60,-60 z M321.818,240 a60,60 0 0 0 60,60 a60,60 0 1 0 -60,-60 z M321.818,120 a60,60 0 0 0 60,60 a60,60 0 1 0 -60,-60 z "/>
<glyph glyph-name="U" unicode="U" d="M60,840 a60,60 0 0 0 60,60 a60,60 0 1 0 -60,-60 z M583.636,840 a60,60 0 0 0 60,60 a60,60 0 1 0 -60,-60 z M60,720 a60,60 0 0 0 60,60 a60,60 0 1 0 -60,-60 z M583.636,720 a60,60 0 0 0 60,60 a60,60 0 1 0 -60,-60 z M60,600 a60,60 0 0 0 60,60 a60,60 0 1 0 -60,-60 z M583.636,600 a60,60 0 0 0 60,60 a60,60 0 1 0 -60,-60 z M60,480 a60,60 0 0 0 60,60 a60,60 0 1 0 -60,-60 z M583.636,480 a60,60 0 0 0 60,60 a60,60 0 1 0 -60,-60 z M60,360 a60,60 0 0 0 60,60 a60,60 0 1 0 -60,-60 z M583.636,360 a60,60 0 0 0 60,60 a60,60 0 1 0 -60,-60 z M60,240 a60,60 0 0 0 60,60 a60,60 0 1 0 -60,-60 z M583.636,240 a60,60 0 0 0 60,60 a60,60 0 1 0 -60,-60 z M125.455,120 a60,60 0 0 0 60,60 a60,60 0 1 0 -60,-60 z M256.364,120 a60,60 0 0 0 60,60 a60,60 0 1 0 -60,-60 z M387.273,120 a60,60 0 0 0 60,60 a60,60 0 1 0 -60,-60 z M518.182,120 a60,60 0 0 0 60,60 a60,60 0 1 0 -60,-60 z "/>
<glyph glyph-name="V" unicode="V" d="M60,840 a60,60 0 0 0 60,60 a60,60 0 1 0 -60,-60 z M583.636,840 a60,60 0 0 0 60,60 a60,60 0 1 0 -60,-60 z M60,720 a60,60 0 0 0 60,60 a60,60 0 1 0 -60,-60 z M583.636,720 a60,60 0 0 0 60,60 a60,60 0 1 0 -60,-60 z M60,600 a60,60 0 0 0 60,60 a60,60 0 1 0 -60,-60 z M583.636,600 a60,60 0 0 0 60,60 a60,60 0 1 0 -60,-60 z M125.455,480 a60,60 0 0 0 60,60 a60,60 0 1 0 -60,-60 z M518.182,480 a60,60 0 0 0 60,60 a60,60 0 1 0 -60,-60 z M190.909,360 a60,60 0 0 0 60,60 a60,60 0 1 0 -60,-60 z M452.727,360 a60,60 0 0 0 60,60 a60,60 0 1 0 -60,-60 z M256.364,240 a60,60 0 0 0 60,60 a60,60 0 1 0 -60,-60 z M387.273,240 a60,60 0 0 0 60,60 a60,60 0 1 0 -60,-60 z M321.818,120 a60,60 0 0 0 60,60 a60,60 0 1 0 -60,-60 z "/>
<glyph glyph-name="W" unicode="W" d="M60,840 a60,60 0 0 0 60,60 a60,60 0 1 0 -60,-60 z M583.636,840 a60,60 0 0 0 60,60 a60,60 0 1 0 -60,-60 z M60,720 a60,60 0 0 0 60,60 a60,60 0 1 0 -60,-60 z M583.636,720 a60,60 0 0 0 60,60 a60,60 0 1 0 -60,-60 z M60,600 a60,60 0 0 0 60,60 a60,60 0 1 0 -60,-60 z M321.818,600 a60,60 0 0 0 60,60 a60,60 0 1 0 -60,-60 z M583.636,600 a60,60 0 0 0 60,60 a60,60 0 1 0 -60,-60 z M60,480 a60,60 0 0 0 60,60 a60,60 0 1 0 -60,-60 z M321.818,480 a60,60 0 0 0 60,60 a60,60 0 1 0 -60,-60 z M583.636,480 a60,60 0 0 0 60,60 a60,60 0 1 0 -60,-60 z M60,360 a60,60 0 0 0 60,60 a60,60 0 1 0 -60,-60 z M256.364,360 a60,60 0 0 0 60,60 a60,60 0 1 0 -60,-60 z M387.273,360 a60,60 0 0 0 60,60 a60,60 0 1 0 -60,-60 z M583.636,360 a60,60 0 0 0 60,60 a60,60 0 1 0 -60,-60 z M60,240 a60,60 0 0 0 60,60 a60,60 0 1 0 -60,-60 z M190.909,240 a60,60 0 0 0 60,60 a60,60 0 1 0 -60,-60 z M452.727,240 a60,60 0 0 0 60,60 a60,60 0 1 0 -60,-60 z M583.636,240 a60,60 0 0 0 60,60 a60,60 0 1 0 -60,-60 z M125.455,120 a60,60 0 0 0 60,60 a60,60 0 1 0 -60,-60 z M518.182,120 a60,60 0 0 0 60,60 a60,60 0 1 0 -60,-60 z "/>
<glyph glyph-name="X" unicode="X" d="M125.455,840 a60,60 0 0 0 60,60 a60,60 0 1 0 -60,-60 z M518.182,840 a60,60 0 0 0 60,60 a60,60 0 1 0 -60,-60 z M190.909,720 a60,60 0 0 0 60,60 a60,60 0 1 0 -60,-60 z M452.727,720 a60,60 0 0 0 60,60 a60,60 0 1 0 -60,-60 z M256.364,600 a60,60 0 0 0 60,60 a60,60 0 1 0 -60,-60 z M387.273,600 a60,60 0 0 0 60,60 a60,60 0 1 0 -60,-60 z M321.818,480 a60,60 0 0 0 60,60 a60,60 0 1 0 -60,-60 z M256.364,360 a60,60 0 0 0 60,60 a60,60 0 1 0 -60,-60 z M387.273,360 a60,60 0 0 0 60,60 a60,60 0 1 0 -60,-60 z M190.909,240 a60,60 0 0 0 60,60 a60,60 0 1 0 -60,-60 z M452.727,240 a60,60 0 0 0 60,60 a60,60 0 1 0 -60,-60 z M125.455,120 a60,60 0 0 0 60,60 a60,60 0 1 0 -60,-60 z M518.182,120 a60,60 0 0 0 60,60 a60,60 0 1 0 -60,-60 z "/>
<glyph glyph-name="Y" unicode="Y" d="M60,840 a60,60 0 0 0 60,60 a60,60 0 1 0 -60,-60 z M583.636,840 a60,60 0 0 0 60,60 a60,60 0 1 0 -60,-60 z M125.455,720 a60,60 0 0 0 60,60 a60,60 0 1 0 -60,-60 z M518.182,720 a60,60 0 0 0 60,60 a60,60 0 1 0 -60,-60 z M190.909,600 a60,60 0 0 0 60,60 a60,60 0 1 0 -60,-60 z M452.727,600 a60,60 0 0 0 60,60 a60,60 0 1 0 -60,-60 z M256.364,480 a60,60 0 0 0 60,60 a60,60 0 1 0 -60,-60 z M387.273,480 a60,60 0 0 0 60,60 a60,60 0 1 0 -60,-60 z M321.818,360 a60,60 0 0 0 60,60 a60,60 0 1 0 -60,-60 z M321.818,240 a60,60 0 0 0 60,60 a60,60 0 1 0 -60,-60 z M321.818,120 a60,60 0 0 0 60,60 a60,60 0 1 0 -60,-60 z "/>
<glyph glyph-name="Z" unicode="Z" d="M125.455,840 a60,60 0 0 0 60,60 a60,60 0 1 0 -60,-60 z M256.364,840 a60,60 0 0 0 60,60 a60,60 0 1 0 -60,-60 z M387.273,840 a60,60 0 0 0 60,60 a60,60 0 1 0 -60,-60 z M518.182,840 a60,60 0 0 0 60,60 a60,60 0 1 0 -60,-60 z M452.727,720 a60,60 0 0 0 60,60 a60,60 0 1 0 -60,-60 z M387.273,600 a60,60 0 0 0 60,60 a60,60 0 1 0 -60,-60 z M321.818,480 a60,60 0 0 0 60,60 a60,60 0 1 0 -60,-60 z M256.364,360 a60,60 0 0 0 60,60 a60,60 0 1 0 -60,-60 z M190.909,240 a60,60 0 0 0 60,60 a60,60 0 1 0 -60,-60 z M125.455,120 a60,60 0 0 0 60,60 a60,60 0 1 0 -60,-60 z M256.364,120 a60,60 0 0 0 60,60 a60,60 0 1 0 -60,-60 z M387.273,120 a60,60 0 0 0 60,60 a60,60 0 1 0 -60,-60 z M518.182,120 a60,60 0 0 0 60,60 a60,60 0 1 0 -60,-60 z "/>
<glyph glyph-name="[" unicode="[" d="M190.909,840 a60,60 0 0 0 60,60 a60,60 0 1 0 -60,-60 z M321.818,840 a60,60 0 0 0 60,60 a60,60 0 1 0 -60,-60 z M452.727,840 a60,60 0 0 0 60,60 a60,60 0 1 0 -60,-60 z M190.909,720 a60,60 0 0 0 60,60 a60,60 0 1 0 -60,-60 z M190.909,600 a60,60 0 0 0 60,60 a60,60 0 1 0 -60,-60 z M190.909,480 a60,60 0 0 0 60,60 a60,60 0 1 0 -60,-60 z M190.909,360 a60,60 0 0 0 60,60 a60,60 0 1 0 -60,-60 z M190.909,240 a60,60 0 0 0 60,60 a60,60 0 1 0 -60,-60 z M190.909,120 a60,60 0 0 0 60,60 a60,60 0 1 0 -60,-60 z M321.818,120 a60,60 0 0 0 60,60 a60,60 0 1 0 -60,-60 z M452.727,120 a60,60 0 0 0 60,60 a60,60 0 1 0 -60,-60 z "/>
<glyph glyph-name="\" unicode="\" d="M125.455,840 a60,60 0 0 0 60,60 a60,60 0 1 0 -60,-60 z M190.909,720 a60,60 0 0 0 60,60 a60,60 0 1 0 -60,-60 z M256.364,600 a60,60 0 0 0 60,60 a60,60 0 1 0 -60,-60 z M321.818,480 a60,60 0 0 0 60,60 a60,60 0 1 0 -60,-60 z M387.273,360 a60,60 0 0 0 60,60 a60,60 0 1 0 -60,-60 z M452.727,240 a60,60 0 0 0 60,60 a60,60 0 1 0 -60,-60 z M518.182,120 a60,60 0 0 0 60,60 a60,60 0 1 0 -60,-60 z "/>
<glyph glyph-name="]" unicode="]" d="M190.909,840 a60,60 0 0 0 60,60 a60,60 0 1 0 -60,-60 z M321.818,840 a60,60 0 0 0 60,60 a60,60 0 1 0 -60,-60 z M452.727,840 a60,60 0 0 0 60,60 a60,60 0 1 0 -60,-60 z M452.727,720 a60,60 0 0 0 60,60 a60,60 0 1 0 -60,-60 z M452.727,600 a60,60 0 0 0 60,60 a60,60 0 1 0 -60,-60 z M452.727,480 a60,60 0 0 0 60,60 a60,60 0 1 0 -60,-60 z M452.727,360 a60,60 0 0 0 60,60 a60,60 0 1 0 -60,-60 z M452.727,240 a60,60 0 0 0 60,60 a60,60 0 1 0 -60,-60 z M190.909,120 a60,60 0 0 0 60,60 a60,60 0 1 0 -60,-60 z M321.818,120 a60,60 0 0 0 60,60 a60,60 0 1 0 -60,-60 z M452.727,120 a60,60 0 0 0 60,60 a60,60 0 1 0 -60,-60 z "/>
<glyph glyph-name="^" unicode="^" d="M321.818,840 a60,60 0 0 0 60,60 a60,60 0 1 0 -60,-60 z M190.909,720 a60,60 0 0 0 60,60 a60,60 0 1 0 -60,-60 z M452.727,720 a60,60 0 0 0 60,60 a60,60 0 1 0 -60,-60 z M60,600 a60,60 0 0 0 60,60 a60,60 0 1 0 -60,-60 z M583.636,600 a60,60 0 0 0 60,60 a60,60 0 1 0 -60,-60 z "/>
<glyph glyph-name="_" unicode="_" d="M125.455,-120 a60,60 0 0 0 60,60 a60,60 0 1 0 -60,-60 z M256.364,-120 a60,60 0 0 0 60,60 a60,60 0 1 0 -60,-60 z M387.273,-120 a60,60 0 0 0 60,60 a60,60 0 1 0 -60,-60 z M518.182,-120 a60,60 0 0 0 60,60 a60,60 0 1 0 -60,-60 z "/>
<glyph glyph-name="grave accent" unicode="&#96;" d="M256.364,840 a60,60 0 0 0 60,60 a60,60 0 1 0 -60,-60 z M321.818,720 a60,60 0 0 0 60,60 a60,60 0 1 0 -60,-60 z "/>
<glyph glyph-name="a" unicode="a" d="M190.909,600 a60,60 0 0 0 60,60 a60,60 0 1 0 -60,-60 z M321.818,600 a60,60 0 0 0 60,60 a60,60 0 1 0 -60,-60 z M452.727,600 a60,60 0 0 0 60,60 a60,60 0 1 0 -60,-60 z M518.182,480 a60,60 0 0 0 60,60 a60,60 0 1 0 -60,-60 z M125.455,360 a60,60 0 0 0 60,60 a60,60 0 1 0 -60,-60 z M256.364,360 a60,60 0 0 0 60,60 a60,60 0 1 0 -60,-60 z M387.273,360 a60,60 0 0 0 60,60 a60,60 0 1 0 -60,-60 z M518.182,360 a60,60 0 0 0 60,60 a60,60 0 1 0 -60,-60 z M60,240 a60,60 0 0 0 60,60 a60,60 0 1 0 -60,-60 z M518.182,240 a60,60 0 0 0 60,60 a60,60 0 1 0 -60,-60 z M125.455,120 a60,60 0 0 0 60,60 a60,60 0 1 0 -60,-60 z M256.364,120 a60,60 0 0 0 60,60 a60,60 0 1 0 -60,-60 z M387.273,120 a60,60 0 0 0 60,60 a60,60 0 1 0 -60,-60 z M583.636,120 a60,60 0 0 0 60,60 a60,60 0 1 0 -60,-60 z "/>
<glyph glyph-name="b" unicode="b" d="M60,840 a60,60 0 0 0 60,60 a60,60 0 1 0 -60,-60 z M60,720 a60,60 0 0 0 60,60 a60,60 0 1 0 -60,-60 z M60,600 a60,60 0 0 0 60,60 a60,60 0 1 0 -60,-60 z M190.909,600 a60,60 0 0 0 60,60 a60,60 0 1 0 -60,-60 z M321.818,600 a60,60 0 0 0 60,60 a60,60 0 1 0 -60,-60 z M452.727,600 a60,60 0 0 0 60,60 a60,60 0 1 0 -60,-60 z M60,480 a60,60 0 0 0 60,60 a60,60 0 1 0 -60,-60 z M518.182,480 a60,60 0 0 0 60,60 a60,60 0 1 0 -60,-60 z M60,360 a60,60 0 0 0 60,60 a60,60 0 1 0 -60,-60 z M518.182,360 a60,60 0 0 0 60,60 a60,60 0 1 0 -60,-60 z M60,240 a60,60 0 0 0 60,60 a60,60 0 1 0 -60,-60 z M518.182,240 a60,60 0 0 0 60,60 a60,60 0 1 0 -60,-60 z M60,120 a60,60 0 0 0 60,60 a60,60 0 1 0 -60,-60 z M190.909,120 a60,60 0 0 0 60,60 a60,60 0 1 0 -60,-60 z M321.818,120 a60,60 0 0 0 60,60 a60,60 0 1 0 -60,-60 z M452.727,120 a60,60 0 0 0 60,60 a60,60 0 1 0 -60,-60 z "/>
<glyph glyph-name="c" unicode="c" d="M125.455,600 a60,60 0 0 0 60,60 a60,60 0 1 0 -60,-60 z M256.364,600 a60,60 0 0 0 60,60 a60,60 0 1 0 -60,-60 z M387.273,600 a60,60 0 0 0 60,60 a60,60 0 1 0 -60,-60 z M518.182,600 a60,60 0 0 0 60,60 a60,60 0 1 0 -60,-60 z M60,480 a60,60 0 0 0 60,60 a60,60 0 1 0 -60,-60 z M60,360 a60,60 0 0 0 60,60 a60,60 0 1 0 -60,-60 z M60,240 a60,60 0 0 0 60,60 a60,60 0 1 0 -60,-60 z M125.455,120 a60,60 0 0 0 60,60 a60,60 0 1 0 -60,-60 z M256.364,120 a60,60 0 0 0 60,60 a60,60 0 1 0 -60,-60 z M387.273,120 a60,60 0 0 0 60,60 a60,60 0 1 0 -60,-60 z M518.182,120 a60,60 0 0 0 60,60 a60,60 0 1 0 -60,-60 z "/>
<glyph glyph-name="d" unicode="d" d="M518.182,840 a60,60 0 0 0 60,60 a60,60 0 1 0 -60,-60 z M518.182,720 a60,60 0 0 0 60,60 a60,60 0 1 0 -60,-60 z M125.455,600 a60,60 0 0 0 60,60 a60,60 0 1 0 -60,-60 z M256.364,600 a60,60 0 0 0 60,60 a60,60 0 1 0 -60,-60 z M387.273,600 a60,60 0 0 0 60,60 a60,60 0 1 0 -60,-60 z M518.182,600 a60,60 0 0 0 60,60 a60,60 0 1 0 -60,-60 z M60,480 a60,60 0 0 0 60,60 a60,60 0 1 0 -60,-60 z M518.182,480 a60,60 0 0 0 60,60 a60,60 0 1 0 -60,-60 z M60,360 a60,60 0 0 0 60,60 a60,60 0 1 0 -60,-60 z M518.182,360 a60,60 0 0 0 60,60 a60,60 0 1 0 -60,-60 z M60,240 a60,60 0 0 0 60,60 a60,60 0 1 0 -60,-60 z M518.182,240 a60,60 0 0 0 60,60 a60,60 0 1 0 -60,-60 z M125.455,120 a60,60 0 0 0 60,60 a60,60 0 1 0 -60,-60 z M256.364,120 a60,60 0 0 0 60,60 a60,60 0 1 0 -60,-60 z M387.273,120 a60,60 0 0 0 60,60 a60,60 0 1 0 -60,-60 z M518.182,120 a60,60 0 0 0 60,60 a60,60 0 1 0 -60,-60 z "/>
<glyph glyph-name="e" unicode="e" d="M125.455,600 a60,60 0 0 0 60,60 a60,60 0 1 0 -60,-60 z M256.364,600 a60,60 0 0 0 60,60 a60,60 0 1 0 -60,-60 z M387.273,600 a60,60 0 0 0 60,60 a60,60 0 1 0 -60,-60 z M518.182,600 a60,60 0 0 0 60,60 a60,60 0 1 0 -60,-60 z M60,480 a60,60 0 0 0 60,60 a60,60 0 1 0 -60,-60 z M583.636,480 a60,60 0 0 0 60,60 a60,60 0 1 0 -60,-60 z M60,360 a60,60 0 0 0 60,60 a60,60 0 1 0 -60,-60 z M190.909,360 a60,60 0 0 0 60,60 a60,60 0 1 0 -60,-60 z M321.818,360 a60,60 0 0 0 60,60 a60,60 0 1 0 -60,-60 z M452.727,360 a60,60 0 0 0 60,60 a60,60 0 1 0 -60,-60 z M583.636,360 a60,60 0 0 0 60,60 a60,60 0 1 0 -60,-60 z M60,240 a60,60 0 0 0 60,60 a60,60 0 1 0 -60,-60 z M125.455,120 a60,60 0 0 0 60,60 a60,60 0 1 0 -60,-60 z M256.364,120 a60,60 0 0 0 60,60 a60,60 0 1 0 -60,-60 z M387.273,120 a60,60 0 0 0 60,60 a60,60 0 1 0 -60,-60 z M518.182,120 a60,60 0 0 0 60,60 a60,60 0 1 0 -60,-60 z "/>
<glyph glyph-name="f" unicode="f" d="M321.818,840 a60,60 0 0 0 60,60 a60,60 0 1 0 -60,-60 z M452.727,840 a60,60 0 0 0 60,60 a60,60 0 1 0 -60,-60 z M256.364,720 a60,60 0 0 0 60,60 a60,60 0 1 0 -60,-60 z M256.364,600 a60,60 0 0 0 60,60 a60,60 0 1 0 -60,-60 z M60,480 a60,60 0 0 0 60,60 a60,60 0 1 0 -60,-60 z M190.909,480 a60,60 0 0 0 60,60 a60,60 0 1 0 -60,-60 z M321.818,480 a60,60 0 0 0 60,60 a60,60 0 1 0 -60,-60 z M452.727,480 a60,60 0 0 0 60,60 a60,60 0 1 0 -60,-60 z M256.364,360 a60,60 0 0 0 60,60 a60,60 0 1 0 -60,-60 z M256.364,240 a60,60 0 0 0 60,60 a60,60 0 1 0 -60,-60 z M256.364,120 a60,60 0 0 0 60,60 a60,60 0 1 0 -60,-60 z "/>
<glyph glyph-name="g" unicode="g" d="M125.455,600 a60,60 0 0 0 60,60 a60,60 0 1 0 -60,-60 z M256.364,600 a60,60 0 0 0 60,60 a60,60 0 1 0 -60,-60 z M387.273,600 a60,60 0 0 0 60,60 a60,60 0 1 0 -60,-60 z M518.182,600 a60,60 0 0 0 60,60 a60,60 0 1 0 -60,-60 z M60,480 a60,60 0 0 0 60,60 a60,60 0 1 0 -60,-60 z M518.182,480 a60,60 0 0 0 60,60 a60,60 0 1 0 -60,-60 z M60,360 a60,60 0 0 0 60,60 a60,60 0 1 0 -60,-60 z M518.182,360 a60,60 0 0 0 60,60 a60,60 0 1 0 -60,-60 z M60,240 a60,60 0 0 0 60,60 a60,60 0 1 0 -60,-60 z M518.182,240 a60,60 0 0 0 60,60 a60,60 0 1 0 -60,-60 z M125.455,120 a60,60 0 0 0 60,60 a60,60 0 1 0 -60,-60 z M256.364,120 a60,60 0 0 0 60,60 a60,60 0 1 0 -60,-60 z M387.273,120 a60,60 0 0 0 60,60 a60,60 0 1 0 -60,-60 z M518.182,120 a60,60 0 0 0 60,60 a60,60 0 1 0 -60,-60 z M518.182,0 a60,60 0 0 0 60,60 a60,60 0 1 0 -60,-60 z M190.909,-120 a60,60 0 0 0 60,60 a60,60 0 1 0 -60,-60 z M321.818,-120 a60,60 0 0 0 60,60 a60,60 0 1 0 -60,-60 z M452.727,-120 a60,60 0 0 0 60,60 a60,60 0 1 0 -60,-60 z "/>
<glyph glyph-name="h" unicode="h" d="M60,840 a60,60 0 0 0 60,60 a60,60 0 1 0 -60,-60 z M60,720 a60,60 0 0 0 60,60 a60,60 0 1 0 -60,-60 z M60,600 a60,60 0 0 0 60,60 a60,60 0 1 0 -60,-60 z M190.909,600 a60,60 0 0 0 60,60 a60,60 0 1 0 -60,-60 z M321.818,600 a60,60 0 0 0 60,60 a60,60 0 1 0 -60,-60 z M452.727,600 a60,60 0 0 0 60,60 a60,60 0 1 0 -60,-60 z M60,480 a60,60 0 0 0 60,60 a60,60 0 1 0 -60,-60 z M518.182,480 a60,60 0 0 0 60,60 a60,60 0 1 0 -60,-60 z M60,360 a60,60 0 0 0 60,60 a60,60 0 1 0 -60,-60 z M518.182,360 a60,60 0 0 0 60,60 a60,60 0 1 0 -60,-60 z M60,240 a60,60 0 0 0 60,60 a60,60 0 1 0 -60,-60 z M518.182,240 a60,60 0 0 0 60,60 a60,60 0 1 0 -60,-60 z M60,120 a60,60 0 0 0 60,60 a60,60 0 1 0 -60,-60 z M518.182,120 a60,60 0 0 0 60,60 a60,60 0 1 0 -60,-60 z "/>
<glyph glyph-name="i" unicode="i" d="M256.364,840 a60,60 0 0 0 60,60 a60,60 0 1 0 -60,-60 z M125.455,600 a60,60 0 0 0 60,60 a60,60 0 1 0 -60,-60 z M256.364,600 a60,60 0 0 0 60,60 a60,60 0 1 0 -60,-60 z M256.364,480 a60,60 0 0 0 60,60 a60,60 0 1 0 -60,-60 z M256.364,360 a60,60 0 0 0 60,60 a60,60 0 1 0 -60,-60 z M256.364,240 a60,60 0 0 0 60,60 a60,60 0 1 0 -60,-60 z M125.455,120 a60,60 0 0 0 60,60 a60,60 0 1 0 -60,-60 z M256.364,120 a60,60 0 0 0 60,60 a60,60 0 1 0 -60,-60 z M387.273,120 a60,60 0 0 0 60,60 a60,60 0 1 0 -60,-60 z "/>
<glyph glyph-name="j" unicode="j" d="M452.727,840 a60,60 0 0 0 60,60 a60,60 0 1 0 -60,-60 z M321.818,600 a60,60 0 0 0 60,60 a60,60 0 1 0 -60,-60 z M452.727,600 a60,60 0 0 0 60,60 a60,60 0 1 0 -60,-60 z M452.727,480 a60,60 0 0 0 60,60 a60,60 0 1 0 -60,-60 z M452.727,360 a60,60 0 0 0 60,60 a60,60 0 1 0 -60,-60 z M452.727,240 a60,60 0 0 0 60,60 a60,60 0 1 0 -60,-60 z M452.727,120 a60,60 0 0 0 60,60 a60,60 0 1 0 -60,-60 z M125.455,0 a60,60 0 0 0 60,60 a60,60 0 1 0 -60,-60 z M256.364,0 a60,60 0 0 0 60,60 a60,60 0 1 0 -60,-60 z M387.273,0 a60,60 0 0 0 60,60 a60,60 0 1 0 -60,-60 z "/>
<glyph glyph-name="k" unicode="k" d="M125.455,840 a60,60 0 0 0 60,60 a60,60 0 1 0 -60,-60 z M125.455,720 a60,60 0 0 0 60,60 a60,60 0 1 0 -60,-60 z M125.455,600 a60,60 0 0 0 60,60 a60,60 0 1 0 -60,-60 z M518.182,600 a60,60 0 0 0 60,60 a60,60 0 1 0 -60,-60 z M125.455,480 a60,60 0 0 0 60,60 a60,60 0 1 0 -60,-60 z M387.273,480 a60,60 0 0 0 60,60 a60,60 0 1 0 -60,-60 z M125.455,360 a60,60 0 0 0 60,60 a60,60 0 1 0 -60,-60 z M256.364,360 a60,60 0 0 0 60,60 a60,60 0 1 0 -60,-60 z M125.455,240 a60,60 0 0 0 60,60 a60,60 0 1 0 -60,-60 z M387.273,240 a60,60 0 0 0 60,60 a60,60 0 1 0 -60,-60 z M125.455,120 a60,60 0 0 0 60,60 a60,60 0 1 0 -60,-60 z M518.182,120 a60,60 0 0 0 60,60 a60,60 0 1 0 -60,-60 z "/>
<glyph glyph-name="l" unicode="l" d="M125.455,840 a60,60 0 0 0 60,60 a60,60 0 1 0 -60,-60 z M256.364,840 a60,60 0 0 0 60,60 a60,60 0 1 0 -60,-60 z M256.364,720 a60,60 0 0 0 60,60 a60,60 0 1 0 -60,-60 z M256.364,600 a60,60 0 0 0 60,60 a60,60 0 1 0 -60,-60 z M256.364,480 a60,60 0 0 0 60,60 a60,60 0 1 0 -60,-60 z M256.364,360 a60,60 0 0 0 60,60 a60,60 0 1 0 -60,-60 z M256.364,240 a60,60 0 0 0 60,60 a60,60 0 1 0 -60,-60 z M125.455,120 a60,60 0 0 0 60,60 a60,60 0 1 0 -60,-60 z M256.364,120 a60,60 0 0 0 60,60 a60,60 0 1 0 -60,-60 z M387.273,120 a60,60 0 0 0 60,60 a60,60 0 1 0 -60,-60 z "/>
<glyph glyph-name="m" unicode="m" d="M125.455,600 a60,60 0 0 0 60,60 a60,60 0 1 0 -60,-60 z M256.364,600 a60,60 0 0 0 60,60 a60,60 0 1 0 -60,-60 z M387.273,600 a60,60 0 0 0 60,60 a60,60 0 1 0 -60,-60 z M518.182,600 a60,60 0 0 0 60,60 a60,60 0 1 0 -60,-60 z M60,480 a60,60 0 0 0 60,60 a60,60 0 1 0 -60,-60 z M321.818,480 a60,60 0 0 0 60,60 a60,60 0 1 0 -60,-60 z M583.636,480 a60,60 0 0 0 60,60 a60,60 0 1 0 -60,-60 z M60,360 a60,60 0 0 0 60,60 a60,60 0 1 0 -60,-60 z M321.818,360 a60,60 0 0 0 60,60 a60,60 0 1 0 -60,-60 z M583.636,360 a60,60 0 0 0 60,60 a60,60 0 1 0 -60,-60 z M60,240 a60,60 0 0 0 60,60 a60,60 0 1 0 -60,-60 z M321.818,240 a60,60 0 0 0 60,60 a60,60 0 1 0 -60,-60 z M583.636,240 a60,60 0 0 0 60,60 a60,60 0 1 0 -60,-60 z M60,120 a60,60 0 0 0 60,60 a60,60 0 1 0 -60,-60 z M321.818,120 a60,60 0 0 0 60,60 a60,60 0 1 0 -60,-60 z M583.636,120 a60,60 0 0 0 60,60 a60,60 0 1 0 -60,-60 z "/>
<glyph glyph-name="n" unicode="n" d="M60,600 a60,60 0 0 0 60,60 a60,60 0 1 0 -60,-60 z M190.909,600 a60,60 0 0 0 60,60 a60,60 0 1 0 -60,-60 z M321.818,600 a60,60 0 0 0 60,60 a60,60 0 1 0 -60,-60 z M452.727,600 a60,60 0 0 0 60,60 a60,60 0 1 0 -60,-60 z M60,480 a60,60 0 0 0 60,60 a60,60 0 1 0 -60,-60 z M518.182,480 a60,60 0 0 0 60,60 a60,60 0 1 0 -60,-60 z M60,360 a60,60 0 0 0 60,60 a60,60 0 1 0 -60,-60 z M518.182,360 a60,60 0 0 0 60,60 a60,60 0 1 0 -60,-60 z M60,240 a60,60 0 0 0 60,60 a60,60 0 1 0 -60,-60 z M518.182,240 a60,60 0 0 0 60,60 a60,60 0 1 0 -60,-60 z M60,120 a60,60 0 0 0 60,60 a60,60 0 1 0 -60,-60 z M518.182,120 a60,60 0 0 0 60,60 a60,60 0 1 0 -60,-60 z "/>
<glyph glyph-name="o" unicode="o" d="M125.455,600 a60,60 0 0 0 60,60 a60,60 0 1 0 -60,-60 z M256.364,600 a60,60 0 0 0 60,60 a60,60 0 1 0 -60,-60 z M387.273,600 a60,60 0 0 0 60,60 a60,60 0 1 0 -60,-60 z M518.182,600 a60,60 0 0 0 60,60 a60,60 0 1 0 -60,-60 z M60,480 a60,60 0 0 0 60,60 a60,60 0 1 0 -60,-60 z M583.636,480 a60,60 0 0 0 60,60 a60,60 0 1 0 -60,-60 z M60,360 a60,60 0 0 0 60,60 a60,60 0 1 0 -60,-60 z M583.636,360 a60,60 0 0 0 60,60 a60,60 0 1 0 -60,-60 z M60,240 a60,60 0 0 0 60,60 a60,60 0 1 0 -60,-60 z M583.636,240 a60,60 0 0 0 60,60 a60,60 0 1 0 -60,-60 z M125.455,120 a60,60 0 0 0 60,60 a60,60 0 1 0 -60,-60 z M256.364,120 a60,60 0 0 0 60,60 a60,60 0 1 0 -60,-60 z M387.273,120 a60,60 0 0 0 60,60 a60,60 0 1 0 -60,-60 z M518.182,120 a60,60 0 0 0 60,60 a60,60 0 1 0 -60,-60 z "/>
<glyph glyph-name="p" unicode="p" d="M60,600 a60,60 0 0 0 60,60 a60,60 0 1 0 -60,-60 z M190.909,600 a60,60 0 0 0 60,60 a60,60 0 1 0 -60,-60 z M321.818,600 a60,60 0 0 0 60,60 a60,60 0 1 0 -60,-60 z M452.727,600 a60,60 0 0 0 60,60 a60,60 0 1 0 -60,-60 z M60,480 a60,60 0 0 0 60,60 a60,60 0 1 0 -60,-60 z M518.182,480 a60,60 0 0 0 60,60 a60,60 0 1 0 -60,-60 z M60,360 a60,60 0 0 0 60,60 a60,60 0 1 0 -60,-60 z M518.182,360 a60,60 0 0 0 60,60 a60,60 0 1 0 -60,-60 z M60,240 a60,60 0 0 0 60,60 a60,60 0 1 0 -60,-60 z M518.182,240 a60,60 0 0 0 60,60 a60,60 0 1 0 -60,-60 z M60,120 a60,60 0 0 0 60,60 a60,60 0 1 0 -60,-60 z M190.909,120 a60,60 0 0 0 60,60 a60,60 0 1 0 -60,-60 z M321.818,120 a60,60 0 0 0 60,60 a60,60 0 1 0 -60,-60 z M452.727,120 a60,60 0 0 0 60,60 a60,60 0 1 0 -60,-60 z M60,0 a60,60 0 0 0 60,60 a60,60 0 1 0 -60,-60 z M60,-120 a60,60 0 0 0 60,60 a60,60 0 1 0 -60,-60 z "/>
<glyph glyph-name="q" unicode="q" d="M125.455,600 a60,60 0 0 0 60,60 a60,60 0 1 0 -60,-60 z M256.364,600 a60,60 0 0 0 60,60 a60,60 0 1 0 -60,-60 z M387.273,600 a60,60 0 0 0 60,60 a60,60 0 1 0 -60,-60 z M518.182,600 a60,60 0 0 0 60,60 a60,60 0 1 0 -60,-60 z M60,480 a60,60 0 0 0 60,60 a60,60 0 1 0 -60,-60 z M518.182,480 a60,60 0 0 0 60,60 a60,60 0 1 0 -60,-60 z M60,360 a60,60 0 0 0 60,60 a60,60 0 1 0 -60,-60 z M518.182,360 a60,60 0 0 0 60,60 a60,60 0 1 0 -60,-60 z M60,240 a60,60 0 0 0 60,60 a60,60 0 1 0 -60,-60 z M518.182,240 a60,60 0 0 0 60,60 a60,60 0 1 0 -60,-60 z M125.455,120 a60,60 0 0 0 60,60 a60,60 0 1 0 -60,-60 z M256.364,120 a60,60 0 0 0 60,60 a60,60 0 1 0 -60,-60 z M387.273,120 a60,60 0 0 0 60,60 a60,60 0 1 0 -60,-60 z M518.182,120 a60,60 0 0 0 60,60 a60,60 0 1 0 -60,-60 z M518.182,0 a60,60 0 0 0 60,60 a60,60 0 1 0 -60,-60 z M518.182,-120 a60,60 0 0 0 60,60 a60,60 0 1 0 -60,-60 z "/>
<glyph glyph-name="r" unicode="r" d="M60,600 a60,60 0 0 0 60,60 a60,60 0 1 0 -60,-60 z M256.364,600 a60,60 0 0 0 60,60 a60,60 0 1 0 -60,-60 z M387.273,600 a60,60 0 0 0 60,60 a60,60 0 1 0 -60,-60 z M518.182,600 a60,60 0 0 0 60,60 a60,60 0 1 0 -60,-60 z M60,480 a60,60 0 0 0 60,60 a60,60 0 1 0 -60,-60 z M190.909,480 a60,60 0 0 0 60,60 a60,60 0 1 0 -60,-60 z M60,360 a60,60 0 0 0 60,60 a60,60 0 1 0 -60,-60 z M60,240 a60,60 0 0 0 60,60 a60,60 0 1 0 -60,-60 z M60,120 a60,60 0 0 0 60,60 a60,60 0 1 0 -60,-60 z "/>
<glyph glyph-name="s" unicode="s" d="M125.455,600 a60,60 0 0 0 60,60 a60,60 0 1 0 -60,-60 z M256.364,600 a60,60 0 0 0 60,60 a60,60 0 1 0 -60,-60 z M387.273,600 a60,60 0 0 0 60,60 a60,60 0 1 0 -60,-60 z M518.182,600 a60,60 0 0 0 60,60 a60,60 0 1 0 -60,-60 z M60,480 a60,60 0 0 0 60,60 a60,60 0 1 0 -60,-60 z M125.455,360 a60,60 0 0 0 60,60 a60,60 0 1 0 -60,-60 z M256.364,360 a60,60 0 0 0 60,60 a60,60 0 1 0 -60,-60 z M387.273,360 a60,60 0 0 0 60,60 a60,60 0 1 0 -60,-60 z M518.182,360 a60,60 0 0 0 60,60 a60,60 0 1 0 -60,-60 z M583.636,240 a60,60 0 0 0 60,60 a60,60 0 1 0 -60,-60 z M125.455,120 a60,60 0 0 0 60,60 a60,60 0 1 0 -60,-60 z M256.364,120 a60,60 0 0 0 60,60 a60,60 0 1 0 -60,-60 z M387.273,120 a60,60 0 0 0 60,60 a60,60 0 1 0 -60,-60 z M518.182,120 a60,60 0 0 0 60,60 a60,60 0 1 0 -60,-60 z "/>
<glyph glyph-name="t" unicode="t" d="M190.909,840 a60,60 0 0 0 60,60 a60,60 0 1 0 -60,-60 z M190.909,720 a60,60 0 0 0 60,60 a60,60 0 1 0 -60,-60 z M60,600 a60,60 0 0 0 60,60 a60,60 0 1 0 -60,-60 z M190.909,600 a60,60 0 0 0 60,60 a60,60 0 1 0 -60,-60 z M321.818,600 a60,60 0 0 0 60,60 a60,60 0 1 0 -60,-60 z M452.727,600 a60,60 0 0 0 60,60 a60,60 0 1 0 -60,-60 z M190.909,480 a60,60 0 0 0 60,60 a60,60 0 1 0 -60,-60 z M190.909,360 a60,60 0 0 0 60,60 a60,60 0 1 0 -60,-60 z M190.909,240 a60,60 0 0 0 60,60 a60,60 0 1 0 -60,-60 z M256.364,120 a60,60 0 0 0 60,60 a60,60 0 1 0 -60,-60 z M387.273,120 a60,60 0 0 0 60,60 a60,60 0 1 0 -60,-60 z M518.182,120 a60,60 0 0 0 60,60 a60,60 0 1 0 -60,-60 z "/>
<glyph glyph-name="u" unicode="u" d="M60,600 a60,60 0 0 0 60,60 a60,60 0 1 0 -60,-60 z M518.182,600 a60,60 0 0 0 60,60 a60,60 0 1 0 -60,-60 z M60,480 a60,60 0 0 0 60,60 a60,60 0 1 0 -60,-60 z M518.182,480 a60,60 0 0 0 60,60 a60,60 0 1 0 -60,-60 z M60,360 a60,60 0 0 0 60,60 a60,60 0 1 0 -60,-60 z M518.182,360 a60,60 0 0 0 60,60 a60,60 0 1 0 -60,-60 z M60,240 a60,60 0 0 0 60,60 a60,60 0 1 0 -60,-60 z M518.182,240 a60,60 0 0 0 60,60 a60,60 0 1 0 -60,-60 z M125.455,120 a60,60 0 0 0 60,60 a60,60 0 1 0 -60,-60 z M256.364,120 a60,60 0 0 0 60,60 a60,60 0 1 0 -60,-60 z M387.273,120 a60,60 0 0 0 60,60 a60,60 0 1 0 -60,-60 z M583.636,120 a60,60 0 0 0 60,60 a60,60 0 1 0 -60,-60 z "/>
<glyph glyph-name="v" unicode="v" d="M60,600 a60,60 0 0 0 60,60 a60,60 0 1 0 -60,-60 z M583.636,600 a60,60 0 0 0 60,60 a60,60 0 1 0 -60,-60 z M125.455,480 a60,60 0 0 0 60,60 a60,60 0 1 0 -60,-60 z M518.182,480 a60,60 0 0 0 60,60 a60,60 0 1 0 -60,-60 z M190.909,360 a60,60 0 0 0 60,60 a60,60 0 1 0 -60,-60 z M452.727,360 a60,60 0 0 0 60,60 a60,60 0 1 0 -60,-60 z M256.364,240 a60,60 0 0 0 60,60 a60,60 0 1 0 -60,-60 z M387.273,240 a60,60 0 0 0 60,60 a60,60 0 1 0 -60,-60 z M321.818,120 a60,60 0 0 0 60,60 a60,60 0 1 0 -60,-60 z "/>
<glyph glyph-name="w" unicode="w" d="M60,600 a60,60 0 0 0 60,60 a60,60 0 1 0 -60,-60 z M583.636,600 a60,60 0 0 0 60,60 a60,60 0 1 0 -60,-60 z M60,480 a60,60 0 0 0 60,60 a60,60 0 1 0 -60,-60 z M321.818,480 a60,60 0 0 0 60,60 a60,60 0 1 0 -60,-60 z M583.636,480 a60,60 0 0 0 60,60 a60,60 0 1 0 -60,-60 z M60,360 a60,60 0 0 0 60,60 a60,60 0 1 0 -60,-60 z M256.364,360 a60,60 0 0 0 60,60 a60,60 0 1 0 -60,-60 z M387.273,360 a60,60 0 0 0 60,60 a60,60 0 1 0 -60,-60 z M583.636,360 a60,60 0 0 0 60,60 a60,60 0 1 0 -60,-60 z M60,240 a60,60 0 0 0 60,60 a60,60 0 1 0 -60,-60 z M190.909,240 a60,60 0 0 0 60,60 a60,60 0 1 0 -60,-60 z M452.727,240 a60,60 0 0 0 60,60 a60,60 0 1 0 -60,-60 z M583.636,240 a60,60 0 0 0 60,60 a60,60 0 1 0 -60,-60 z M125.455,120 a60,60 0 0 0 60,60 a60,60 0 1 0 -60,-60 z M518.182,120 a60,60 0 0 0 60,60 a60,60 0 1 0 -60,-60 z "/>
<glyph glyph-name="x" unicode="x" d="M60,600 a60,60 0 0 0 60,60 a60,60 0 1 0 -60,-60 z M452.727,600 a60,60 0 0 0 60,60 a60,60 0 1 0 -60,-60 z M125.455,480 a60,60 0 0 0 60,60 a60,60 0 1 0 -60,-60 z M387.273,480 a60,60 0 0 0 60,60 a60,60 0 1 0 -60,-60 z M256.364,360 a60,60 0 0 0 60,60 a60,60 0 1 0 -60,-60 z M125.455,240 a60,60 0 0 0 60,60 a60,60 0 1 0 -60,-60 z M387.273,240 a60,60 0 0 0 60,60 a60,60 0 1 0 -60,-60 z M60,120 a60,60 0 0 0 60,60 a60,60 0 1 0 -60,-60 z M452.727,120 a60,60 0 0 0 60,60 a60,60 0 1 0 -60,-60 z "/>
<glyph glyph-name="y" unicode="y" d="M60,600 a60,60 0 0 0 60,60 a60,60 0 1 0 -60,-60 z M583.636,600 a60,60 0 0 0 60,60 a60,60 0 1 0 -60,-60 z M125.455,480 a60,60 0 0 0 60,60 a60,60 0 1 0 -60,-60 z M518.182,480 a60,60 0 0 0 60,60 a60,60 0 1 0 -60,-60 z M190.909,360 a60,60 0 0 0 60,60 a60,60 0 1 0 -60,-60 z M452.727,360 a60,60 0 0 0 60,60 a60,60 0 1 0 -60,-60 z M256.364,240 a60,60 0 0 0 60,60 a60,60 0 1 0 -60,-60 z M387.273,240 a60,60 0 0 0 60,60 a60,60 0 1 0 -60,-60 z M321.818,120 a60,60 0 0 0 60,60 a60,60 0 1 0 -60,-60 z M256.364,0 a60,60 0 0 0 60,60 a60,60 0 1 0 -60,-60 z M190.909,-120 a60,60 0 0 0 60,60 a60,60 0 1 0 -60,-60 z "/>
<glyph glyph-name="z" unicode="z" d="M60,600 a60,60 0 0 0 60,60 a60,60 0 1 0 -60,-60 z M190.909,600 a60,60 0 0 0 60,60 a60,60 0 1 0 -60,-60 z M321.818,600 a60,60 0 0 0 60,60 a60,60 0 1 0 -60,-60 z M452.727,600 a60,60 0 0 0 60,60 a60,60 0 1 0 -60,-60 z M387.273,480 a60,60 0 0 0 60,60 a60,60 0 1 0 -60,-60 z M256.364,360 a60,60 0 0 0 60,60 a60,60 0 1 0 -60,-60 z M125.455,240 a60,60 0 0 0 60,60 a60,60 0 1 0 -60,-60 z M60,120 a60,60 0 0 0 60,60 a60,60 0 1 0 -60,-60 z M190.909,120 a60,60 0 0 0 60,60 a60,60 0 1 0 -60,-60 z M321.818,120 a60,60 0 0 0 60,60 a60,60 0 1 0 -60,-60 z M452.727,120 a60,60 0 0 0 60,60 a60,60 0 1 0 -60,-60 z "/>
<glyph glyph-name="{" unicode="{" d="M387.273,840 a60,60 0 0 0 60,60 a60,60 0 1 0 -60,-60 z M518.182,840 a60,60 0 0 0 60,60 a60,60 0 1 0 -60,-60 z M321.818,720 a60,60 0 0 0 60,60 a60,60 0 1 0 -60,-60 z M321.818,600 a60,60 0 0 0 60,60 a60,60 0 1 0 -60,-60 z M190.909,480 a60,60 0 0 0 60,60 a60,60 0 1 0 -60,-60 z M321.818,360 a60,60 0 0 0 60,60 a60,60 0 1 0 -60,-60 z M321.818,240 a60,60 0 0 0 60,60 a60,60 0 1 0 -60,-60 z M387.273,120 a60,60 0 0 0 60,60 a60,60 0 1 0 -60,-60 z M518.182,120 a60,60 0 0 0 60,60 a60,60 0 1 0 -60,-60 z "/>
<glyph glyph-name="|" unicode="|" d="M321.818,840 a60,60 0 0 0 60,60 a60,60 0 1 0 -60,-60 z M321.818,720 a60,60 0 0 0 60,60 a60,60 0 1 0 -60,-60 z M321.818,600 a60,60 0 0 0 60,60 a60,60 0 1 0 -60,-60 z M321.818,480 a60,60 0 0 0 60,60 a60,60 0 1 0 -60,-60 z M321.818,360 a60,60 0 0 0 60,60 a60,60 0 1 0 -60,-60 z M321.818,240 a60,60 0 0 0 60,60 a60,60 0 1 0 -60,-60 z M321.818,120 a60,60 0 0 0 60,60 a60,60 0 1 0 -60,-60 z "/>
<glyph glyph-name="}" unicode="}" d="M125.455,840 a60,60 0 0 0 60,60 a60,60 0 1 0 -60,-60 z M256.364,840 a60,60 0 0 0 60,60 a60,60 0 1 0 -60,-60 z M321.818,720 a60,60 0 0 0 60,60 a60,60 0 1 0 -60,-60 z M321.818,600 a60,60 0 0 0 60,60 a60,60 0 1 0 -60,-60 z M452.727,480 a60,60 0 0 0 60,60 a60,60 0 1 0 -60,-60 z M321.818,360 a60,60 0 0 0 60,60 a60,60 0 1 0 -60,-60 z M321.818,240 a60,60 0 0 0 60,60 a60,60 0 1 0 -60,-60 z M125.455,120 a60,60 0 0 0 60,60 a60,60 0 1 0 -60,-60 z M256.364,120 a60,60 0 0 0 60,60 a60,60 0 1 0 -60,-60 z "/>
<glyph glyph-name="~" unicode="~" d="M125.455,840 a60,60 0 0 0 60,60 a60,60 0 1 0 -60,-60 z M256.364,840 a60,60 0 0 0 60,60 a60,60 0 1 0 -60,-60 z M60,720 a60,60 0 0 0 60,60 a60,60 0 1 0 -60,-60 z M321.818,720 a60,60 0 0 0 60,60 a60,60 0 1 0 -60,-60 z M583.636,720 a60,60 0 0 0 60,60 a60,60 0 1 0 -60,-60 z M387.273,600 a60,60 0 0 0 60,60 a60,60 0 1 0 -60,-60 z M518.182,600 a60,60 0 0 0 60,60 a60,60 0 1 0 -60,-60 z "/>
<glyph glyph-name="yo cyrillic" unicode="&#x0451;" d="M190.909,840 a60,60 0 0 0 60,60 a60,60 0 1 0 -60,-60 z M452.727,840 a60,60 0 0 0 60,60 a60,60 0 1 0 -60,-60 z M125.455,600 a60,60 0 0 0 60,60 a60,60 0 1 0 -60,-60 z M256.364,600 a60,60 0 0 0 60,60 a60,60 0 1 0 -60,-60 z M387.273,600 a60,60 0 0 0 60,60 a60,60 0 1 0 -60,-60 z M518.182,600 a60,60 0 0 0 60,60 a60,60 0 1 0 -60,-60 z M60,480 a60,60 0 0 0 60,60 a60,60 0 1 0 -60,-60 z M583.636,480 a60,60 0 0 0 60,60 a60,60 0 1 0 -60,-60 z M60,360 a60,60 0 0 0 60,60 a60,60 0 1 0 -60,-60 z M190.909,360 a60,60 0 0 0 60,60 a60,60 0 1 0 -60,-60 z M321.818,360 a60,60 0 0 0 60,60 a60,60 0 1 0 -60,-60 z M452.727,360 a60,60 0 0 0 60,60 a60,60 0 1 0 -60,-60 z M583.636,360 a60,60 0 0 0 60,60 a60,60 0 1 0 -60,-60 z M60,240 a60,60 0 0 0 60,60 a60,60 0 1 0 -60,-60 z M125.455,120 a60,60 0 0 0 60,60 a60,60 0 1 0 -60,-60 z M256.364,120 a60,60 0 0 0 60,60 a60,60 0 1 0 -60,-60 z M387.273,120 a60,60 0 0 0 60,60 a60,60 0 1 0 -60,-60 z M518.182,120 a60,60 0 0 0 60,60 a60,60 0 1 0 -60,-60 z "/>
<glyph glyph-name="Yo cyrillic" unicode="&#x0401;" d="M60,840 a60,60 0 0 0 60,60 a60,60 0 1 0 -60,-60 z M190.909,840 a60,60 0 0 0 60,60 a60,60 0 1 0 -60,-60 z M321.818,840 a60,60 0 0 0 60,60 a60,60 0 1 0 -60,-60 z M452.727,840 a60,60 0 0 0 60,60 a60,60 0 1 0 -60,-60 z M583.636,840 a60,60 0 0 0 60,60 a60,60 0 1 0 -60,-60 z M60,720 a60,60 0 0 0 60,60 a60,60 0 1 0 -60,-60 z M60,600 a60,60 0 0 0 60,60 a60,60 0 1 0 -60,-60 z M60,480 a60,60 0 0 0 60,60 a60,60 0 1 0 -60,-60 z M190.909,480 a60,60 0 0 0 60,60 a60,60 0 1 0 -60,-60 z M321.818,480 a60,60 0 0 0 60,60 a60,60 0 1 0 -60,-60 z M452.727,480 a60,60 0 0 0 60,60 a60,60 0 1 0 -60,-60 z M60,360 a60,60 0 0 0 60,60 a60,60 0 1 0 -60,-60 z M60,240 a60,60 0 0 0 60,60 a60,60 0 1 0 -60,-60 z M60,120 a60,60 0 0 0 60,60 a60,60 0 1 0 -60,-60 z M190.909,120 a60,60 0 0 0 60,60 a60,60 0 1 0 -60,-60 z M321.818,120 a60,60 0 0 0 60,60 a60,60 0 1 0 -60,-60 z M452.727,120 a60,60 0 0 0 60,60 a60,60 0 1 0 -60,-60 z M583.636,120 a60,60 0 0 0 60,60 a60,60 0 1 0 -60,-60 z "/>
<glyph glyph-name="Hard sign cyrillic" unicode="&#x042A;" d="M60,840 a60,60 0 0 0 60,60 a60,60 0 1 0 -60,-60 z M190.909,840 a60,60 0 0 0 60,60 a60,60 0 1 0 -60,-60 z M190.909,720 a60,60 0 0 0 60,60 a60,60 0 1 0 -60,-60 z M190.909,600 a60,60 0 0 0 60,60 a60,60 0 1 0 -60,-60 z M190.909,480 a60,60 0 0 0 60,60 a60,60 0 1 0 -60,-60 z M321.818,480 a60,60 0 0 0 60,60 a60,60 0 1 0 -60,-60 z M452.727,480 a60,60 0 0 0 60,60 a60,60 0 1 0 -60,-60 z M190.909,360 a60,60 0 0 0 60,60 a60,60 0 1 0 -60,-60 z M583.636,360 a60,60 0 0 0 60,60 a60,60 0 1 0 -60,-60 z M190.909,240 a60,60 0 0 0 60,60 a60,60 0 1 0 -60,-60 z M583.636,240 a60,60 0 0 0 60,60 a60,60 0 1 0 -60,-60 z M190.909,120 a60,60 0 0 0 60,60 a60,60 0 1 0 -60,-60 z M321.818,120 a60,60 0 0 0 60,60 a60,60 0 1 0 -60,-60 z M452.727,120 a60,60 0 0 0 60,60 a60,60 0 1 0 -60,-60 z "/>
<glyph glyph-name="yu cyrillic" unicode="&#x044E;" d="M60,600 a60,60 0 0 0 60,60 a60,60 0 1 0 -60,-60 z M387.273,600 a60,60 0 0 0 60,60 a60,60 0 1 0 -60,-60 z M518.182,600 a60,60 0 0 0 60,60 a60,60 0 1 0 -60,-60 z M60,480 a60,60 0 0 0 60,60 a60,60 0 1 0 -60,-60 z M321.818,480 a60,60 0 0 0 60,60 a60,60 0 1 0 -60,-60 z M583.636,480 a60,60 0 0 0 60,60 a60,60 0 1 0 -60,-60 z M60,360 a60,60 0 0 0 60,60 a60,60 0 1 0 -60,-60 z M190.909,360 a60,60 0 0 0 60,60 a60,60 0 1 0 -60,-60 z M321.818,360 a60,60 0 0 0 60,60 a60,60 0 1 0 -60,-60 z M583.636,360 a60,60 0 0 0 60,60 a60,60 0 1 0 -60,-60 z M60,240 a60,60 0 0 0 60,60 a60,60 0 1 0 -60,-60 z M321.818,240 a60,60 0 0 0 60,60 a60,60 0 1 0 -60,-60 z M583.636,240 a60,60 0 0 0 60,60 a60,60 0 1 0 -60,-60 z M60,120 a60,60 0 0 0 60,60 a60,60 0 1 0 -60,-60 z M387.273,120 a60,60 0 0 0 60,60 a60,60 0 1 0 -60,-60 z M518.182,120 a60,60 0 0 0 60,60 a60,60 0 1 0 -60,-60 z "/>
<glyph glyph-name="a cyrillic" unicode="&#x0430;" d="M190.909,600 a60,60 0 0 0 60,60 a60,60 0 1 0 -60,-60 z M321.818,600 a60,60 0 0 0 60,60 a60,60 0 1 0 -60,-60 z M452.727,600 a60,60 0 0 0 60,60 a60,60 0 1 0 -60,-60 z M518.182,480 a60,60 0 0 0 60,60 a60,60 0 1 0 -60,-60 z M125.455,360 a60,60 0 0 0 60,60 a60,60 0 1 0 -60,-60 z M256.364,360 a60,60 0 0 0 60,60 a60,60 0 1 0 -60,-60 z M387.273,360 a60,60 0 0 0 60,60 a60,60 0 1 0 -60,-60 z M518.182,360 a60,60 0 0 0 60,60 a60,60 0 1 0 -60,-60 z M60,240 a60,60 0 0 0 60,60 a60,60 0 1 0 -60,-60 z M518.182,240 a60,60 0 0 0 60,60 a60,60 0 1 0 -60,-60 z M125.455,120 a60,60 0 0 0 60,60 a60,60 0 1 0 -60,-60 z M256.364,120 a60,60 0 0 0 60,60 a60,60 0 1 0 -60,-60 z M387.273,120 a60,60 0 0 0 60,60 a60,60 0 1 0 -60,-60 z M583.636,120 a60,60 0 0 0 60,60 a60,60 0 1 0 -60,-60 z "/>
<glyph glyph-name="be cyrillic" unicode="&#x0431;" d="M583.636,840 a60,60 0 0 0 60,60 a60,60 0 1 0 -60,-60 z M256.364,720 a60,60 0 0 0 60,60 a60,60 0 1 0 -60,-60 z M387.273,720 a60,60 0 0 0 60,60 a60,60 0 1 0 -60,-60 z M518.182,720 a60,60 0 0 0 60,60 a60,60 0 1 0 -60,-60 z M125.455,600 a60,60 0 0 0 60,60 a60,60 0 1 0 -60,-60 z M60,480 a60,60 0 0 0 60,60 a60,60 0 1 0 -60,-60 z M256.364,480 a60,60 0 0 0 60,60 a60,60 0 1 0 -60,-60 z M387.273,480 a60,60 0 0 0 60,60 a60,60 0 1 0 -60,-60 z M518.182,480 a60,60 0 0 0 60,60 a60,60 0 1 0 -60,-60 z M60,360 a60,60 0 0 0 60,60 a60,60 0 1 0 -60,-60 z M190.909,360 a60,60 0 0 0 60,60 a60,60 0 1 0 -60,-60 z M583.636,360 a60,60 0 0 0 60,60 a60,60 0 1 0 -60,-60 z M60,240 a60,60 0 0 0 60,60 a60,60 0 1 0 -60,-60 z M583.636,240 a60,60 0 0 0 60,60 a60,60 0 1 0 -60,-60 z M125.455,120 a60,60 0 0 0 60,60 a60,60 0 1 0 -60,-60 z M256.364,120 a60,60 0 0 0 60,60 a60,60 0 1 0 -60,-60 z M387.273,120 a60,60 0 0 0 60,60 a60,60 0 1 0 -60,-60 z M518.182,120 a60,60 0 0 0 60,60 a60,60 0 1 0 -60,-60 z "/>
<glyph glyph-name="tse cyrillic" unicode="&#x0446;" d="M60,600 a60,60 0 0 0 60,60 a60,60 0 1 0 -60,-60 z M452.727,600 a60,60 0 0 0 60,60 a60,60 0 1 0 -60,-60 z M60,480 a60,60 0 0 0 60,60 a60,60 0 1 0 -60,-60 z M452.727,480 a60,60 0 0 0 60,60 a60,60 0 1 0 -60,-60 z M60,360 a60,60 0 0 0 60,60 a60,60 0 1 0 -60,-60 z M452.727,360 a60,60 0 0 0 60,60 a60,60 0 1 0 -60,-60 z M60,240 a60,60 0 0 0 60,60 a60,60 0 1 0 -60,-60 z M452.727,240 a60,60 0 0 0 60,60 a60,60 0 1 0 -60,-60 z M60,120 a60,60 0 0 0 60,60 a60,60 0 1 0 -60,-60 z M190.909,120 a60,60 0 0 0 60,60 a60,60 0 1 0 -60,-60 z M321.818,120 a60,60 0 0 0 60,60 a60,60 0 1 0 -60,-60 z M452.727,120 a60,60 0 0 0 60,60 a60,60 0 1 0 -60,-60 z M583.636,120 a60,60 0 0 0 60,60 a60,60 0 1 0 -60,-60 z M583.636,0 a60,60 0 0 0 60,60 a60,60 0 1 0 -60,-60 z "/>
<glyph glyph-name="de cyrillic" unicode="&#x0434;" d="M256.364,600 a60,60 0 0 0 60,60 a60,60 0 1 0 -60,-60 z M387.273,600 a60,60 0 0 0 60,60 a60,60 0 1 0 -60,-60 z M518.182,600 a60,60 0 0 0 60,60 a60,60 0 1 0 -60,-60 z M256.364,480 a60,60 0 0 0 60,60 a60,60 0 1 0 -60,-60 z M518.182,480 a60,60 0 0 0 60,60 a60,60 0 1 0 -60,-60 z M190.909,360 a60,60 0 0 0 60,60 a60,60 0 1 0 -60,-60 z M518.182,360 a60,60 0 0 0 60,60 a60,60 0 1 0 -60,-60 z M125.455,240 a60,60 0 0 0 60,60 a60,60 0 1 0 -60,-60 z M518.182,240 a60,60 0 0 0 60,60 a60,60 0 1 0 -60,-60 z M60,120 a60,60 0 0 0 60,60 a60,60 0 1 0 -60,-60 z M190.909,120 a60,60 0 0 0 60,60 a60,60 0 1 0 -60,-60 z M321.818,120 a60,60 0 0 0 60,60 a60,60 0 1 0 -60,-60 z M452.727,120 a60,60 0 0 0 60,60 a60,60 0 1 0 -60,-60 z M583.636,120 a60,60 0 0 0 60,60 a60,60 0 1 0 -60,-60 z M60,0 a60,60 0 0 0 60,60 a60,60 0 1 0 -60,-60 z M583.636,0 a60,60 0 0 0 60,60 a60,60 0 1 0 -60,-60 z "/>
<glyph glyph-name="ye cyrillic" unicode="&#x0435;" d="M125.455,600 a60,60 0 0 0 60,60 a60,60 0 1 0 -60,-60 z M256.364,600 a60,60 0 0 0 60,60 a60,60 0 1 0 -60,-60 z M387.273,600 a60,60 0 0 0 60,60 a60,60 0 1 0 -60,-60 z M518.182,600 a60,60 0 0 0 60,60 a60,60 0 1 0 -60,-60 z M60,480 a60,60 0 0 0 60,60 a60,60 0 1 0 -60,-60 z M583.636,480 a60,60 0 0 0 60,60 a60,60 0 1 0 -60,-60 z M60,360 a60,60 0 0 0 60,60 a60,60 0 1 0 -60,-60 z M190.909,360 a60,60 0 0 0 60,60 a60,60 0 1 0 -60,-60 z M321.818,360 a60,60 0 0 0 60,60 a60,60 0 1 0 -60,-60 z M452.727,360 a60,60 0 0 0 60,60 a60,60 0 1 0 -60,-60 z M583.636,360 a60,60 0 0 0 60,60 a60,60 0 1 0 -60,-60 z M60,240 a60,60 0 0 0 60,60 a60,60 0 1 0 -60,-60 z M125.455,120 a60,60 0 0 0 60,60 a60,60 0 1 0 -60,-60 z M256.364,120 a60,60 0 0 0 60,60 a60,60 0 1 0 -60,-60 z M387.273,120 a60,60 0 0 0 60,60 a60,60 0 1 0 -60,-60 z M518.182,120 a60,60 0 0 0 60,60 a60,60 0 1 0 -60,-60 z "/>
<glyph glyph-name="ef cyrillic" unicode="&#x0444;" d="M321.818,720 a60,60 0 0 0 60,60 a60,60 0 1 0 -60,-60 z M125.455,600 a60,60 0 0 0 60,60 a60,60 0 1 0 -60,-60 z M256.364,600 a60,60 0 0 0 60,60 a60,60 0 1 0 -60,-60 z M387.273,600 a60,60 0 0 0 60,60 a60,60 0 1 0 -60,-60 z M518.182,600 a60,60 0 0 0 60,60 a60,60 0 1 0 -60,-60 z M60,480 a60,60 0 0 0 60,60 a60,60 0 1 0 -60,-60 z M321.818,480 a60,60 0 0 0 60,60 a60,60 0 1 0 -60,-60 z M583.636,480 a60,60 0 0 0 60,60 a60,60 0 1 0 -60,-60 z M60,360 a60,60 0 0 0 60,60 a60,60 0 1 0 -60,-60 z M321.818,360 a60,60 0 0 0 60,60 a60,60 0 1 0 -60,-60 z M583.636,360 a60,60 0 0 0 60,60 a60,60 0 1 0 -60,-60 z M60,240 a60,60 0 0 0 60,60 a60,60 0 1 0 -60,-60 z M321.818,240 a60,60 0 0 0 60,60 a60,60 0 1 0 -60,-60 z M583.636,240 a60,60 0 0 0 60,60 a60,60 0 1 0 -60,-60 z M125.455,120 a60,60 0 0 0 60,60 a60,60 0 1 0 -60,-60 z M256.364,120 a60,60 0 0 0 60,60 a60,60 0 1 0 -60,-60 z M387.273,120 a60,60 0 0 0 60,60 a60,60 0 1 0 -60,-60 z M518.182,120 a60,60 0 0 0 60,60 a60,60 0 1 0 -60,-60 z M321.818,0 a60,60 0 0 0 60,60 a60,60 0 1 0 -60,-60 z "/>
<glyph glyph-name="ge cyrillic" unicode="&#x0433;" d="M125.455,600 a60,60 0 0 0 60,60 a60,60 0 1 0 -60,-60 z M256.364,600 a60,60 0 0 0 60,60 a60,60 0 1 0 -60,-60 z M387.273,600 a60,60 0 0 0 60,60 a60,60 0 1 0 -60,-60 z M518.182,600 a60,60 0 0 0 60,60 a60,60 0 1 0 -60,-60 z M125.455,480 a60,60 0 0 0 60,60 a60,60 0 1 0 -60,-60 z M125.455,360 a60,60 0 0 0 60,60 a60,60 0 1 0 -60,-60 z M125.455,240 a60,60 0 0 0 60,60 a60,60 0 1 0 -60,-60 z M125.455,120 a60,60 0 0 0 60,60 a60,60 0 1 0 -60,-60 z "/>
<glyph glyph-name="kha cyrillic" unicode="&#x0445;" d="M125.455,600 a60,60 0 0 0 60,60 a60,60 0 1 0 -60,-60 z M518.182,600 a60,60 0 0 0 60,60 a60,60 0 1 0 -60,-60 z M190.909,480 a60,60 0 0 0 60,60 a60,60 0 1 0 -60,-60 z M452.727,480 a60,60 0 0 0 60,60 a60,60 0 1 0 -60,-60 z M321.818,360 a60,60 0 0 0 60,60 a60,60 0 1 0 -60,-60 z M190.909,240 a60,60 0 0 0 60,60 a60,60 0 1 0 -60,-60 z M452.727,240 a60,60 0 0 0 60,60 a60,60 0 1 0 -60,-60 z M125.455,120 a60,60 0 0 0 60,60 a60,60 0 1 0 -60,-60 z M518.182,120 a60,60 0 0 0 60,60 a60,60 0 1 0 -60,-60 z "/>
<glyph glyph-name="i cyrillic" unicode="&#x0438;" d="M60,600 a60,60 0 0 0 60,60 a60,60 0 1 0 -60,-60 z M583.636,600 a60,60 0 0 0 60,60 a60,60 0 1 0 -60,-60 z M60,480 a60,60 0 0 0 60,60 a60,60 0 1 0 -60,-60 z M452.727,480 a60,60 0 0 0 60,60 a60,60 0 1 0 -60,-60 z M583.636,480 a60,60 0 0 0 60,60 a60,60 0 1 0 -60,-60 z M60,360 a60,60 0 0 0 60,60 a60,60 0 1 0 -60,-60 z M321.818,360 a60,60 0 0 0 60,60 a60,60 0 1 0 -60,-60 z M583.636,360 a60,60 0 0 0 60,60 a60,60 0 1 0 -60,-60 z M60,240 a60,60 0 0 0 60,60 a60,60 0 1 0 -60,-60 z M190.909,240 a60,60 0 0 0 60,60 a60,60 0 1 0 -60,-60 z M583.636,240 a60,60 0 0 0 60,60 a60,60 0 1 0 -60,-60 z M60,120 a60,60 0 0 0 60,60 a60,60 0 1 0 -60,-60 z M583.636,120 a60,60 0 0 0 60,60 a60,60 0 1 0 -60,-60 z "/>
<glyph glyph-name="short i cyrillic" unicode="&#x0439;" d="M125.455,840 a60,60 0 0 0 60,60 a60,60 0 1 0 -60,-60 z M518.182,840 a60,60 0 0 0 60,60 a60,60 0 1 0 -60,-60 z M256.364,720 a60,60 0 0 0 60,60 a60,60 0 1 0 -60,-60 z M387.273,720 a60,60 0 0 0 60,60 a60,60 0 1 0 -60,-60 z M60,600 a60,60 0 0 0 60,60 a60,60 0 1 0 -60,-60 z M583.636,600 a60,60 0 0 0 60,60 a60,60 0 1 0 -60,-60 z M60,480 a60,60 0 0 0 60,60 a60,60 0 1 0 -60,-60 z M452.727,480 a60,60 0 0 0 60,60 a60,60 0 1 0 -60,-60 z M583.636,480 a60,60 0 0 0 60,60 a60,60 0 1 0 -60,-60 z M60,360 a60,60 0 0 0 60,60 a60,60 0 1 0 -60,-60 z M321.818,360 a60,60 0 0 0 60,60 a60,60 0 1 0 -60,-60 z M583.636,360 a60,60 0 0 0 60,60 a60,60 0 1 0 -60,-60 z M60,240 a60,60 0 0 0 60,60 a60,60 0 1 0 -60,-60 z M190.909,240 a60,60 0 0 0 60,60 a60,60 0 1 0 -60,-60 z M583.636,240 a60,60 0 0 0 60,60 a60,60 0 1 0 -60,-60 z M60,120 a60,60 0 0 0 60,60 a60,60 0 1 0 -60,-60 z M583.636,120 a60,60 0 0 0 60,60 a60,60 0 1 0 -60,-60 z "/>
<glyph glyph-name="ka cyrillic" unicode="&#x043A;" d="M60,600 a60,60 0 0 0 60,60 a60,60 0 1 0 -60,-60 z M583.636,600 a60,60 0 0 0 60,60 a60,60 0 1 0 -60,-60 z M60,480 a60,60 0 0 0 60,60 a60,60 0 1 0 -60,-60 z M452.727,480 a60,60 0 0 0 60,60 a60,60 0 1 0 -60,-60 z M60,360 a60,60 0 0 0 60,60 a60,60 0 1 0 -60,-60 z M190.909,360 a60,60 0 0 0 60,60 a60,60 0 1 0 -60,-60 z M321.818,360 a60,60 0 0 0 60,60 a60,60 0 1 0 -60,-60 z M60,240 a60,60 0 0 0 60,60 a60,60 0 1 0 -60,-60 z M387.273,240 a60,60 0 0 0 60,60 a60,60 0 1 0 -60,-60 z M60,120 a60,60 0 0 0 60,60 a60,60 0 1 0 -60,-60 z M452.727,120 a60,60 0 0 0 60,60 a60,60 0 1 0 -60,-60 z M583.636,120 a60,60 0 0 0 60,60 a60,60 0 1 0 -60,-60 z "/>
<glyph glyph-name="el cyrillic" unicode="&#x043B;" d="M321.818,600 a60,60 0 0 0 60,60 a60,60 0 1 0 -60,-60 z M452.727,600 a60,60 0 0 0 60,60 a60,60 0 1 0 -60,-60 z M583.636,600 a60,60 0 0 0 60,60 a60,60 0 1 0 -60,-60 z M256.364,480 a60,60 0 0 0 60,60 a60,60 0 1 0 -60,-60 z M583.636,480 a60,60 0 0 0 60,60 a60,60 0 1 0 -60,-60 z M256.364,360 a60,60 0 0 0 60,60 a60,60 0 1 0 -60,-60 z M583.636,360 a60,60 0 0 0 60,60 a60,60 0 1 0 -60,-60 z M256.364,240 a60,60 0 0 0 60,60 a60,60 0 1 0 -60,-60 z M583.636,240 a60,60 0 0 0 60,60 a60,60 0 1 0 -60,-60 z M60,120 a60,60 0 0 0 60,60 a60,60 0 1 0 -60,-60 z M190.909,120 a60,60 0 0 0 60,60 a60,60 0 1 0 -60,-60 z M583.636,120 a60,60 0 0 0 60,60 a60,60 0 1 0 -60,-60 z "/>
<glyph glyph-name="em cyrillic" unicode="&#x043C;" d="M60,600 a60,60 0 0 0 60,60 a60,60 0 1 0 -60,-60 z M583.636,600 a60,60 0 0 0 60,60 a60,60 0 1 0 -60,-60 z M60,480 a60,60 0 0 0 60,60 a60,60 0 1 0 -60,-60 z M190.909,480 a60,60 0 0 0 60,60 a60,60 0 1 0 -60,-60 z M452.727,480 a60,60 0 0 0 60,60 a60,60 0 1 0 -60,-60 z M583.636,480 a60,60 0 0 0 60,60 a60,60 0 1 0 -60,-60 z M60,360 a60,60 0 0 0 60,60 a60,60 0 1 0 -60,-60 z M256.364,360 a60,60 0 0 0 60,60 a60,60 0 1 0 -60,-60 z M387.273,360 a60,60 0 0 0 60,60 a60,60 0 1 0 -60,-60 z M583.636,360 a60,60 0 0 0 60,60 a60,60 0 1 0 -60,-60 z M60,240 a60,60 0 0 0 60,60 a60,60 0 1 0 -60,-60 z M321.818,240 a60,60 0 0 0 60,60 a60,60 0 1 0 -60,-60 z M583.636,240 a60,60 0 0 0 60,60 a60,60 0 1 0 -60,-60 z M60,120 a60,60 0 0 0 60,60 a60,60 0 1 0 -60,-60 z M583.636,120 a60,60 0 0 0 60,60 a60,60 0 1 0 -60,-60 z "/>
<glyph glyph-name="en cyrillic" unicode="&#x043D;" d="M60,600 a60,60 0 0 0 60,60 a60,60 0 1 0 -60,-60 z M583.636,600 a60,60 0 0 0 60,60 a60,60 0 1 0 -60,-60 z M60,480 a60,60 0 0 0 60,60 a60,60 0 1 0 -60,-60 z M583.636,480 a60,60 0 0 0 60,60 a60,60 0 1 0 -60,-60 z M60,360 a60,60 0 0 0 60,60 a60,60 0 1 0 -60,-60 z M190.909,360 a60,60 0 0 0 60,60 a60,60 0 1 0 -60,-60 z M321.818,360 a60,60 0 0 0 60,60 a60,60 0 1 0 -60,-60 z M452.727,360 a60,60 0 0 0 60,60 a60,60 0 1 0 -60,-60 z M583.636,360 a60,60 0 0 0 60,60 a60,60 0 1 0 -60,-60 z M60,240 a60,60 0 0 0 60,60 a60,60 0 1 0 -60,-60 z M583.636,240 a60,60 0 0 0 60,60 a60,60 0 1 0 -60,-60 z M60,120 a60,60 0 0 0 60,60 a60,60 0 1 0 -60,-60 z M583.636,120 a60,60 0 0 0 60,60 a60,60 0 1 0 -60,-60 z "/>
<glyph glyph-name="o cyrillic" unicode="&#x043E;" d="M125.455,600 a60,60 0 0 0 60,60 a60,60 0 1 0 -60,-60 z M256.364,600 a60,60 0 0 0 60,60 a60,60 0 1 0 -60,-60 z M387.273,600 a60,60 0 0 0 60,60 a60,60 0 1 0 -60,-60 z M518.182,600 a60,60 0 0 0 60,60 a60,60 0 1 0 -60,-60 z M60,480 a60,60 0 0 0 60,60 a60,60 0 1 0 -60,-60 z M583.636,480 a60,60 0 0 0 60,60 a60,60 0 1 0 -60,-60 z M60,360 a60,60 0 0 0 60,60 a60,60 0 1 0 -60,-60 z M583.636,360 a60,60 0 0 0 60,60 a60,60 0 1 0 -60,-60 z M60,240 a60,60 0 0 0 60,60 a60,60 0 1 0 -60,-60 z M583.636,240 a60,60 0 0 0 60,60 a60,60 0 1 0 -60,-60 z M125.455,120 a60,60 0 0 0 60,60 a60,60 0 1 0 -60,-60 z M256.364,120 a60,60 0 0 0 60,60 a60,60 0 1 0 -60,-60 z M387.273,120 a60,60 0 0 0 60,60 a60,60 0 1 0 -60,-60 z M518.182,120 a60,60 0 0 0 60,60 a60,60 0 1 0 -60,-60 z "/>
<glyph glyph-name="pe cyrillic" unicode="&#x043F;" d="M60,600 a60,60 0 0 0 60,60 a60,60 0 1 0 -60,-60 z M190.909,600 a60,60 0 0 0 60,60 a60,60 0 1 0 -60,-60 z M321.818,600 a60,60 0 0 0 60,60 a60,60 0 1 0 -60,-60 z M452.727,600 a60,60 0 0 0 60,60 a60,60 0 1 0 -60,-60 z M583.636,600 a60,60 0 0 0 60,60 a60,60 0 1 0 -60,-60 z M60,480 a60,60 0 0 0 60,60 a60,60 0 1 0 -60,-60 z M583.636,480 a60,60 0 0 0 60,60 a60,60 0 1 0 -60,-60 z M60,360 a60,60 0 0 0 60,60 a60,60 0 1 0 -60,-60 z M583.636,360 a60,60 0 0 0 60,60 a60,60 0 1 0 -60,-60 z M60,240 a60,60 0 0 0 60,60 a60,60 0 1 0 -60,-60 z M583.636,240 a60,60 0 0 0 60,60 a60,60 0 1 0 -60,-60 z M60,120 a60,60 0 0 0 60,60 a60,60 0 1 0 -60,-60 z M583.636,120 a60,60 0 0 0 60,60 a60,60 0 1 0 -60,-60 z "/>
<glyph glyph-name="ya cyrillic" unicode="&#x044F;" d="M190.909,600 a60,60 0 0 0 60,60 a60,60 0 1 0 -60,-60 z M321.818,600 a60,60 0 0 0 60,60 a60,60 0 1 0 -60,-60 z M452.727,600 a60,60 0 0 0 60,60 a60,60 0 1 0 -60,-60 z M583.636,600 a60,60 0 0 0 60,60 a60,60 0 1 0 -60,-60 z M125.455,480 a60,60 0 0 0 60,60 a60,60 0 1 0 -60,-60 z M583.636,480 a60,60 0 0 0 60,60 a60,60 0 1 0 -60,-60 z M190.909,360 a60,60 0 0 0 60,60 a60,60 0 1 0 -60,-60 z M321.818,360 a60,60 0 0 0 60,60 a60,60 0 1 0 -60,-60 z M452.727,360 a60,60 0 0 0 60,60 a60,60 0 1 0 -60,-60 z M583.636,360 a60,60 0 0 0 60,60 a60,60 0 1 0 -60,-60 z M321.818,240 a60,60 0 0 0 60,60 a60,60 0 1 0 -60,-60 z M583.636,240 a60,60 0 0 0 60,60 a60,60 0 1 0 -60,-60 z M125.455,120 a60,60 0 0 0 60,60 a60,60 0 1 0 -60,-60 z M256.364,120 a60,60 0 0 0 60,60 a60,60 0 1 0 -60,-60 z M583.636,120 a60,60 0 0 0 60,60 a60,60 0 1 0 -60,-60 z "/>
<glyph glyph-name="er cyrillic" unicode="&#x0440;" d="M60,600 a60,60 0 0 0 60,60 a60,60 0 1 0 -60,-60 z M190.909,600 a60,60 0 0 0 60,60 a60,60 0 1 0 -60,-60 z M321.818,600 a60,60 0 0 0 60,60 a60,60 0 1 0 -60,-60 z M452.727,600 a60,60 0 0 0 60,60 a60,60 0 1 0 -60,-60 z M60,480 a60,60 0 0 0 60,60 a60,60 0 1 0 -60,-60 z M518.182,480 a60,60 0 0 0 60,60 a60,60 0 1 0 -60,-60 z M60,360 a60,60 0 0 0 60,60 a60,60 0 1 0 -60,-60 z M518.182,360 a60,60 0 0 0 60,60 a60,60 0 1 0 -60,-60 z M60,240 a60,60 0 0 0 60,60 a60,60 0 1 0 -60,-60 z M518.182,240 a60,60 0 0 0 60,60 a60,60 0 1 0 -60,-60 z M60,120 a60,60 0 0 0 60,60 a60,60 0 1 0 -60,-60 z M190.909,120 a60,60 0 0 0 60,60 a60,60 0 1 0 -60,-60 z M321.818,120 a60,60 0 0 0 60,60 a60,60 0 1 0 -60,-60 z M452.727,120 a60,60 0 0 0 60,60 a60,60 0 1 0 -60,-60 z M60,0 a60,60 0 0 0 60,60 a60,60 0 1 0 -60,-60 z M60,-120 a60,60 0 0 0 60,60 a60,60 0 1 0 -60,-60 z "/>
<glyph glyph-name="es cyrillic" unicode="&#x0441;" d="M125.455,600 a60,60 0 0 0 60,60 a60,60 0 1 0 -60,-60 z M256.364,600 a60,60 0 0 0 60,60 a60,60 0 1 0 -60,-60 z M387.273,600 a60,60 0 0 0 60,60 a60,60 0 1 0 -60,-60 z M518.182,600 a60,60 0 0 0 60,60 a60,60 0 1 0 -60,-60 z M60,480 a60,60 0 0 0 60,60 a60,60 0 1 0 -60,-60 z M60,360 a60,60 0 0 0 60,60 a60,60 0 1 0 -60,-60 z M60,240 a60,60 0 0 0 60,60 a60,60 0 1 0 -60,-60 z M125.455,120 a60,60 0 0 0 60,60 a60,60 0 1 0 -60,-60 z M256.364,120 a60,60 0 0 0 60,60 a60,60 0 1 0 -60,-60 z M387.273,120 a60,60 0 0 0 60,60 a60,60 0 1 0 -60,-60 z M518.182,120 a60,60 0 0 0 60,60 a60,60 0 1 0 -60,-60 z "/>
<glyph glyph-name="te cyrillic" unicode="&#x0442;" d="M60,600 a60,60 0 0 0 60,60 a60,60 0 1 0 -60,-60 z M190.909,600 a60,60 0 0 0 60,60 a60,60 0 1 0 -60,-60 z M321.818,600 a60,60 0 0 0 60,60 a60,60 0 1 0 -60,-60 z M452.727,600 a60,60 0 0 0 60,60 a60,60 0 1 0 -60,-60 z M583.636,600 a60,60 0 0 0 60,60 a60,60 0 1 0 -60,-60 z M321.818,480 a60,60 0 0 0 60,60 a60,60 0 1 0 -60,-60 z M321.818,360 a60,60 0 0 0 60,60 a60,60 0 1 0 -60,-60 z M321.818,240 a60,60 0 0 0 60,60 a60,60 0 1 0 -60,-60 z M321.818,120 a60,60 0 0 0 60,60 a60,60 0 1 0 -60,-60 z "/>
<glyph glyph-name="u cyrillic" unicode="&#x0443;" d="M60,600 a60,60 0 0 0 60,60 a60,60 0 1 0 -60,-60 z M583.636,600 a60,60 0 0 0 60,60 a60,60 0 1 0 -60,-60 z M125.455,480 a60,60 0 0 0 60,60 a60,60 0 1 0 -60,-60 z M518.182,480 a60,60 0 0 0 60,60 a60,60 0 1 0 -60,-60 z M190.909,360 a60,60 0 0 0 60,60 a60,60 0 1 0 -60,-60 z M452.727,360 a60,60 0 0 0 60,60 a60,60 0 1 0 -60,-60 z M256.364,240 a60,60 0 0 0 60,60 a60,60 0 1 0 -60,-60 z M387.273,240 a60,60 0 0 0 60,60 a60,60 0 1 0 -60,-60 z M321.818,120 a60,60 0 0 0 60,60 a60,60 0 1 0 -60,-60 z M256.364,0 a60,60 0 0 0 60,60 a60,60 0 1 0 -60,-60 z M190.909,-120 a60,60 0 0 0 60,60 a60,60 0 1 0 -60,-60 z "/>
<glyph glyph-name="zhe cyrillic" unicode="&#x0436;" d="M60,600 a60,60 0 0 0 60,60 a60,60 0 1 0 -60,-60 z M321.818,600 a60,60 0 0 0 60,60 a60,60 0 1 0 -60,-60 z M583.636,600 a60,60 0 0 0 60,60 a60,60 0 1 0 -60,-60 z M125.455,480 a60,60 0 0 0 60,60 a60,60 0 1 0 -60,-60 z M321.818,480 a60,60 0 0 0 60,60 a60,60 0 1 0 -60,-60 z M518.182,480 a60,60 0 0 0 60,60 a60,60 0 1 0 -60,-60 z M190.909,360 a60,60 0 0 0 60,60 a60,60 0 1 0 -60,-60 z M321.818,360 a60,60 0 0 0 60,60 a60,60 0 1 0 -60,-60 z M452.727,360 a60,60 0 0 0 60,60 a60,60 0 1 0 -60,-60 z M125.455,240 a60,60 0 0 0 60,60 a60,60 0 1 0 -60,-60 z M321.818,240 a60,60 0 0 0 60,60 a60,60 0 1 0 -60,-60 z M518.182,240 a60,60 0 0 0 60,60 a60,60 0 1 0 -60,-60 z M60,120 a60,60 0 0 0 60,60 a60,60 0 1 0 -60,-60 z M321.818,120 a60,60 0 0 0 60,60 a60,60 0 1 0 -60,-60 z M583.636,120 a60,60 0 0 0 60,60 a60,60 0 1 0 -60,-60 z "/>
<glyph glyph-name="ve cyrillic" unicode="&#x0432;" d="M60,600 a60,60 0 0 0 60,60 a60,60 0 1 0 -60,-60 z M190.909,600 a60,60 0 0 0 60,60 a60,60 0 1 0 -60,-60 z M321.818,600 a60,60 0 0 0 60,60 a60,60 0 1 0 -60,-60 z M452.727,600 a60,60 0 0 0 60,60 a60,60 0 1 0 -60,-60 z M60,480 a60,60 0 0 0 60,60 a60,60 0 1 0 -60,-60 z M518.182,480 a60,60 0 0 0 60,60 a60,60 0 1 0 -60,-60 z M60,360 a60,60 0 0 0 60,60 a60,60 0 1 0 -60,-60 z M190.909,360 a60,60 0 0 0 60,60 a60,60 0 1 0 -60,-60 z M321.818,360 a60,60 0 0 0 60,60 a60,60 0 1 0 -60,-60 z M452.727,360 a60,60 0 0 0 60,60 a60,60 0 1 0 -60,-60 z M60,240 a60,60 0 0 0 60,60 a60,60 0 1 0 -60,-60 z M518.182,240 a60,60 0 0 0 60,60 a60,60 0 1 0 -60,-60 z M60,120 a60,60 0 0 0 60,60 a60,60 0 1 0 -60,-60 z M190.909,120 a60,60 0 0 0 60,60 a60,60 0 1 0 -60,-60 z M321.818,120 a60,60 0 0 0 60,60 a60,60 0 1 0 -60,-60 z M452.727,120 a60,60 0 0 0 60,60 a60,60 0 1 0 -60,-60 z "/>
<glyph glyph-name="soft sign cyrillic" unicode="&#x044C;" d="M60,600 a60,60 0 0 0 60,60 a60,60 0 1 0 -60,-60 z M60,480 a60,60 0 0 0 60,60 a60,60 0 1 0 -60,-60 z M60,360 a60,60 0 0 0 60,60 a60,60 0 1 0 -60,-60 z M190.909,360 a60,60 0 0 0 60,60 a60,60 0 1 0 -60,-60 z M321.818,360 a60,60 0 0 0 60,60 a60,60 0 1 0 -60,-60 z M452.727,360 a60,60 0 0 0 60,60 a60,60 0 1 0 -60,-60 z M60,240 a60,60 0 0 0 60,60 a60,60 0 1 0 -60,-60 z M518.182,240 a60,60 0 0 0 60,60 a60,60 0 1 0 -60,-60 z M60,120 a60,60 0 0 0 60,60 a60,60 0 1 0 -60,-60 z M190.909,120 a60,60 0 0 0 60,60 a60,60 0 1 0 -60,-60 z M321.818,120 a60,60 0 0 0 60,60 a60,60 0 1 0 -60,-60 z M452.727,120 a60,60 0 0 0 60,60 a60,60 0 1 0 -60,-60 z "/>
<glyph glyph-name="yery cyrillic" unicode="&#x044B;" d="M60,600 a60,60 0 0 0 60,60 a60,60 0 1 0 -60,-60 z M583.636,600 a60,60 0 0 0 60,60 a60,60 0 1 0 -60,-60 z M60,480 a60,60 0 0 0 60,60 a60,60 0 1 0 -60,-60 z M583.636,480 a60,60 0 0 0 60,60 a60,60 0 1 0 -60,-60 z M60,360 a60,60 0 0 0 60,60 a60,60 0 1 0 -60,-60 z M190.909,360 a60,60 0 0 0 60,60 a60,60 0 1 0 -60,-60 z M321.818,360 a60,60 0 0 0 60,60 a60,60 0 1 0 -60,-60 z M583.636,360 a60,60 0 0 0 60,60 a60,60 0 1 0 -60,-60 z M60,240 a60,60 0 0 0 60,60 a60,60 0 1 0 -60,-60 z M387.273,240 a60,60 0 0 0 60,60 a60,60 0 1 0 -60,-60 z M583.636,240 a60,60 0 0 0 60,60 a60,60 0 1 0 -60,-60 z M60,120 a60,60 0 0 0 60,60 a60,60 0 1 0 -60,-60 z M190.909,120 a60,60 0 0 0 60,60 a60,60 0 1 0 -60,-60 z M321.818,120 a60,60 0 0 0 60,60 a60,60 0 1 0 -60,-60 z M583.636,120 a60,60 0 0 0 60,60 a60,60 0 1 0 -60,-60 z "/>
<glyph glyph-name="ze cyrillic" unicode="&#x0437;" d="M125.455,600 a60,60 0 0 0 60,60 a60,60 0 1 0 -60,-60 z M256.364,600 a60,60 0 0 0 60,60 a60,60 0 1 0 -60,-60 z M387.273,600 a60,60 0 0 0 60,60 a60,60 0 1 0 -60,-60 z M518.182,600 a60,60 0 0 0 60,60 a60,60 0 1 0 -60,-60 z M60,480 a60,60 0 0 0 60,60 a60,60 0 1 0 -60,-60 z M583.636,480 a60,60 0 0 0 60,60 a60,60 0 1 0 -60,-60 z M387.273,360 a60,60 0 0 0 60,60 a60,60 0 1 0 -60,-60 z M518.182,360 a60,60 0 0 0 60,60 a60,60 0 1 0 -60,-60 z M60,240 a60,60 0 0 0 60,60 a60,60 0 1 0 -60,-60 z M583.636,240 a60,60 0 0 0 60,60 a60,60 0 1 0 -60,-60 z M125.455,120 a60,60 0 0 0 60,60 a60,60 0 1 0 -60,-60 z M256.364,120 a60,60 0 0 0 60,60 a60,60 0 1 0 -60,-60 z M387.273,120 a60,60 0 0 0 60,60 a60,60 0 1 0 -60,-60 z M518.182,120 a60,60 0 0 0 60,60 a60,60 0 1 0 -60,-60 z "/>
<glyph glyph-name="sha cyrillic" unicode="&#x0448;" d="M60,600 a60,60 0 0 0 60,60 a60,60 0 1 0 -60,-60 z M321.818,600 a60,60 0 0 0 60,60 a60,60 0 1 0 -60,-60 z M583.636,600 a60,60 0 0 0 60,60 a60,60 0 1 0 -60,-60 z M60,480 a60,60 0 0 0 60,60 a60,60 0 1 0 -60,-60 z M321.818,480 a60,60 0 0 0 60,60 a60,60 0 1 0 -60,-60 z M583.636,480 a60,60 0 0 0 60,60 a60,60 0 1 0 -60,-60 z M60,360 a60,60 0 0 0 60,60 a60,60 0 1 0 -60,-60 z M321.818,360 a60,60 0 0 0 60,60 a60,60 0 1 0 -60,-60 z M583.636,360 a60,60 0 0 0 60,60 a60,60 0 1 0 -60,-60 z M60,240 a60,60 0 0 0 60,60 a60,60 0 1 0 -60,-60 z M321.818,240 a60,60 0 0 0 60,60 a60,60 0 1 0 -60,-60 z M583.636,240 a60,60 0 0 0 60,60 a60,60 0 1 0 -60,-60 z M60,120 a60,60 0 0 0 60,60 a60,60 0 1 0 -60,-60 z M190.909,120 a60,60 0 0 0 60,60 a60,60 0 1 0 -60,-60 z M321.818,120 a60,60 0 0 0 60,60 a60,60 0 1 0 -60,-60 z M452.727,120 a60,60 0 0 0 60,60 a60,60 0 1 0 -60,-60 z M583.636,120 a60,60 0 0 0 60,60 a60,60 0 1 0 -60,-60 z "/>
<glyph glyph-name="e cyrillic" unicode="&#x044D;" d="M125.455,600 a60,60 0 0 0 60,60 a60,60 0 1 0 -60,-60 z M256.364,600 a60,60 0 0 0 60,60 a60,60 0 1 0 -60,-60 z M387.273,600 a60,60 0 0 0 60,60 a60,60 0 1 0 -60,-60 z M452.727,480 a60,60 0 0 0 60,60 a60,60 0 1 0 -60,-60 z M256.364,360 a60,60 0 0 0 60,60 a60,60 0 1 0 -60,-60 z M387.273,360 a60,60 0 0 0 60,60 a60,60 0 1 0 -60,-60 z M518.182,360 a60,60 0 0 0 60,60 a60,60 0 1 0 -60,-60 z M452.727,240 a60,60 0 0 0 60,60 a60,60 0 1 0 -60,-60 z M125.455,120 a60,60 0 0 0 60,60 a60,60 0 1 0 -60,-60 z M256.364,120 a60,60 0 0 0 60,60 a60,60 0 1 0 -60,-60 z M387.273,120 a60,60 0 0 0 60,60 a60,60 0 1 0 -60,-60 z "/>
<glyph glyph-name="shcha cyrillic" unicode="&#x0449;" d="M60,600 a60,60 0 0 0 60,60 a60,60 0 1 0 -60,-60 z M321.818,600 a60,60 0 0 0 60,60 a60,60 0 1 0 -60,-60 z M583.636,600 a60,60 0 0 0 60,60 a60,60 0 1 0 -60,-60 z M60,480 a60,60 0 0 0 60,60 a60,60 0 1 0 -60,-60 z M321.818,480 a60,60 0 0 0 60,60 a60,60 0 1 0 -60,-60 z M583.636,480 a60,60 0 0 0 60,60 a60,60 0 1 0 -60,-60 z M60,360 a60,60 0 0 0 60,60 a60,60 0 1 0 -60,-60 z M321.818,360 a60,60 0 0 0 60,60 a60,60 0 1 0 -60,-60 z M583.636,360 a60,60 0 0 0 60,60 a60,60 0 1 0 -60,-60 z M60,240 a60,60 0 0 0 60,60 a60,60 0 1 0 -60,-60 z M321.818,240 a60,60 0 0 0 60,60 a60,60 0 1 0 -60,-60 z M583.636,240 a60,60 0 0 0 60,60 a60,60 0 1 0 -60,-60 z M60,120 a60,60 0 0 0 60,60 a60,60 0 1 0 -60,-60 z M190.909,120 a60,60 0 0 0 60,60 a60,60 0 1 0 -60,-60 z M321.818,120 a60,60 0 0 0 60,60 a60,60 0 1 0 -60,-60 z M452.727,120 a60,60 0 0 0 60,60 a60,60 0 1 0 -60,-60 z M583.636,120 a60,60 0 0 0 60,60 a60,60 0 1 0 -60,-60 z M583.636,0 a60,60 0 0 0 60,60 a60,60 0 1 0 -60,-60 z "/>
<glyph glyph-name="che cyrillic" unicode="&#x0447;" d="M60,600 a60,60 0 0 0 60,60 a60,60 0 1 0 -60,-60 z M518.182,600 a60,60 0 0 0 60,60 a60,60 0 1 0 -60,-60 z M60,480 a60,60 0 0 0 60,60 a60,60 0 1 0 -60,-60 z M518.182,480 a60,60 0 0 0 60,60 a60,60 0 1 0 -60,-60 z M125.455,360 a60,60 0 0 0 60,60 a60,60 0 1 0 -60,-60 z M256.364,360 a60,60 0 0 0 60,60 a60,60 0 1 0 -60,-60 z M387.273,360 a60,60 0 0 0 60,60 a60,60 0 1 0 -60,-60 z M518.182,360 a60,60 0 0 0 60,60 a60,60 0 1 0 -60,-60 z M518.182,240 a60,60 0 0 0 60,60 a60,60 0 1 0 -60,-60 z M518.182,120 a60,60 0 0 0 60,60 a60,60 0 1 0 -60,-60 z "/>
<glyph glyph-name="hard sign cyrillic" unicode="&#x044A;" d="M60,600 a60,60 0 0 0 60,60 a60,60 0 1 0 -60,-60 z M190.909,600 a60,60 0 0 0 60,60 a60,60 0 1 0 -60,-60 z M190.909,480 a60,60 0 0 0 60,60 a60,60 0 1 0 -60,-60 z M190.909,360 a60,60 0 0 0 60,60 a60,60 0 1 0 -60,-60 z M321.818,360 a60,60 0 0 0 60,60 a60,60 0 1 0 -60,-60 z M452.727,360 a60,60 0 0 0 60,60 a60,60 0 1 0 -60,-60 z M190.909,240 a60,60 0 0 0 60,60 a60,60 0 1 0 -60,-60 z M518.182,240 a60,60 0 0 0 60,60 a60,60 0 1 0 -60,-60 z M190.909,120 a60,60 0 0 0 60,60 a60,60 0 1 0 -60,-60 z M321.818,120 a60,60 0 0 0 60,60 a60,60 0 1 0 -60,-60 z M452.727,120 a60,60 0 0 0 60,60 a60,60 0 1 0 -60,-60 z "/>
<glyph glyph-name="Yu cyrillic" unicode="&#x042E;" d="M60,840 a60,60 0 0 0 60,60 a60,60 0 1 0 -60,-60 z M387.273,840 a60,60 0 0 0 60,60 a60,60 0 1 0 -60,-60 z M518.182,840 a60,60 0 0 0 60,60 a60,60 0 1 0 -60,-60 z M60,720 a60,60 0 0 0 60,60 a60,60 0 1 0 -60,-60 z M321.818,720 a60,60 0 0 0 60,60 a60,60 0 1 0 -60,-60 z M583.636,720 a60,60 0 0 0 60,60 a60,60 0 1 0 -60,-60 z M60,600 a60,60 0 0 0 60,60 a60,60 0 1 0 -60,-60 z M321.818,600 a60,60 0 0 0 60,60 a60,60 0 1 0 -60,-60 z M583.636,600 a60,60 0 0 0 60,60 a60,60 0 1 0 -60,-60 z M60,480 a60,60 0 0 0 60,60 a60,60 0 1 0 -60,-60 z M190.909,480 a60,60 0 0 0 60,60 a60,60 0 1 0 -60,-60 z M321.818,480 a60,60 0 0 0 60,60 a60,60 0 1 0 -60,-60 z M583.636,480 a60,60 0 0 0 60,60 a60,60 0 1 0 -60,-60 z M60,360 a60,60 0 0 0 60,60 a60,60 0 1 0 -60,-60 z M321.818,360 a60,60 0 0 0 60,60 a60,60 0 1 0 -60,-60 z M583.636,360 a60,60 0 0 0 60,60 a60,60 0 1 0 -60,-60 z M60,240 a60,60 0 0 0 60,60 a60,60 0 1 0 -60,-60 z M321.818,240 a60,60 0 0 0 60,60 a60,60 0 1 0 -60,-60 z M583.636,240 a60,60 0 0 0 60,60 a60,60 0 1 0 -60,-60 z M60,120 a60,60 0 0 0 60,60 a60,60 0 1 0 -60,-60 z M387.273,120 a60,60 0 0 0 60,60 a60,60 0 1 0 -60,-60 z M518.182,120 a60,60 0 0 0 60,60 a60,60 0 1 0 -60,-60 z "/>
<glyph glyph-name="A cyrillic" unicode="&#x0410;" d="M256.364,840 a60,60 0 0 0 60,60 a60,60 0 1 0 -60,-60 z M387.273,840 a60,60 0 0 0 60,60 a60,60 0 1 0 -60,-60 z M190.909,720 a60,60 0 0 0 60,60 a60,60 0 1 0 -60,-60 z M452.727,720 a60,60 0 0 0 60,60 a60,60 0 1 0 -60,-60 z M125.455,600 a60,60 0 0 0 60,60 a60,60 0 1 0 -60,-60 z M518.182,600 a60,60 0 0 0 60,60 a60,60 0 1 0 -60,-60 z M60,480 a60,60 0 0 0 60,60 a60,60 0 1 0 -60,-60 z M583.636,480 a60,60 0 0 0 60,60 a60,60 0 1 0 -60,-60 z M60,360 a60,60 0 0 0 60,60 a60,60 0 1 0 -60,-60 z M190.909,360 a60,60 0 0 0 60,60 a60,60 0 1 0 -60,-60 z M321.818,360 a60,60 0 0 0 60,60 a60,60 0 1 0 -60,-60 z M452.727,360 a60,60 0 0 0 60,60 a60,60 0 1 0 -60,-60 z M583.636,360 a60,60 0 0 0 60,60 a60,60 0 1 0 -60,-60 z M60,240 a60,60 0 0 0 60,60 a60,60 0 1 0 -60,-60 z M583.636,240 a60,60 0 0 0 60,60 a60,60 0 1 0 -60,-60 z M60,120 a60,60 0 0 0 60,60 a60,60 0 1 0 -60,-60 z M583.636,120 a60,60 0 0 0 60,60 a60,60 0 1 0 -60,-60 z "/>
<glyph glyph-name="Be cyrillic" unicode="&#x0411;" d="M60,840 a60,60 0 0 0 60,60 a60,60 0 1 0 -60,-60 z M190.909,840 a60,60 0 0 0 60,60 a60,60 0 1 0 -60,-60 z M321.818,840 a60,60 0 0 0 60,60 a60,60 0 1 0 -60,-60 z M452.727,840 a60,60 0 0 0 60,60 a60,60 0 1 0 -60,-60 z M583.636,840 a60,60 0 0 0 60,60 a60,60 0 1 0 -60,-60 z M60,720 a60,60 0 0 0 60,60 a60,60 0 1 0 -60,-60 z M60,600 a60,60 0 0 0 60,60 a60,60 0 1 0 -60,-60 z M60,480 a60,60 0 0 0 60,60 a60,60 0 1 0 -60,-60 z M190.909,480 a60,60 0 0 0 60,60 a60,60 0 1 0 -60,-60 z M321.818,480 a60,60 0 0 0 60,60 a60,60 0 1 0 -60,-60 z M452.727,480 a60,60 0 0 0 60,60 a60,60 0 1 0 -60,-60 z M60,360 a60,60 0 0 0 60,60 a60,60 0 1 0 -60,-60 z M583.636,360 a60,60 0 0 0 60,60 a60,60 0 1 0 -60,-60 z M60,240 a60,60 0 0 0 60,60 a60,60 0 1 0 -60,-60 z M583.636,240 a60,60 0 0 0 60,60 a60,60 0 1 0 -60,-60 z M60,120 a60,60 0 0 0 60,60 a60,60 0 1 0 -60,-60 z M190.909,120 a60,60 0 0 0 60,60 a60,60 0 1 0 -60,-60 z M321.818,120 a60,60 0 0 0 60,60 a60,60 0 1 0 -60,-60 z M452.727,120 a60,60 0 0 0 60,60 a60,60 0 1 0 -60,-60 z "/>
<glyph glyph-name="Tse cyrillic" unicode="&#x0426;" d="M60,840 a60,60 0 0 0 60,60 a60,60 0 1 0 -60,-60 z M452.727,840 a60,60 0 0 0 60,60 a60,60 0 1 0 -60,-60 z M60,720 a60,60 0 0 0 60,60 a60,60 0 1 0 -60,-60 z M452.727,720 a60,60 0 0 0 60,60 a60,60 0 1 0 -60,-60 z M60,600 a60,60 0 0 0 60,60 a60,60 0 1 0 -60,-60 z M452.727,600 a60,60 0 0 0 60,60 a60,60 0 1 0 -60,-60 z M60,480 a60,60 0 0 0 60,60 a60,60 0 1 0 -60,-60 z M452.727,480 a60,60 0 0 0 60,60 a60,60 0 1 0 -60,-60 z M60,360 a60,60 0 0 0 60,60 a60,60 0 1 0 -60,-60 z M452.727,360 a60,60 0 0 0 60,60 a60,60 0 1 0 -60,-60 z M60,240 a60,60 0 0 0 60,60 a60,60 0 1 0 -60,-60 z M452.727,240 a60,60 0 0 0 60,60 a60,60 0 1 0 -60,-60 z M60,120 a60,60 0 0 0 60,60 a60,60 0 1 0 -60,-60 z M190.909,120 a60,60 0 0 0 60,60 a60,60 0 1 0 -60,-60 z M321.818,120 a60,60 0 0 0 60,60 a60,60 0 1 0 -60,-60 z M452.727,120 a60,60 0 0 0 60,60 a60,60 0 1 0 -60,-60 z M583.636,120 a60,60 0 0 0 60,60 a60,60 0 1 0 -60,-60 z M583.636,0 a60,60 0 0 0 60,60 a60,60 0 1 0 -60,-60 z "/>
<glyph glyph-name="De cyrillic" unicode="&#x0414;" d="M321.818,840 a60,60 0 0 0 60,60 a60,60 0 1 0 -60,-60 z M452.727,840 a60,60 0 0 0 60,60 a60,60 0 1 0 -60,-60 z M190.909,720 a60,60 0 0 0 60,60 a60,60 0 1 0 -60,-60 z M452.727,720 a60,60 0 0 0 60,60 a60,60 0 1 0 -60,-60 z M125.455,600 a60,60 0 0 0 60,60 a60,60 0 1 0 -60,-60 z M452.727,600 a60,60 0 0 0 60,60 a60,60 0 1 0 -60,-60 z M125.455,480 a60,60 0 0 0 60,60 a60,60 0 1 0 -60,-60 z M452.727,480 a60,60 0 0 0 60,60 a60,60 0 1 0 -60,-60 z M125.455,360 a60,60 0 0 0 60,60 a60,60 0 1 0 -60,-60 z M452.727,360 a60,60 0 0 0 60,60 a60,60 0 1 0 -60,-60 z M125.455,240 a60,60 0 0 0 60,60 a60,60 0 1 0 -60,-60 z M452.727,240 a60,60 0 0 0 60,60 a60,60 0 1 0 -60,-60 z M60,120 a60,60 0 0 0 60,60 a60,60 0 1 0 -60,-60 z M190.909,120 a60,60 0 0 0 60,60 a60,60 0 1 0 -60,-60 z M321.818,120 a60,60 0 0 0 60,60 a60,60 0 1 0 -60,-60 z M452.727,120 a60,60 0 0 0 60,60 a60,60 0 1 0 -60,-60 z M583.636,120 a60,60 0 0 0 60,60 a60,60 0 1 0 -60,-60 z M60,0 a60,60 0 0 0 60,60 a60,60 0 1 0 -60,-60 z M583.636,0 a60,60 0 0 0 60,60 a60,60 0 1 0 -60,-60 z "/>
<glyph glyph-name="Ye cyrillic" unicode="&#x0415;" d="M60,840 a60,60 0 0 0 60,60 a60,60 0 1 0 -60,-60 z M190.909,840 a60,60 0 0 0 60,60 a60,60 0 1 0 -60,-60 z M321.818,840 a60,60 0 0 0 60,60 a60,60 0 1 0 -60,-60 z M452.727,840 a60,60 0 0 0 60,60 a60,60 0 1 0 -60,-60 z M583.636,840 a60,60 0 0 0 60,60 a60,60 0 1 0 -60,-60 z M60,720 a60,60 0 0 0 60,60 a60,60 0 1 0 -60,-60 z M60,600 a60,60 0 0 0 60,60 a60,60 0 1 0 -60,-60 z M60,480 a60,60 0 0 0 60,60 a60,60 0 1 0 -60,-60 z M190.909,480 a60,60 0 0 0 60,60 a60,60 0 1 0 -60,-60 z M321.818,480 a60,60 0 0 0 60,60 a60,60 0 1 0 -60,-60 z M452.727,480 a60,60 0 0 0 60,60 a60,60 0 1 0 -60,-60 z M60,360 a60,60 0 0 0 60,60 a60,60 0 1 0 -60,-60 z M60,240 a60,60 0 0 0 60,60 a60,60 0 1 0 -60,-60 z M60,120 a60,60 0 0 0 60,60 a60,60 0 1 0 -60,-60 z M190.909,120 a60,60 0 0 0 60,60 a60,60 0 1 0 -60,-60 z M321.818,120 a60,60 0 0 0 60,60 a60,60 0 1 0 -60,-60 z M452.727,120 a60,60 0 0 0 60,60 a60,60 0 1 0 -60,-60 z M583.636,120 a60,60 0 0 0 60,60 a60,60 0 1 0 -60,-60 z "/>
<glyph glyph-name="Ef cyrillic" unicode="&#x0424;" d="M321.818,840 a60,60 0 0 0 60,60 a60,60 0 1 0 -60,-60 z M125.455,720 a60,60 0 0 0 60,60 a60,60 0 1 0 -60,-60 z M256.364,720 a60,60 0 0 0 60,60 a60,60 0 1 0 -60,-60 z M387.273,720 a60,60 0 0 0 60,60 a60,60 0 1 0 -60,-60 z M518.182,720 a60,60 0 0 0 60,60 a60,60 0 1 0 -60,-60 z M60,600 a60,60 0 0 0 60,60 a60,60 0 1 0 -60,-60 z M321.818,600 a60,60 0 0 0 60,60 a60,60 0 1 0 -60,-60 z M583.636,600 a60,60 0 0 0 60,60 a60,60 0 1 0 -60,-60 z M60,480 a60,60 0 0 0 60,60 a60,60 0 1 0 -60,-60 z M321.818,480 a60,60 0 0 0 60,60 a60,60 0 1 0 -60,-60 z M583.636,480 a60,60 0 0 0 60,60 a60,60 0 1 0 -60,-60 z M60,360 a60,60 0 0 0 60,60 a60,60 0 1 0 -60,-60 z M321.818,360 a60,60 0 0 0 60,60 a60,60 0 1 0 -60,-60 z M583.636,360 a60,60 0 0 0 60,60 a60,60 0 1 0 -60,-60 z M60,240 a60,60 0 0 0 60,60 a60,60 0 1 0 -60,-60 z M321.818,240 a60,60 0 0 0 60,60 a60,60 0 1 0 -60,-60 z M583.636,240 a60,60 0 0 0 60,60 a60,60 0 1 0 -60,-60 z M125.455,120 a60,60 0 0 0 60,60 a60,60 0 1 0 -60,-60 z M256.364,120 a60,60 0 0 0 60,60 a60,60 0 1 0 -60,-60 z M387.273,120 a60,60 0 0 0 60,60 a60,60 0 1 0 -60,-60 z M518.182,120 a60,60 0 0 0 60,60 a60,60 0 1 0 -60,-60 z M321.818,0 a60,60 0 0 0 60,60 a60,60 0 1 0 -60,-60 z "/>
<glyph glyph-name="Ge cyrillic" unicode="&#x0413;" d="M60,840 a60,60 0 0 0 60,60 a60,60 0 1 0 -60,-60 z M190.909,840 a60,60 0 0 0 60,60 a60,60 0 1 0 -60,-60 z M321.818,840 a60,60 0 0 0 60,60 a60,60 0 1 0 -60,-60 z M452.727,840 a60,60 0 0 0 60,60 a60,60 0 1 0 -60,-60 z M583.636,840 a60,60 0 0 0 60,60 a60,60 0 1 0 -60,-60 z M60,720 a60,60 0 0 0 60,60 a60,60 0 1 0 -60,-60 z M60,600 a60,60 0 0 0 60,60 a60,60 0 1 0 -60,-60 z M60,480 a60,60 0 0 0 60,60 a60,60 0 1 0 -60,-60 z M60,360 a60,60 0 0 0 60,60 a60,60 0 1 0 -60,-60 z M60,240 a60,60 0 0 0 60,60 a60,60 0 1 0 -60,-60 z M60,120 a60,60 0 0 0 60,60 a60,60 0 1 0 -60,-60 z "/>
<glyph glyph-name="Kha cyrillic" unicode="&#x0425;" d="M60,840 a60,60 0 0 0 60,60 a60,60 0 1 0 -60,-60 z M583.636,840 a60,60 0 0 0 60,60 a60,60 0 1 0 -60,-60 z M125.455,720 a60,60 0 0 0 60,60 a60,60 0 1 0 -60,-60 z M518.182,720 a60,60 0 0 0 60,60 a60,60 0 1 0 -60,-60 z M190.909,600 a60,60 0 0 0 60,60 a60,60 0 1 0 -60,-60 z M452.727,600 a60,60 0 0 0 60,60 a60,60 0 1 0 -60,-60 z M321.818,480 a60,60 0 0 0 60,60 a60,60 0 1 0 -60,-60 z M190.909,360 a60,60 0 0 0 60,60 a60,60 0 1 0 -60,-60 z M452.727,360 a60,60 0 0 0 60,60 a60,60 0 1 0 -60,-60 z M125.455,240 a60,60 0 0 0 60,60 a60,60 0 1 0 -60,-60 z M518.182,240 a60,60 0 0 0 60,60 a60,60 0 1 0 -60,-60 z M60,120 a60,60 0 0 0 60,60 a60,60 0 1 0 -60,-60 z M583.636,120 a60,60 0 0 0 60,60 a60,60 0 1 0 -60,-60 z "/>
<glyph glyph-name="I cyrillic" unicode="&#x0418;" d="M60,840 a60,60 0 0 0 60,60 a60,60 0 1 0 -60,-60 z M583.636,840 a60,60 0 0 0 60,60 a60,60 0 1 0 -60,-60 z M60,720 a60,60 0 0 0 60,60 a60,60 0 1 0 -60,-60 z M452.727,720 a60,60 0 0 0 60,60 a60,60 0 1 0 -60,-60 z M583.636,720 a60,60 0 0 0 60,60 a60,60 0 1 0 -60,-60 z M60,600 a60,60 0 0 0 60,60 a60,60 0 1 0 -60,-60 z M387.273,600 a60,60 0 0 0 60,60 a60,60 0 1 0 -60,-60 z M583.636,600 a60,60 0 0 0 60,60 a60,60 0 1 0 -60,-60 z M60,480 a60,60 0 0 0 60,60 a60,60 0 1 0 -60,-60 z M321.818,480 a60,60 0 0 0 60,60 a60,60 0 1 0 -60,-60 z M583.636,480 a60,60 0 0 0 60,60 a60,60 0 1 0 -60,-60 z M60,360 a60,60 0 0 0 60,60 a60,60 0 1 0 -60,-60 z M256.364,360 a60,60 0 0 0 60,60 a60,60 0 1 0 -60,-60 z M583.636,360 a60,60 0 0 0 60,60 a60,60 0 1 0 -60,-60 z M60,240 a60,60 0 0 0 60,60 a60,60 0 1 0 -60,-60 z M190.909,240 a60,60 0 0 0 60,60 a60,60 0 1 0 -60,-60 z M583.636,240 a60,60 0 0 0 60,60 a60,60 0 1 0 -60,-60 z M60,120 a60,60 0 0 0 60,60 a60,60 0 1 0 -60,-60 z M583.636,120 a60,60 0 0 0 60,60 a60,60 0 1 0 -60,-60 z "/>
<glyph glyph-name="Short i cyrillic" unicode="&#x0419;" d="M60,840 a60,60 0 0 0 60,60 a60,60 0 1 0 -60,-60 z M256.364,840 a60,60 0 0 0 60,60 a60,60 0 1 0 -60,-60 z M387.273,840 a60,60 0 0 0 60,60 a60,60 0 1 0 -60,-60 z M583.636,840 a60,60 0 0 0 60,60 a60,60 0 1 0 -60,-60 z M60,720 a60,60 0 0 0 60,60 a60,60 0 1 0 -60,-60 z M452.727,720 a60,60 0 0 0 60,60 a60,60 0 1 0 -60,-60 z M583.636,720 a60,60 0 0 0 60,60 a60,60 0 1 0 -60,-60 z M60,600 a60,60 0 0 0 60,60 a60,60 0 1 0 -60,-60 z M387.273,600 a60,60 0 0 0 60,60 a60,60 0 1 0 -60,-60 z M583.636,600 a60,60 0 0 0 60,60 a60,60 0 1 0 -60,-60 z M60,480 a60,60 0 0 0 60,60 a60,60 0 1 0 -60,-60 z M321.818,480 a60,60 0 0 0 60,60 a60,60 0 1 0 -60,-60 z M583.636,480 a60,60 0 0 0 60,60 a60,60 0 1 0 -60,-60 z M60,360 a60,60 0 0 0 60,60 a60,60 0 1 0 -60,-60 z M256.364,360 a60,60 0 0 0 60,60 a60,60 0 1 0 -60,-60 z M583.636,360 a60,60 0 0 0 60,60 a60,60 0 1 0 -60,-60 z M60,240 a60,60 0 0 0 60,60 a60,60 0 1 0 -60,-60 z M190.909,240 a60,60 0 0 0 60,60 a60,60 0 1 0 -60,-60 z M583.636,240 a60,60 0 0 0 60,60 a60,60 0 1 0 -60,-60 z M60,120 a60,60 0 0 0 60,60 a60,60 0 1 0 -60,-60 z M583.636,120 a60,60 0 0 0 60,60 a60,60 0 1 0 -60,-60 z "/>
<glyph glyph-name="Ka cyrillic" unicode="&#x041A;" d="M60,840 a60,60 0 0 0 60,60 a60,60 0 1 0 -60,-60 z M583.636,840 a60,60 0 0 0 60,60 a60,60 0 1 0 -60,-60 z M60,720 a60,60 0 0 0 60,60 a60,60 0 1 0 -60,-60 z M452.727,720 a60,60 0 0 0 60,60 a60,60 0 1 0 -60,-60 z M60,600 a60,60 0 0 0 60,60 a60,60 0 1 0 -60,-60 z M321.818,600 a60,60 0 0 0 60,60 a60,60 0 1 0 -60,-60 z M60,480 a60,60 0 0 0 60,60 a60,60 0 1 0 -60,-60 z M190.909,480 a60,60 0 0 0 60,60 a60,60 0 1 0 -60,-60 z M60,360 a60,60 0 0 0 60,60 a60,60 0 1 0 -60,-60 z M321.818,360 a60,60 0 0 0 60,60 a60,60 0 1 0 -60,-60 z M60,240 a60,60 0 0 0 60,60 a60,60 0 1 0 -60,-60 z M452.727,240 a60,60 0 0 0 60,60 a60,60 0 1 0 -60,-60 z M60,120 a60,60 0 0 0 60,60 a60,60 0 1 0 -60,-60 z M583.636,120 a60,60 0 0 0 60,60 a60,60 0 1 0 -60,-60 z "/>
<glyph glyph-name="El cyrillic" unicode="&#x041B;" d="M321.818,840 a60,60 0 0 0 60,60 a60,60 0 1 0 -60,-60 z M452.727,840 a60,60 0 0 0 60,60 a60,60 0 1 0 -60,-60 z M583.636,840 a60,60 0 0 0 60,60 a60,60 0 1 0 -60,-60 z M256.364,720 a60,60 0 0 0 60,60 a60,60 0 1 0 -60,-60 z M583.636,720 a60,60 0 0 0 60,60 a60,60 0 1 0 -60,-60 z M256.364,600 a60,60 0 0 0 60,60 a60,60 0 1 0 -60,-60 z M583.636,600 a60,60 0 0 0 60,60 a60,60 0 1 0 -60,-60 z M256.364,480 a60,60 0 0 0 60,60 a60,60 0 1 0 -60,-60 z M583.636,480 a60,60 0 0 0 60,60 a60,60 0 1 0 -60,-60 z M256.364,360 a60,60 0 0 0 60,60 a60,60 0 1 0 -60,-60 z M583.636,360 a60,60 0 0 0 60,60 a60,60 0 1 0 -60,-60 z M256.364,240 a60,60 0 0 0 60,60 a60,60 0 1 0 -60,-60 z M583.636,240 a60,60 0 0 0 60,60 a60,60 0 1 0 -60,-60 z M60,120 a60,60 0 0 0 60,60 a60,60 0 1 0 -60,-60 z M190.909,120 a60,60 0 0 0 60,60 a60,60 0 1 0 -60,-60 z M583.636,120 a60,60 0 0 0 60,60 a60,60 0 1 0 -60,-60 z "/>
<glyph glyph-name="Em cyrillic" unicode="&#x041C;" d="M60,840 a60,60 0 0 0 60,60 a60,60 0 1 0 -60,-60 z M583.636,840 a60,60 0 0 0 60,60 a60,60 0 1 0 -60,-60 z M60,720 a60,60 0 0 0 60,60 a60,60 0 1 0 -60,-60 z M190.909,720 a60,60 0 0 0 60,60 a60,60 0 1 0 -60,-60 z M452.727,720 a60,60 0 0 0 60,60 a60,60 0 1 0 -60,-60 z M583.636,720 a60,60 0 0 0 60,60 a60,60 0 1 0 -60,-60 z M60,600 a60,60 0 0 0 60,60 a60,60 0 1 0 -60,-60 z M256.364,600 a60,60 0 0 0 60,60 a60,60 0 1 0 -60,-60 z M387.273,600 a60,60 0 0 0 60,60 a60,60 0 1 0 -60,-60 z M583.636,600 a60,60 0 0 0 60,60 a60,60 0 1 0 -60,-60 z M60,480 a60,60 0 0 0 60,60 a60,60 0 1 0 -60,-60 z M321.818,480 a60,60 0 0 0 60,60 a60,60 0 1 0 -60,-60 z M583.636,480 a60,60 0 0 0 60,60 a60,60 0 1 0 -60,-60 z M60,360 a60,60 0 0 0 60,60 a60,60 0 1 0 -60,-60 z M583.636,360 a60,60 0 0 0 60,60 a60,60 0 1 0 -60,-60 z M60,240 a60,60 0 0 0 60,60 a60,60 0 1 0 -60,-60 z M583.636,240 a60,60 0 0 0 60,60 a60,60 0 1 0 -60,-60 z M60,120 a60,60 0 0 0 60,60 a60,60 0 1 0 -60,-60 z M583.636,120 a60,60 0 0 0 60,60 a60,60 0 1 0 -60,-60 z "/>
<glyph glyph-name="En cyrillic" unicode="&#x041D;" d="M60,840 a60,60 0 0 0 60,60 a60,60 0 1 0 -60,-60 z M583.636,840 a60,60 0 0 0 60,60 a60,60 0 1 0 -60,-60 z M60,720 a60,60 0 0 0 60,60 a60,60 0 1 0 -60,-60 z M583.636,720 a60,60 0 0 0 60,60 a60,60 0 1 0 -60,-60 z M60,600 a60,60 0 0 0 60,60 a60,60 0 1 0 -60,-60 z M583.636,600 a60,60 0 0 0 60,60 a60,60 0 1 0 -60,-60 z M60,480 a60,60 0 0 0 60,60 a60,60 0 1 0 -60,-60 z M190.909,480 a60,60 0 0 0 60,60 a60,60 0 1 0 -60,-60 z M321.818,480 a60,60 0 0 0 60,60 a60,60 0 1 0 -60,-60 z M452.727,480 a60,60 0 0 0 60,60 a60,60 0 1 0 -60,-60 z M583.636,480 a60,60 0 0 0 60,60 a60,60 0 1 0 -60,-60 z M60,360 a60,60 0 0 0 60,60 a60,60 0 1 0 -60,-60 z M583.636,360 a60,60 0 0 0 60,60 a60,60 0 1 0 -60,-60 z M60,240 a60,60 0 0 0 60,60 a60,60 0 1 0 -60,-60 z M583.636,240 a60,60 0 0 0 60,60 a60,60 0 1 0 -60,-60 z M60,120 a60,60 0 0 0 60,60 a60,60 0 1 0 -60,-60 z M583.636,120 a60,60 0 0 0 60,60 a60,60 0 1 0 -60,-60 z "/>
<glyph glyph-name="O cyrillic" unicode="&#x041E;" d="M125.455,840 a60,60 0 0 0 60,60 a60,60 0 1 0 -60,-60 z M256.364,840 a60,60 0 0 0 60,60 a60,60 0 1 0 -60,-60 z M387.273,840 a60,60 0 0 0 60,60 a60,60 0 1 0 -60,-60 z M518.182,840 a60,60 0 0 0 60,60 a60,60 0 1 0 -60,-60 z M60,720 a60,60 0 0 0 60,60 a60,60 0 1 0 -60,-60 z M583.636,720 a60,60 0 0 0 60,60 a60,60 0 1 0 -60,-60 z M60,600 a60,60 0 0 0 60,60 a60,60 0 1 0 -60,-60 z M583.636,600 a60,60 0 0 0 60,60 a60,60 0 1 0 -60,-60 z M60,480 a60,60 0 0 0 60,60 a60,60 0 1 0 -60,-60 z M583.636,480 a60,60 0 0 0 60,60 a60,60 0 1 0 -60,-60 z M60,360 a60,60 0 0 0 60,60 a60,60 0 1 0 -60,-60 z M583.636,360 a60,60 0 0 0 60,60 a60,60 0 1 0 -60,-60 z M60,240 a60,60 0 0 0 60,60 a60,60 0 1 0 -60,-60 z M583.636,240 a60,60 0 0 0 60,60 a60,60 0 1 0 -60,-60 z M125.455,120 a60,60 0 0 0 60,60 a60,60 0 1 0 -60,-60 z M256.364,120 a60,60 0 0 0 60,60 a60,60 0 1 0 -60,-60 z M387.273,120 a60,60 0 0 0 60,60 a60,60 0 1 0 -60,-60 z M518.182,120 a60,60 0 0 0 60,60 a60,60 0 1 0 -60,-60 z "/>
<glyph glyph-name="Pe cyrillic" unicode="&#x041F;" d="M60,840 a60,60 0 0 0 60,60 a60,60 0 1 0 -60,-60 z M190.909,840 a60,60 0 0 0 60,60 a60,60 0 1 0 -60,-60 z M321.818,840 a60,60 0 0 0 60,60 a60,60 0 1 0 -60,-60 z M452.727,840 a60,60 0 0 0 60,60 a60,60 0 1 0 -60,-60 z M583.636,840 a60,60 0 0 0 60,60 a60,60 0 1 0 -60,-60 z M60,720 a60,60 0 0 0 60,60 a60,60 0 1 0 -60,-60 z M583.636,720 a60,60 0 0 0 60,60 a60,60 0 1 0 -60,-60 z M60,600 a60,60 0 0 0 60,60 a60,60 0 1 0 -60,-60 z M583.636,600 a60,60 0 0 0 60,60 a60,60 0 1 0 -60,-60 z M60,480 a60,60 0 0 0 60,60 a60,60 0 1 0 -60,-60 z M583.636,480 a60,60 0 0 0 60,60 a60,60 0 1 0 -60,-60 z M60,360 a60,60 0 0 0 60,60 a60,60 0 1 0 -60,-60 z M583.636,360 a60,60 0 0 0 60,60 a60,60 0 1 0 -60,-60 z M60,240 a60,60 0 0 0 60,60 a60,60 0 1 0 -60,-60 z M583.636,240 a60,60 0 0 0 60,60 a60,60 0 1 0 -60,-60 z M60,120 a60,60 0 0 0 60,60 a60,60 0 1 0 -60,-60 z M583.636,120 a60,60 0 0 0 60,60 a60,60 0 1 0 -60,-60 z "/>
<glyph glyph-name="Ya cyrillic" unicode="&#x042F;" d="M190.909,840 a60,60 0 0 0 60,60 a60,60 0 1 0 -60,-60 z M321.818,840 a60,60 0 0 0 60,60 a60,60 0 1 0 -60,-60 z M452.727,840 a60,60 0 0 0 60,60 a60,60 0 1 0 -60,-60 z M583.636,840 a60,60 0 0 0 60,60 a60,60 0 1 0 -60,-60 z M60,720 a60,60 0 0 0 60,60 a60,60 0 1 0 -60,-60 z M583.636,720 a60,60 0 0 0 60,60 a60,60 0 1 0 -60,-60 z M60,600 a60,60 0 0 0 60,60 a60,60 0 1 0 -60,-60 z M583.636,600 a60,60 0 0 0 60,60 a60,60 0 1 0 -60,-60 z M190.909,480 a60,60 0 0 0 60,60 a60,60 0 1 0 -60,-60 z M321.818,480 a60,60 0 0 0 60,60 a60,60 0 1 0 -60,-60 z M452.727,480 a60,60 0 0 0 60,60 a60,60 0 1 0 -60,-60 z M583.636,480 a60,60 0 0 0 60,60 a60,60 0 1 0 -60,-60 z M321.818,360 a60,60 0 0 0 60,60 a60,60 0 1 0 -60,-60 z M583.636,360 a60,60 0 0 0 60,60 a60,60 0 1 0 -60,-60 z M256.364,240 a60,60 0 0 0 60,60 a60,60 0 1 0 -60,-60 z M583.636,240 a60,60 0 0 0 60,60 a60,60 0 1 0 -60,-60 z M60,120 a60,60 0 0 0 60,60 a60,60 0 1 0 -60,-60 z M190.909,120 a60,60 0 0 0 60,60 a60,60 0 1 0 -60,-60 z M583.636,120 a60,60 0 0 0 60,60 a60,60 0 1 0 -60,-60 z "/>
<glyph glyph-name="Er cyrillic" unicode="&#x0420;" d="M60,840 a60,60 0 0 0 60,60 a60,60 0 1 0 -60,-60 z M190.909,840 a60,60 0 0 0 60,60 a60,60 0 1 0 -60,-60 z M321.818,840 a60,60 0 0 0 60,60 a60,60 0 1 0 -60,-60 z M452.727,840 a60,60 0 0 0 60,60 a60,60 0 1 0 -60,-60 z M60,720 a60,60 0 0 0 60,60 a60,60 0 1 0 -60,-60 z M583.636,720 a60,60 0 0 0 60,60 a60,60 0 1 0 -60,-60 z M60,600 a60,60 0 0 0 60,60 a60,60 0 1 0 -60,-60 z M583.636,600 a60,60 0 0 0 60,60 a60,60 0 1 0 -60,-60 z M60,480 a60,60 0 0 0 60,60 a60,60 0 1 0 -60,-60 z M190.909,480 a60,60 0 0 0 60,60 a60,60 0 1 0 -60,-60 z M321.818,480 a60,60 0 0 0 60,60 a60,60 0 1 0 -60,-60 z M452.727,480 a60,60 0 0 0 60,60 a60,60 0 1 0 -60,-60 z M60,360 a60,60 0 0 0 60,60 a60,60 0 1 0 -60,-60 z M60,240 a60,60 0 0 0 60,60 a60,60 0 1 0 -60,-60 z M60,120 a60,60 0 0 0 60,60 a60,60 0 1 0 -60,-60 z "/>
<glyph glyph-name="Es cyrillic" unicode="&#x0421;" d="M125.455,840 a60,60 0 0 0 60,60 a60,60 0 1 0 -60,-60 z M256.364,840 a60,60 0 0 0 60,60 a60,60 0 1 0 -60,-60 z M387.273,840 a60,60 0 0 0 60,60 a60,60 0 1 0 -60,-60 z M518.182,840 a60,60 0 0 0 60,60 a60,60 0 1 0 -60,-60 z M60,720 a60,60 0 0 0 60,60 a60,60 0 1 0 -60,-60 z M583.636,720 a60,60 0 0 0 60,60 a60,60 0 1 0 -60,-60 z M60,600 a60,60 0 0 0 60,60 a60,60 0 1 0 -60,-60 z M60,480 a60,60 0 0 0 60,60 a60,60 0 1 0 -60,-60 z M60,360 a60,60 0 0 0 60,60 a60,60 0 1 0 -60,-60 z M60,240 a60,60 0 0 0 60,60 a60,60 0 1 0 -60,-60 z M583.636,240 a60,60 0 0 0 60,60 a60,60 0 1 0 -60,-60 z M125.455,120 a60,60 0 0 0 60,60 a60,60 0 1 0 -60,-60 z M256.364,120 a60,60 0 0 0 60,60 a60,60 0 1 0 -60,-60 z M387.273,120 a60,60 0 0 0 60,60 a60,60 0 1 0 -60,-60 z M518.182,120 a60,60 0 0 0 60,60 a60,60 0 1 0 -60,-60 z "/>
<glyph glyph-name="Te cyrillic" unicode="&#x0422;" d="M60,840 a60,60 0 0 0 60,60 a60,60 0 1 0 -60,-60 z M190.909,840 a60,60 0 0 0 60,60 a60,60 0 1 0 -60,-60 z M321.818,840 a60,60 0 0 0 60,60 a60,60 0 1 0 -60,-60 z M452.727,840 a60,60 0 0 0 60,60 a60,60 0 1 0 -60,-60 z M583.636,840 a60,60 0 0 0 60,60 a60,60 0 1 0 -60,-60 z M321.818,720 a60,60 0 0 0 60,60 a60,60 0 1 0 -60,-60 z M321.818,600 a60,60 0 0 0 60,60 a60,60 0 1 0 -60,-60 z M321.818,480 a60,60 0 0 0 60,60 a60,60 0 1 0 -60,-60 z M321.818,360 a60,60 0 0 0 60,60 a60,60 0 1 0 -60,-60 z M321.818,240 a60,60 0 0 0 60,60 a60,60 0 1 0 -60,-60 z M321.818,120 a60,60 0 0 0 60,60 a60,60 0 1 0 -60,-60 z "/>
<glyph glyph-name="U cyrillic" unicode="&#x0423;" d="M60,840 a60,60 0 0 0 60,60 a60,60 0 1 0 -60,-60 z M583.636,840 a60,60 0 0 0 60,60 a60,60 0 1 0 -60,-60 z M125.455,720 a60,60 0 0 0 60,60 a60,60 0 1 0 -60,-60 z M518.182,720 a60,60 0 0 0 60,60 a60,60 0 1 0 -60,-60 z M190.909,600 a60,60 0 0 0 60,60 a60,60 0 1 0 -60,-60 z M452.727,600 a60,60 0 0 0 60,60 a60,60 0 1 0 -60,-60 z M256.364,480 a60,60 0 0 0 60,60 a60,60 0 1 0 -60,-60 z M387.273,480 a60,60 0 0 0 60,60 a60,60 0 1 0 -60,-60 z M321.818,360 a60,60 0 0 0 60,60 a60,60 0 1 0 -60,-60 z M256.364,240 a60,60 0 0 0 60,60 a60,60 0 1 0 -60,-60 z M60,120 a60,60 0 0 0 60,60 a60,60 0 1 0 -60,-60 z M190.909,120 a60,60 0 0 0 60,60 a60,60 0 1 0 -60,-60 z "/>
<glyph glyph-name="Zhe cyrillic" unicode="&#x0416;" d="M60,840 a60,60 0 0 0 60,60 a60,60 0 1 0 -60,-60 z M321.818,840 a60,60 0 0 0 60,60 a60,60 0 1 0 -60,-60 z M583.636,840 a60,60 0 0 0 60,60 a60,60 0 1 0 -60,-60 z M125.455,720 a60,60 0 0 0 60,60 a60,60 0 1 0 -60,-60 z M321.818,720 a60,60 0 0 0 60,60 a60,60 0 1 0 -60,-60 z M518.182,720 a60,60 0 0 0 60,60 a60,60 0 1 0 -60,-60 z M190.909,600 a60,60 0 0 0 60,60 a60,60 0 1 0 -60,-60 z M321.818,600 a60,60 0 0 0 60,60 a60,60 0 1 0 -60,-60 z M452.727,600 a60,60 0 0 0 60,60 a60,60 0 1 0 -60,-60 z M190.909,480 a60,60 0 0 0 60,60 a60,60 0 1 0 -60,-60 z M321.818,480 a60,60 0 0 0 60,60 a60,60 0 1 0 -60,-60 z M452.727,480 a60,60 0 0 0 60,60 a60,60 0 1 0 -60,-60 z M190.909,360 a60,60 0 0 0 60,60 a60,60 0 1 0 -60,-60 z M321.818,360 a60,60 0 0 0 60,60 a60,60 0 1 0 -60,-60 z M452.727,360 a60,60 0 0 0 60,60 a60,60 0 1 0 -60,-60 z M125.455,240 a60,60 0 0 0 60,60 a60,60 0 1 0 -60,-60 z M321.818,240 a60,60 0 0 0 60,60 a60,60 0 1 0 -60,-60 z M518.182,240 a60,60 0 0 0 60,60 a60,60 0 1 0 -60,-60 z M60,120 a60,60 0 0 0 60,60 a60,60 0 1 0 -60,-60 z M321.818,120 a60,60 0 0 0 60,60 a60,60 0 1 0 -60,-60 z M583.636,120 a60,60 0 0 0 60,60 a60,60 0 1 0 -60,-60 z "/>
<glyph glyph-name="Ve cyrillic" unicode="&#x0412;" d="M60,840 a60,60 0 0 0 60,60 a60,60 0 1 0 -60,-60 z M190.909,840 a60,60 0 0 0 60,60 a60,60 0 1 0 -60,-60 z M321.818,840 a60,60 0 0 0 60,60 a60,60 0 1 0 -60,-60 z M452.727,840 a60,60 0 0 0 60,60 a60,60 0 1 0 -60,-60 z M60,720 a60,60 0 0 0 60,60 a60,60 0 1 0 -60,-60 z M583.636,720 a60,60 0 0 0 60,60 a60,60 0 1 0 -60,-60 z M60,600 a60,60 0 0 0 60,60 a60,60 0 1 0 -60,-60 z M583.636,600 a60,60 0 0 0 60,60 a60,60 0 1 0 -60,-60 z M60,480 a60,60 0 0 0 60,60 a60,60 0 1 0 -60,-60 z M190.909,480 a60,60 0 0 0 60,60 a60,60 0 1 0 -60,-60 z M321.818,480 a60,60 0 0 0 60,60 a60,60 0 1 0 -60,-60 z M452.727,480 a60,60 0 0 0 60,60 a60,60 0 1 0 -60,-60 z M60,360 a60,60 0 0 0 60,60 a60,60 0 1 0 -60,-60 z M583.636,360 a60,60 0 0 0 60,60 a60,60 0 1 0 -60,-60 z M60,240 a60,60 0 0 0 60,60 a60,60 0 1 0 -60,-60 z M583.636,240 a60,60 0 0 0 60,60 a60,60 0 1 0 -60,-60 z M60,120 a60,60 0 0 0 60,60 a60,60 0 1 0 -60,-60 z M190.909,120 a60,60 0 0 0 60,60 a60,60 0 1 0 -60,-60 z M321.818,120 a60,60 0 0 0 60,60 a60,60 0 1 0 -60,-60 z M452.727,120 a60,60 0 0 0 60,60 a60,60 0 1 0 -60,-60 z "/>
<glyph glyph-name="Soft sign cyrillic" unicode="&#x042C;" d="M60,840 a60,60 0 0 0 60,60 a60,60 0 1 0 -60,-60 z M60,720 a60,60 0 0 0 60,60 a60,60 0 1 0 -60,-60 z M60,600 a60,60 0 0 0 60,60 a60,60 0 1 0 -60,-60 z M60,480 a60,60 0 0 0 60,60 a60,60 0 1 0 -60,-60 z M190.909,480 a60,60 0 0 0 60,60 a60,60 0 1 0 -60,-60 z M321.818,480 a60,60 0 0 0 60,60 a60,60 0 1 0 -60,-60 z M452.727,480 a60,60 0 0 0 60,60 a60,60 0 1 0 -60,-60 z M60,360 a60,60 0 0 0 60,60 a60,60 0 1 0 -60,-60 z M583.636,360 a60,60 0 0 0 60,60 a60,60 0 1 0 -60,-60 z M60,240 a60,60 0 0 0 60,60 a60,60 0 1 0 -60,-60 z M583.636,240 a60,60 0 0 0 60,60 a60,60 0 1 0 -60,-60 z M60,120 a60,60 0 0 0 60,60 a60,60 0 1 0 -60,-60 z M190.909,120 a60,60 0 0 0 60,60 a60,60 0 1 0 -60,-60 z M321.818,120 a60,60 0 0 0 60,60 a60,60 0 1 0 -60,-60 z M452.727,120 a60,60 0 0 0 60,60 a60,60 0 1 0 -60,-60 z "/>
<glyph glyph-name="Yery cyrillic" unicode="&#x042B;" d="M60,840 a60,60 0 0 0 60,60 a60,60 0 1 0 -60,-60 z M583.636,840 a60,60 0 0 0 60,60 a60,60 0 1 0 -60,-60 z M60,720 a60,60 0 0 0 60,60 a60,60 0 1 0 -60,-60 z M583.636,720 a60,60 0 0 0 60,60 a60,60 0 1 0 -60,-60 z M60,600 a60,60 0 0 0 60,60 a60,60 0 1 0 -60,-60 z M583.636,600 a60,60 0 0 0 60,60 a60,60 0 1 0 -60,-60 z M60,480 a60,60 0 0 0 60,60 a60,60 0 1 0 -60,-60 z M190.909,480 a60,60 0 0 0 60,60 a60,60 0 1 0 -60,-60 z M321.818,480 a60,60 0 0 0 60,60 a60,60 0 1 0 -60,-60 z M583.636,480 a60,60 0 0 0 60,60 a60,60 0 1 0 -60,-60 z M60,360 a60,60 0 0 0 60,60 a60,60 0 1 0 -60,-60 z M387.273,360 a60,60 0 0 0 60,60 a60,60 0 1 0 -60,-60 z M583.636,360 a60,60 0 0 0 60,60 a60,60 0 1 0 -60,-60 z M60,240 a60,60 0 0 0 60,60 a60,60 0 1 0 -60,-60 z M387.273,240 a60,60 0 0 0 60,60 a60,60 0 1 0 -60,-60 z M583.636,240 a60,60 0 0 0 60,60 a60,60 0 1 0 -60,-60 z M60,120 a60,60 0 0 0 60,60 a60,60 0 1 0 -60,-60 z M190.909,120 a60,60 0 0 0 60,60 a60,60 0 1 0 -60,-60 z M321.818,120 a60,60 0 0 0 60,60 a60,60 0 1 0 -60,-60 z M583.636,120 a60,60 0 0 0 60,60 a60,60 0 1 0 -60,-60 z "/>
<glyph glyph-name="Ze cyrillic" unicode="&#x0417;" d="M125.455,840 a60,60 0 0 0 60,60 a60,60 0 1 0 -60,-60 z M256.364,840 a60,60 0 0 0 60,60 a60,60 0 1 0 -60,-60 z M387.273,840 a60,60 0 0 0 60,60 a60,60 0 1 0 -60,-60 z M518.182,840 a60,60 0 0 0 60,60 a60,60 0 1 0 -60,-60 z M60,720 a60,60 0 0 0 60,60 a60,60 0 1 0 -60,-60 z M583.636,720 a60,60 0 0 0 60,60 a60,60 0 1 0 -60,-60 z M583.636,600 a60,60 0 0 0 60,60 a60,60 0 1 0 -60,-60 z M256.364,480 a60,60 0 0 0 60,60 a60,60 0 1 0 -60,-60 z M387.273,480 a60,60 0 0 0 60,60 a60,60 0 1 0 -60,-60 z M518.182,480 a60,60 0 0 0 60,60 a60,60 0 1 0 -60,-60 z M583.636,360 a60,60 0 0 0 60,60 a60,60 0 1 0 -60,-60 z M60,240 a60,60 0 0 0 60,60 a60,60 0 1 0 -60,-60 z M583.636,240 a60,60 0 0 0 60,60 a60,60 0 1 0 -60,-60 z M125.455,120 a60,60 0 0 0 60,60 a60,60 0 1 0 -60,-60 z M256.364,120 a60,60 0 0 0 60,60 a60,60 0 1 0 -60,-60 z M387.273,120 a60,60 0 0 0 60,60 a60,60 0 1 0 -60,-60 z M518.182,120 a60,60 0 0 0 60,60 a60,60 0 1 0 -60,-60 z "/>
<glyph glyph-name="Sha cyrillic" unicode="&#x0428;" d="M60,840 a60,60 0 0 0 60,60 a60,60 0 1 0 -60,-60 z M321.818,840 a60,60 0 0 0 60,60 a60,60 0 1 0 -60,-60 z M583.636,840 a60,60 0 0 0 60,60 a60,60 0 1 0 -60,-60 z M60,720 a60,60 0 0 0 60,60 a60,60 0 1 0 -60,-60 z M321.818,720 a60,60 0 0 0 60,60 a60,60 0 1 0 -60,-60 z M583.636,720 a60,60 0 0 0 60,60 a60,60 0 1 0 -60,-60 z M60,600 a60,60 0 0 0 60,60 a60,60 0 1 0 -60,-60 z M321.818,600 a60,60 0 0 0 60,60 a60,60 0 1 0 -60,-60 z M583.636,600 a60,60 0 0 0 60,60 a60,60 0 1 0 -60,-60 z M60,480 a60,60 0 0 0 60,60 a60,60 0 1 0 -60,-60 z M321.818,480 a60,60 0 0 0 60,60 a60,60 0 1 0 -60,-60 z M583.636,480 a60,60 0 0 0 60,60 a60,60 0 1 0 -60,-60 z M60,360 a60,60 0 0 0 60,60 a60,60 0 1 0 -60,-60 z M321.818,360 a60,60 0 0 0 60,60 a60,60 0 1 0 -60,-60 z M583.636,360 a60,60 0 0 0 60,60 a60,60 0 1 0 -60,-60 z M60,240 a60,60 0 0 0 60,60 a60,60 0 1 0 -60,-60 z M321.818,240 a60,60 0 0 0 60,60 a60,60 0 1 0 -60,-60 z M583.636,240 a60,60 0 0 0 60,60 a60,60 0 1 0 -60,-60 z M60,120 a60,60 0 0 0 60,60 a60,60 0 1 0 -60,-60 z M190.909,120 a60,60 0 0 0 60,60 a60,60 0 1 0 -60,-60 z M321.818,120 a60,60 0 0 0 60,60 a60,60 0 1 0 -60,-60 z M452.727,120 a60,60 0 0 0 60,60 a60,60 0 1 0 -60,-60 z M583.636,120 a60,60 0 0 0 60,60 a60,60 0 1 0 -60,-60 z "/>
<glyph glyph-name="E cyrillic" unicode="&#x042D;" d="M60,840 a60,60 0 0 0 60,60 a60,60 0 1 0 -60,-60 z M190.909,840 a60,60 0 0 0 60,60 a60,60 0 1 0 -60,-60 z M321.818,840 a60,60 0 0 0 60,60 a60,60 0 1 0 -60,-60 z M452.727,720 a60,60 0 0 0 60,60 a60,60 0 1 0 -60,-60 z M518.182,600 a60,60 0 0 0 60,60 a60,60 0 1 0 -60,-60 z M190.909,480 a60,60 0 0 0 60,60 a60,60 0 1 0 -60,-60 z M321.818,480 a60,60 0 0 0 60,60 a60,60 0 1 0 -60,-60 z M452.727,480 a60,60 0 0 0 60,60 a60,60 0 1 0 -60,-60 z M583.636,480 a60,60 0 0 0 60,60 a60,60 0 1 0 -60,-60 z M518.182,360 a60,60 0 0 0 60,60 a60,60 0 1 0 -60,-60 z M452.727,240 a60,60 0 0 0 60,60 a60,60 0 1 0 -60,-60 z M60,120 a60,60 0 0 0 60,60 a60,60 0 1 0 -60,-60 z M190.909,120 a60,60 0 0 0 60,60 a60,60 0 1 0 -60,-60 z M321.818,120 a60,60 0 0 0 60,60 a60,60 0 1 0 -60,-60 z "/>
<glyph glyph-name="Shcha cyrillic" unicode="&#x0429;" d="M60,840 a60,60 0 0 0 60,60 a60,60 0 1 0 -60,-60 z M321.818,840 a60,60 0 0 0 60,60 a60,60 0 1 0 -60,-60 z M583.636,840 a60,60 0 0 0 60,60 a60,60 0 1 0 -60,-60 z M60,720 a60,60 0 0 0 60,60 a60,60 0 1 0 -60,-60 z M321.818,720 a60,60 0 0 0 60,60 a60,60 0 1 0 -60,-60 z M583.636,720 a60,60 0 0 0 60,60 a60,60 0 1 0 -60,-60 z M60,600 a60,60 0 0 0 60,60 a60,60 0 1 0 -60,-60 z M321.818,600 a60,60 0 0 0 60,60 a60,60 0 1 0 -60,-60 z M583.636,600 a60,60 0 0 0 60,60 a60,60 0 1 0 -60,-60 z M60,480 a60,60 0 0 0 60,60 a60,60 0 1 0 -60,-60 z M321.818,480 a60,60 0 0 0 60,60 a60,60 0 1 0 -60,-60 z M583.636,480 a60,60 0 0 0 60,60 a60,60 0 1 0 -60,-60 z M60,360 a60,60 0 0 0 60,60 a60,60 0 1 0 -60,-60 z M321.818,360 a60,60 0 0 0 60,60 a60,60 0 1 0 -60,-60 z M583.636,360 a60,60 0 0 0 60,60 a60,60 0 1 0 -60,-60 z M60,240 a60,60 0 0 0 60,60 a60,60 0 1 0 -60,-60 z M321.818,240 a60,60 0 0 0 60,60 a60,60 0 1 0 -60,-60 z M583.636,240 a60,60 0 0 0 60,60 a60,60 0 1 0 -60,-60 z M60,120 a60,60 0 0 0 60,60 a60,60 0 1 0 -60,-60 z M190.909,120 a60,60 0 0 0 60,60 a60,60 0 1 0 -60,-60 z M321.818,120 a60,60 0 0 0 60,60 a60,60 0 1 0 -60,-60 z M452.727,120 a60,60 0 0 0 60,60 a60,60 0 1 0 -60,-60 z M583.636,120 a60,60 0 0 0 60,60 a60,60 0 1 0 -60,-60 z M583.636,0 a60,60 0 0 0 60,60 a60,60 0 1 0 -60,-60 z "/>
<glyph glyph-name="Che cyrillic" unicode="&#x0427;" d="M60,840 a60,60 0 0 0 60,60 a60,60 0 1 0 -60,-60 z M583.636,840 a60,60 0 0 0 60,60 a60,60 0 1 0 -60,-60 z M60,720 a60,60 0 0 0 60,60 a60,60 0 1 0 -60,-60 z M583.636,720 a60,60 0 0 0 60,60 a60,60 0 1 0 -60,-60 z M60,600 a60,60 0 0 0 60,60 a60,60 0 1 0 -60,-60 z M583.636,600 a60,60 0 0 0 60,60 a60,60 0 1 0 -60,-60 z M190.909,480 a60,60 0 0 0 60,60 a60,60 0 1 0 -60,-60 z M321.818,480 a60,60 0 0 0 60,60 a60,60 0 1 0 -60,-60 z M452.727,480 a60,60 0 0 0 60,60 a60,60 0 1 0 -60,-60 z M583.636,480 a60,60 0 0 0 60,60 a60,60 0 1 0 -60,-60 z M583.636,360 a60,60 0 0 0 60,60 a60,60 0 1 0 -60,-60 z M583.636,240 a60,60 0 0 0 60,60 a60,60 0 1 0 -60,-60 z M583.636,120 a60,60 0 0 0 60,60 a60,60 0 1 0 -60,-60 z "/>
<glyph glyph-name="inverted !" unicode="&#161;" d="M321.818,720 a60,60 0 0 0 60,60 a60,60 0 1 0 -60,-60 z M321.818,360 a60,60 0 0 0 60,60 a60,60 0 1 0 -60,-60 z M321.818,240 a60,60 0 0 0 60,60 a60,60 0 1 0 -60,-60 z M321.818,120 a60,60 0 0 0 60,60 a60,60 0 1 0 -60,-60 z M321.818,0 a60,60 0 0 0 60,60 a60,60 0 1 0 -60,-60 z "/>
<glyph glyph-name="pound sign" unicode="&#163;" d="M256.364,840 a60,60 0 0 0 60,60 a60,60 0 1 0 -60,-60 z M387.273,840 a60,60 0 0 0 60,60 a60,60 0 1 0 -60,-60 z M518.182,840 a60,60 0 0 0 60,60 a60,60 0 1 0 -60,-60 z M190.909,720 a60,60 0 0 0 60,60 a60,60 0 1 0 -60,-60 z M583.636,720 a60,60 0 0 0 60,60 a60,60 0 1 0 -60,-60 z M190.909,600 a60,60 0 0 0 60,60 a60,60 0 1 0 -60,-60 z M60,480 a60,60 0 0 0 60,60 a60,60 0 1 0 -60,-60 z M190.909,480 a60,60 0 0 0 60,60 a60,60 0 1 0 -60,-60 z M321.818,480 a60,60 0 0 0 60,60 a60,60 0 1 0 -60,-60 z M190.909,360 a60,60 0 0 0 60,60 a60,60 0 1 0 -60,-60 z M190.909,240 a60,60 0 0 0 60,60 a60,60 0 1 0 -60,-60 z M60,120 a60,60 0 0 0 60,60 a60,60 0 1 0 -60,-60 z M190.909,120 a60,60 0 0 0 60,60 a60,60 0 1 0 -60,-60 z M321.818,120 a60,60 0 0 0 60,60 a60,60 0 1 0 -60,-60 z M452.727,120 a60,60 0 0 0 60,60 a60,60 0 1 0 -60,-60 z M583.636,120 a60,60 0 0 0 60,60 a60,60 0 1 0 -60,-60 z "/>
<glyph glyph-name="currency sign" unicode="&#164;" d="M60,840 a60,60 0 0 0 60,60 a60,60 0 1 0 -60,-60 z M583.636,840 a60,60 0 0 0 60,60 a60,60 0 1 0 -60,-60 z M190.909,720 a60,60 0 0 0 60,60 a60,60 0 1 0 -60,-60 z M321.818,720 a60,60 0 0 0 60,60 a60,60 0 1 0 -60,-60 z M452.727,720 a60,60 0 0 0 60,60 a60,60 0 1 0 -60,-60 z M125.455,600 a60,60 0 0 0 60,60 a60,60 0 1 0 -60,-60 z M518.182,600 a60,60 0 0 0 60,60 a60,60 0 1 0 -60,-60 z M60,480 a60,60 0 0 0 60,60 a60,60 0 1 0 -60,-60 z M583.636,480 a60,60 0 0 0 60,60 a60,60 0 1 0 -60,-60 z M125.455,360 a60,60 0 0 0 60,60 a60,60 0 1 0 -60,-60 z M518.182,360 a60,60 0 0 0 60,60 a60,60 0 1 0 -60,-60 z M190.909,240 a60,60 0 0 0 60,60 a60,60 0 1 0 -60,-60 z M321.818,240 a60,60 0 0 0 60,60 a60,60 0 1 0 -60,-60 z M452.727,240 a60,60 0 0 0 60,60 a60,60 0 1 0 -60,-60 z M60,120 a60,60 0 0 0 60,60 a60,60 0 1 0 -60,-60 z M583.636,120 a60,60 0 0 0 60,60 a60,60 0 1 0 -60,-60 z "/>
<glyph glyph-name="yen sign" unicode="&#165;" d="M60,840 a60,60 0 0 0 60,60 a60,60 0 1 0 -60,-60 z M583.636,840 a60,60 0 0 0 60,60 a60,60 0 1 0 -60,-60 z M190.909,720 a60,60 0 0 0 60,60 a60,60 0 1 0 -60,-60 z M452.727,720 a60,60 0 0 0 60,60 a60,60 0 1 0 -60,-60 z M60,600 a60,60 0 0 0 60,60 a60,60 0 1 0 -60,-60 z M190.909,600 a60,60 0 0 0 60,60 a60,60 0 1 0 -60,-60 z M321.818,600 a60,60 0 0 0 60,60 a60,60 0 1 0 -60,-60 z M452.727,600 a60,60 0 0 0 60,60 a60,60 0 1 0 -60,-60 z M583.636,600 a60,60 0 0 0 60,60 a60,60 0 1 0 -60,-60 z M321.818,480 a60,60 0 0 0 60,60 a60,60 0 1 0 -60,-60 z M60,360 a60,60 0 0 0 60,60 a60,60 0 1 0 -60,-60 z M190.909,360 a60,60 0 0 0 60,60 a60,60 0 1 0 -60,-60 z M321.818,360 a60,60 0 0 0 60,60 a60,60 0 1 0 -60,-60 z M452.727,360 a60,60 0 0 0 60,60 a60,60 0 1 0 -60,-60 z M583.636,360 a60,60 0 0 0 60,60 a60,60 0 1 0 -60,-60 z M321.818,240 a60,60 0 0 0 60,60 a60,60 0 1 0 -60,-60 z M321.818,120 a60,60 0 0 0 60,60 a60,60 0 1 0 -60,-60 z "/>
<glyph glyph-name="broken bar" unicode="&#166;" d="M321.818,840 a60,60 0 0 0 60,60 a60,60 0 1 0 -60,-60 z M321.818,720 a60,60 0 0 0 60,60 a60,60 0 1 0 -60,-60 z M321.818,600 a60,60 0 0 0 60,60 a60,60 0 1 0 -60,-60 z M321.818,360 a60,60 0 0 0 60,60 a60,60 0 1 0 -60,-60 z M321.818,240 a60,60 0 0 0 60,60 a60,60 0 1 0 -60,-60 z M321.818,120 a60,60 0 0 0 60,60 a60,60 0 1 0 -60,-60 z "/>
<glyph glyph-name="section" unicode="&#167;" d="M190.909,840 a60,60 0 0 0 60,60 a60,60 0 1 0 -60,-60 z M321.818,840 a60,60 0 0 0 60,60 a60,60 0 1 0 -60,-60 z M452.727,840 a60,60 0 0 0 60,60 a60,60 0 1 0 -60,-60 z M125.455,720 a60,60 0 0 0 60,60 a60,60 0 1 0 -60,-60 z M190.909,600 a60,60 0 0 0 60,60 a60,60 0 1 0 -60,-60 z M321.818,600 a60,60 0 0 0 60,60 a60,60 0 1 0 -60,-60 z M452.727,600 a60,60 0 0 0 60,60 a60,60 0 1 0 -60,-60 z M125.455,480 a60,60 0 0 0 60,60 a60,60 0 1 0 -60,-60 z M518.182,480 a60,60 0 0 0 60,60 a60,60 0 1 0 -60,-60 z M190.909,360 a60,60 0 0 0 60,60 a60,60 0 1 0 -60,-60 z M321.818,360 a60,60 0 0 0 60,60 a60,60 0 1 0 -60,-60 z M452.727,360 a60,60 0 0 0 60,60 a60,60 0 1 0 -60,-60 z M518.182,240 a60,60 0 0 0 60,60 a60,60 0 1 0 -60,-60 z M190.909,120 a60,60 0 0 0 60,60 a60,60 0 1 0 -60,-60 z M321.818,120 a60,60 0 0 0 60,60 a60,60 0 1 0 -60,-60 z M452.727,120 a60,60 0 0 0 60,60 a60,60 0 1 0 -60,-60 z "/>
<glyph glyph-name="left guillemet" unicode="&#171;" d="M321.818,720 a60,60 0 0 0 60,60 a60,60 0 1 0 -60,-60 z M518.182,720 a60,60 0 0 0 60,60 a60,60 0 1 0 -60,-60 z M256.364,600 a60,60 0 0 0 60,60 a60,60 0 1 0 -60,-60 z M452.727,600 a60,60 0 0 0 60,60 a60,60 0 1 0 -60,-60 z M190.909,480 a60,60 0 0 0 60,60 a60,60 0 1 0 -60,-60 z M387.273,480 a60,60 0 0 0 60,60 a60,60 0 1 0 -60,-60 z M256.364,360 a60,60 0 0 0 60,60 a60,60 0 1 0 -60,-60 z M452.727,360 a60,60 0 0 0 60,60 a60,60 0 1 0 -60,-60 z M321.818,240 a60,60 0 0 0 60,60 a60,60 0 1 0 -60,-60 z M518.182,240 a60,60 0 0 0 60,60 a60,60 0 1 0 -60,-60 z "/>
<glyph glyph-name="macron" unicode="&#175;" d="M60,840 a60,60 0 0 0 60,60 a60,60 0 1 0 -60,-60 z M190.909,840 a60,60 0 0 0 60,60 a60,60 0 1 0 -60,-60 z M321.818,840 a60,60 0 0 0 60,60 a60,60 0 1 0 -60,-60 z M452.727,840 a60,60 0 0 0 60,60 a60,60 0 1 0 -60,-60 z M583.636,840 a60,60 0 0 0 60,60 a60,60 0 1 0 -60,-60 z "/>
<glyph glyph-name="degree" unicode="&#176;" d="M256.364,840 a60,60 0 0 0 60,60 a60,60 0 1 0 -60,-60 z M387.273,840 a60,60 0 0 0 60,60 a60,60 0 1 0 -60,-60 z M190.909,720 a60,60 0 0 0 60,60 a60,60 0 1 0 -60,-60 z M452.727,720 a60,60 0 0 0 60,60 a60,60 0 1 0 -60,-60 z M256.364,600 a60,60 0 0 0 60,60 a60,60 0 1 0 -60,-60 z M387.273,600 a60,60 0 0 0 60,60 a60,60 0 1 0 -60,-60 z "/>
<glyph glyph-name="plus-minus" unicode="&#177;" d="M321.818,720 a60,60 0 0 0 60,60 a60,60 0 1 0 -60,-60 z M321.818,600 a60,60 0 0 0 60,60 a60,60 0 1 0 -60,-60 z M60,480 a60,60 0 0 0 60,60 a60,60 0 1 0 -60,-60 z M190.909,480 a60,60 0 0 0 60,60 a60,60 0 1 0 -60,-60 z M321.818,480 a60,60 0 0 0 60,60 a60,60 0 1 0 -60,-60 z M452.727,480 a60,60 0 0 0 60,60 a60,60 0 1 0 -60,-60 z M583.636,480 a60,60 0 0 0 60,60 a60,60 0 1 0 -60,-60 z M321.818,360 a60,60 0 0 0 60,60 a60,60 0 1 0 -60,-60 z M321.818,240 a60,60 0 0 0 60,60 a60,60 0 1 0 -60,-60 z M60,120 a60,60 0 0 0 60,60 a60,60 0 1 0 -60,-60 z M190.909,120 a60,60 0 0 0 60,60 a60,60 0 1 0 -60,-60 z M321.818,120 a60,60 0 0 0 60,60 a60,60 0 1 0 -60,-60 z M452.727,120 a60,60 0 0 0 60,60 a60,60 0 1 0 -60,-60 z M583.636,120 a60,60 0 0 0 60,60 a60,60 0 1 0 -60,-60 z "/>
<glyph glyph-name="acute accent" unicode="&#180;" d="M387.273,840 a60,60 0 0 0 60,60 a60,60 0 1 0 -60,-60 z M321.818,720 a60,60 0 0 0 60,60 a60,60 0 1 0 -60,-60 z "/>
<glyph glyph-name="interpunkt" unicode="&#183;" d="M256.364,480 a60,60 0 0 0 60,60 a60,60 0 1 0 -60,-60 z M387.273,480 a60,60 0 0 0 60,60 a60,60 0 1 0 -60,-60 z M256.364,360 a60,60 0 0 0 60,60 a60,60 0 1 0 -60,-60 z M387.273,360 a60,60 0 0 0 60,60 a60,60 0 1 0 -60,-60 z "/>
<glyph glyph-name="right guillemet" unicode="&#187;" d="M125.455,720 a60,60 0 0 0 60,60 a60,60 0 1 0 -60,-60 z M321.818,720 a60,60 0 0 0 60,60 a60,60 0 1 0 -60,-60 z M190.909,600 a60,60 0 0 0 60,60 a60,60 0 1 0 -60,-60 z M387.273,600 a60,60 0 0 0 60,60 a60,60 0 1 0 -60,-60 z M256.364,480 a60,60 0 0 0 60,60 a60,60 0 1 0 -60,-60 z M452.727,480 a60,60 0 0 0 60,60 a60,60 0 1 0 -60,-60 z M190.909,360 a60,60 0 0 0 60,60 a60,60 0 1 0 -60,-60 z M387.273,360 a60,60 0 0 0 60,60 a60,60 0 1 0 -60,-60 z M125.455,240 a60,60 0 0 0 60,60 a60,60 0 1 0 -60,-60 z M321.818,240 a60,60 0 0 0 60,60 a60,60 0 1 0 -60,-60 z "/>
<glyph glyph-name="inverted ?" unicode="&#191;" d="M321.818,840 a60,60 0 0 0 60,60 a60,60 0 1 0 -60,-60 z M321.818,600 a60,60 0 0 0 60,60 a60,60 0 1 0 -60,-60 z M190.909,480 a60,60 0 0 0 60,60 a60,60 0 1 0 -60,-60 z M60,360 a60,60 0 0 0 60,60 a60,60 0 1 0 -60,-60 z M60,240 a60,60 0 0 0 60,60 a60,60 0 1 0 -60,-60 z M583.636,240 a60,60 0 0 0 60,60 a60,60 0 1 0 -60,-60 z M125.455,120 a60,60 0 0 0 60,60 a60,60 0 1 0 -60,-60 z M256.364,120 a60,60 0 0 0 60,60 a60,60 0 1 0 -60,-60 z M387.273,120 a60,60 0 0 0 60,60 a60,60 0 1 0 -60,-60 z M518.182,120 a60,60 0 0 0 60,60 a60,60 0 1 0 -60,-60 z "/>
<glyph glyph-name="A-umlaut" unicode="&#196;" d="M125.455,840 a60,60 0 0 0 60,60 a60,60 0 1 0 -60,-60 z M518.182,840 a60,60 0 0 0 60,60 a60,60 0 1 0 -60,-60 z M321.818,720 a60,60 0 0 0 60,60 a60,60 0 1 0 -60,-60 z M256.364,600 a60,60 0 0 0 60,60 a60,60 0 1 0 -60,-60 z M387.273,600 a60,60 0 0 0 60,60 a60,60 0 1 0 -60,-60 z M190.909,480 a60,60 0 0 0 60,60 a60,60 0 1 0 -60,-60 z M452.727,480 a60,60 0 0 0 60,60 a60,60 0 1 0 -60,-60 z M125.455,360 a60,60 0 0 0 60,60 a60,60 0 1 0 -60,-60 z M518.182,360 a60,60 0 0 0 60,60 a60,60 0 1 0 -60,-60 z M60,240 a60,60 0 0 0 60,60 a60,60 0 1 0 -60,-60 z M190.909,240 a60,60 0 0 0 60,60 a60,60 0 1 0 -60,-60 z M321.818,240 a60,60 0 0 0 60,60 a60,60 0 1 0 -60,-60 z M452.727,240 a60,60 0 0 0 60,60 a60,60 0 1 0 -60,-60 z M583.636,240 a60,60 0 0 0 60,60 a60,60 0 1 0 -60,-60 z M60,120 a60,60 0 0 0 60,60 a60,60 0 1 0 -60,-60 z M583.636,120 a60,60 0 0 0 60,60 a60,60 0 1 0 -60,-60 z "/>
<glyph glyph-name="A-ring" unicode="&#197;" d="M256.364,840 a60,60 0 0 0 60,60 a60,60 0 1 0 -60,-60 z M387.273,840 a60,60 0 0 0 60,60 a60,60 0 1 0 -60,-60 z M190.909,720 a60,60 0 0 0 60,60 a60,60 0 1 0 -60,-60 z M452.727,720 a60,60 0 0 0 60,60 a60,60 0 1 0 -60,-60 z M256.364,600 a60,60 0 0 0 60,60 a60,60 0 1 0 -60,-60 z M387.273,600 a60,60 0 0 0 60,60 a60,60 0 1 0 -60,-60 z M190.909,480 a60,60 0 0 0 60,60 a60,60 0 1 0 -60,-60 z M452.727,480 a60,60 0 0 0 60,60 a60,60 0 1 0 -60,-60 z M125.455,360 a60,60 0 0 0 60,60 a60,60 0 1 0 -60,-60 z M518.182,360 a60,60 0 0 0 60,60 a60,60 0 1 0 -60,-60 z M60,240 a60,60 0 0 0 60,60 a60,60 0 1 0 -60,-60 z M190.909,240 a60,60 0 0 0 60,60 a60,60 0 1 0 -60,-60 z M321.818,240 a60,60 0 0 0 60,60 a60,60 0 1 0 -60,-60 z M452.727,240 a60,60 0 0 0 60,60 a60,60 0 1 0 -60,-60 z M583.636,240 a60,60 0 0 0 60,60 a60,60 0 1 0 -60,-60 z M60,120 a60,60 0 0 0 60,60 a60,60 0 1 0 -60,-60 z M583.636,120 a60,60 0 0 0 60,60 a60,60 0 1 0 -60,-60 z "/>
<glyph glyph-name="AElig" unicode="&#198;" d="M190.909,840 a60,60 0 0 0 60,60 a60,60 0 1 0 -60,-60 z M321.818,840 a60,60 0 0 0 60,60 a60,60 0 1 0 -60,-60 z M452.727,840 a60,60 0 0 0 60,60 a60,60 0 1 0 -60,-60 z M583.636,840 a60,60 0 0 0 60,60 a60,60 0 1 0 -60,-60 z M125.455,720 a60,60 0 0 0 60,60 a60,60 0 1 0 -60,-60 z M321.818,720 a60,60 0 0 0 60,60 a60,60 0 1 0 -60,-60 z M60,600 a60,60 0 0 0 60,60 a60,60 0 1 0 -60,-60 z M321.818,600 a60,60 0 0 0 60,60 a60,60 0 1 0 -60,-60 z M60,480 a60,60 0 0 0 60,60 a60,60 0 1 0 -60,-60 z M190.909,480 a60,60 0 0 0 60,60 a60,60 0 1 0 -60,-60 z M321.818,480 a60,60 0 0 0 60,60 a60,60 0 1 0 -60,-60 z M452.727,480 a60,60 0 0 0 60,60 a60,60 0 1 0 -60,-60 z M583.636,480 a60,60 0 0 0 60,60 a60,60 0 1 0 -60,-60 z M60,360 a60,60 0 0 0 60,60 a60,60 0 1 0 -60,-60 z M321.818,360 a60,60 0 0 0 60,60 a60,60 0 1 0 -60,-60 z M60,240 a60,60 0 0 0 60,60 a60,60 0 1 0 -60,-60 z M321.818,240 a60,60 0 0 0 60,60 a60,60 0 1 0 -60,-60 z M60,120 a60,60 0 0 0 60,60 a60,60 0 1 0 -60,-60 z M321.818,120 a60,60 0 0 0 60,60 a60,60 0 1 0 -60,-60 z M452.727,120 a60,60 0 0 0 60,60 a60,60 0 1 0 -60,-60 z M583.636,120 a60,60 0 0 0 60,60 a60,60 0 1 0 -60,-60 z "/>
<glyph glyph-name="N-tilde" unicode="&#209;" d="M125.455,840 a60,60 0 0 0 60,60 a60,60 0 1 0 -60,-60 z M256.364,840 a60,60 0 0 0 60,60 a60,60 0 1 0 -60,-60 z M583.636,840 a60,60 0 0 0 60,60 a60,60 0 1 0 -60,-60 z M60,720 a60,60 0 0 0 60,60 a60,60 0 1 0 -60,-60 z M387.273,720 a60,60 0 0 0 60,60 a60,60 0 1 0 -60,-60 z M518.182,720 a60,60 0 0 0 60,60 a60,60 0 1 0 -60,-60 z M60,480 a60,60 0 0 0 60,60 a60,60 0 1 0 -60,-60 z M190.909,480 a60,60 0 0 0 60,60 a60,60 0 1 0 -60,-60 z M583.636,480 a60,60 0 0 0 60,60 a60,60 0 1 0 -60,-60 z M60,360 a60,60 0 0 0 60,60 a60,60 0 1 0 -60,-60 z M321.818,360 a60,60 0 0 0 60,60 a60,60 0 1 0 -60,-60 z M583.636,360 a60,60 0 0 0 60,60 a60,60 0 1 0 -60,-60 z M60,240 a60,60 0 0 0 60,60 a60,60 0 1 0 -60,-60 z M452.727,240 a60,60 0 0 0 60,60 a60,60 0 1 0 -60,-60 z M583.636,240 a60,60 0 0 0 60,60 a60,60 0 1 0 -60,-60 z M60,120 a60,60 0 0 0 60,60 a60,60 0 1 0 -60,-60 z M583.636,120 a60,60 0 0 0 60,60 a60,60 0 1 0 -60,-60 z "/>
<glyph glyph-name="O-umlaut" unicode="&#214;" d="M60,840 a60,60 0 0 0 60,60 a60,60 0 1 0 -60,-60 z M583.636,840 a60,60 0 0 0 60,60 a60,60 0 1 0 -60,-60 z M190.909,720 a60,60 0 0 0 60,60 a60,60 0 1 0 -60,-60 z M321.818,720 a60,60 0 0 0 60,60 a60,60 0 1 0 -60,-60 z M452.727,720 a60,60 0 0 0 60,60 a60,60 0 1 0 -60,-60 z M125.455,600 a60,60 0 0 0 60,60 a60,60 0 1 0 -60,-60 z M518.182,600 a60,60 0 0 0 60,60 a60,60 0 1 0 -60,-60 z M60,480 a60,60 0 0 0 60,60 a60,60 0 1 0 -60,-60 z M583.636,480 a60,60 0 0 0 60,60 a60,60 0 1 0 -60,-60 z M60,360 a60,60 0 0 0 60,60 a60,60 0 1 0 -60,-60 z M583.636,360 a60,60 0 0 0 60,60 a60,60 0 1 0 -60,-60 z M125.455,240 a60,60 0 0 0 60,60 a60,60 0 1 0 -60,-60 z M518.182,240 a60,60 0 0 0 60,60 a60,60 0 1 0 -60,-60 z M190.909,120 a60,60 0 0 0 60,60 a60,60 0 1 0 -60,-60 z M321.818,120 a60,60 0 0 0 60,60 a60,60 0 1 0 -60,-60 z M452.727,120 a60,60 0 0 0 60,60 a60,60 0 1 0 -60,-60 z "/>
<glyph glyph-name="multiplication" unicode="&#215;" d="M60,720 a60,60 0 0 0 60,60 a60,60 0 1 0 -60,-60 z M583.636,720 a60,60 0 0 0 60,60 a60,60 0 1 0 -60,-60 z M190.909,600 a60,60 0 0 0 60,60 a60,60 0 1 0 -60,-60 z M452.727,600 a60,60 0 0 0 60,60 a60,60 0 1 0 -60,-60 z M321.818,480 a60,60 0 0 0 60,60 a60,60 0 1 0 -60,-60 z M190.909,360 a60,60 0 0 0 60,60 a60,60 0 1 0 -60,-60 z M452.727,360 a60,60 0 0 0 60,60 a60,60 0 1 0 -60,-60 z M60,240 a60,60 0 0 0 60,60 a60,60 0 1 0 -60,-60 z M583.636,240 a60,60 0 0 0 60,60 a60,60 0 1 0 -60,-60 z "/>
<glyph glyph-name="O with stroke" unicode="&#216;" d="M125.455,840 a60,60 0 0 0 60,60 a60,60 0 1 0 -60,-60 z M256.364,840 a60,60 0 0 0 60,60 a60,60 0 1 0 -60,-60 z M387.273,840 a60,60 0 0 0 60,60 a60,60 0 1 0 -60,-60 z M518.182,840 a60,60 0 0 0 60,60 a60,60 0 1 0 -60,-60 z M60,720 a60,60 0 0 0 60,60 a60,60 0 1 0 -60,-60 z M452.727,720 a60,60 0 0 0 60,60 a60,60 0 1 0 -60,-60 z M583.636,720 a60,60 0 0 0 60,60 a60,60 0 1 0 -60,-60 z M60,600 a60,60 0 0 0 60,60 a60,60 0 1 0 -60,-60 z M387.273,600 a60,60 0 0 0 60,60 a60,60 0 1 0 -60,-60 z M583.636,600 a60,60 0 0 0 60,60 a60,60 0 1 0 -60,-60 z M60,480 a60,60 0 0 0 60,60 a60,60 0 1 0 -60,-60 z M321.818,480 a60,60 0 0 0 60,60 a60,60 0 1 0 -60,-60 z M583.636,480 a60,60 0 0 0 60,60 a60,60 0 1 0 -60,-60 z M60,360 a60,60 0 0 0 60,60 a60,60 0 1 0 -60,-60 z M256.364,360 a60,60 0 0 0 60,60 a60,60 0 1 0 -60,-60 z M583.636,360 a60,60 0 0 0 60,60 a60,60 0 1 0 -60,-60 z M60,240 a60,60 0 0 0 60,60 a60,60 0 1 0 -60,-60 z M190.909,240 a60,60 0 0 0 60,60 a60,60 0 1 0 -60,-60 z M583.636,240 a60,60 0 0 0 60,60 a60,60 0 1 0 -60,-60 z M125.455,120 a60,60 0 0 0 60,60 a60,60 0 1 0 -60,-60 z M256.364,120 a60,60 0 0 0 60,60 a60,60 0 1 0 -60,-60 z M387.273,120 a60,60 0 0 0 60,60 a60,60 0 1 0 -60,-60 z M518.182,120 a60,60 0 0 0 60,60 a60,60 0 1 0 -60,-60 z "/>
<glyph glyph-name="U-umlaut" unicode="&#220;" d="M190.909,840 a60,60 0 0 0 60,60 a60,60 0 1 0 -60,-60 z M452.727,840 a60,60 0 0 0 60,60 a60,60 0 1 0 -60,-60 z M60,720 a60,60 0 0 0 60,60 a60,60 0 1 0 -60,-60 z M583.636,720 a60,60 0 0 0 60,60 a60,60 0 1 0 -60,-60 z M60,600 a60,60 0 0 0 60,60 a60,60 0 1 0 -60,-60 z M583.636,600 a60,60 0 0 0 60,60 a60,60 0 1 0 -60,-60 z M60,480 a60,60 0 0 0 60,60 a60,60 0 1 0 -60,-60 z M583.636,480 a60,60 0 0 0 60,60 a60,60 0 1 0 -60,-60 z M60,360 a60,60 0 0 0 60,60 a60,60 0 1 0 -60,-60 z M583.636,360 a60,60 0 0 0 60,60 a60,60 0 1 0 -60,-60 z M125.455,240 a60,60 0 0 0 60,60 a60,60 0 1 0 -60,-60 z M518.182,240 a60,60 0 0 0 60,60 a60,60 0 1 0 -60,-60 z M190.909,120 a60,60 0 0 0 60,60 a60,60 0 1 0 -60,-60 z M321.818,120 a60,60 0 0 0 60,60 a60,60 0 1 0 -60,-60 z M452.727,120 a60,60 0 0 0 60,60 a60,60 0 1 0 -60,-60 z "/>
<glyph glyph-name="&#223;" unicode="&#223;" d="M125.455,840 a60,60 0 0 0 60,60 a60,60 0 1 0 -60,-60 z M256.364,840 a60,60 0 0 0 60,60 a60,60 0 1 0 -60,-60 z M387.273,840 a60,60 0 0 0 60,60 a60,60 0 1 0 -60,-60 z M60,720 a60,60 0 0 0 60,60 a60,60 0 1 0 -60,-60 z M518.182,720 a60,60 0 0 0 60,60 a60,60 0 1 0 -60,-60 z M60,600 a60,60 0 0 0 60,60 a60,60 0 1 0 -60,-60 z M518.182,600 a60,60 0 0 0 60,60 a60,60 0 1 0 -60,-60 z M60,480 a60,60 0 0 0 60,60 a60,60 0 1 0 -60,-60 z M321.818,480 a60,60 0 0 0 60,60 a60,60 0 1 0 -60,-60 z M452.727,480 a60,60 0 0 0 60,60 a60,60 0 1 0 -60,-60 z M60,360 a60,60 0 0 0 60,60 a60,60 0 1 0 -60,-60 z M518.182,360 a60,60 0 0 0 60,60 a60,60 0 1 0 -60,-60 z M60,240 a60,60 0 0 0 60,60 a60,60 0 1 0 -60,-60 z M518.182,240 a60,60 0 0 0 60,60 a60,60 0 1 0 -60,-60 z M60,120 a60,60 0 0 0 60,60 a60,60 0 1 0 -60,-60 z M321.818,120 a60,60 0 0 0 60,60 a60,60 0 1 0 -60,-60 z M452.727,120 a60,60 0 0 0 60,60 a60,60 0 1 0 -60,-60 z "/>
<glyph glyph-name="a-grave" unicode="&#224;" d="M256.364,840 a60,60 0 0 0 60,60 a60,60 0 1 0 -60,-60 z M321.818,720 a60,60 0 0 0 60,60 a60,60 0 1 0 -60,-60 z M190.909,600 a60,60 0 0 0 60,60 a60,60 0 1 0 -60,-60 z M321.818,600 a60,60 0 0 0 60,60 a60,60 0 1 0 -60,-60 z M452.727,600 a60,60 0 0 0 60,60 a60,60 0 1 0 -60,-60 z M518.182,480 a60,60 0 0 0 60,60 a60,60 0 1 0 -60,-60 z M125.455,360 a60,60 0 0 0 60,60 a60,60 0 1 0 -60,-60 z M256.364,360 a60,60 0 0 0 60,60 a60,60 0 1 0 -60,-60 z M387.273,360 a60,60 0 0 0 60,60 a60,60 0 1 0 -60,-60 z M518.182,360 a60,60 0 0 0 60,60 a60,60 0 1 0 -60,-60 z M60,240 a60,60 0 0 0 60,60 a60,60 0 1 0 -60,-60 z M518.182,240 a60,60 0 0 0 60,60 a60,60 0 1 0 -60,-60 z M125.455,120 a60,60 0 0 0 60,60 a60,60 0 1 0 -60,-60 z M256.364,120 a60,60 0 0 0 60,60 a60,60 0 1 0 -60,-60 z M387.273,120 a60,60 0 0 0 60,60 a60,60 0 1 0 -60,-60 z M583.636,120 a60,60 0 0 0 60,60 a60,60 0 1 0 -60,-60 z "/>
<glyph glyph-name="a-acute" unicode="&#225;" d="M387.273,840 a60,60 0 0 0 60,60 a60,60 0 1 0 -60,-60 z M321.818,720 a60,60 0 0 0 60,60 a60,60 0 1 0 -60,-60 z M190.909,600 a60,60 0 0 0 60,60 a60,60 0 1 0 -60,-60 z M321.818,600 a60,60 0 0 0 60,60 a60,60 0 1 0 -60,-60 z M452.727,600 a60,60 0 0 0 60,60 a60,60 0 1 0 -60,-60 z M518.182,480 a60,60 0 0 0 60,60 a60,60 0 1 0 -60,-60 z M125.455,360 a60,60 0 0 0 60,60 a60,60 0 1 0 -60,-60 z M256.364,360 a60,60 0 0 0 60,60 a60,60 0 1 0 -60,-60 z M387.273,360 a60,60 0 0 0 60,60 a60,60 0 1 0 -60,-60 z M518.182,360 a60,60 0 0 0 60,60 a60,60 0 1 0 -60,-60 z M60,240 a60,60 0 0 0 60,60 a60,60 0 1 0 -60,-60 z M518.182,240 a60,60 0 0 0 60,60 a60,60 0 1 0 -60,-60 z M125.455,120 a60,60 0 0 0 60,60 a60,60 0 1 0 -60,-60 z M256.364,120 a60,60 0 0 0 60,60 a60,60 0 1 0 -60,-60 z M387.273,120 a60,60 0 0 0 60,60 a60,60 0 1 0 -60,-60 z M583.636,120 a60,60 0 0 0 60,60 a60,60 0 1 0 -60,-60 z "/>
<glyph glyph-name="a-umlaut" unicode="&#228;" d="M190.909,840 a60,60 0 0 0 60,60 a60,60 0 1 0 -60,-60 z M452.727,840 a60,60 0 0 0 60,60 a60,60 0 1 0 -60,-60 z M190.909,600 a60,60 0 0 0 60,60 a60,60 0 1 0 -60,-60 z M321.818,600 a60,60 0 0 0 60,60 a60,60 0 1 0 -60,-60 z M452.727,600 a60,60 0 0 0 60,60 a60,60 0 1 0 -60,-60 z M518.182,480 a60,60 0 0 0 60,60 a60,60 0 1 0 -60,-60 z M125.455,360 a60,60 0 0 0 60,60 a60,60 0 1 0 -60,-60 z M256.364,360 a60,60 0 0 0 60,60 a60,60 0 1 0 -60,-60 z M387.273,360 a60,60 0 0 0 60,60 a60,60 0 1 0 -60,-60 z M518.182,360 a60,60 0 0 0 60,60 a60,60 0 1 0 -60,-60 z M60,240 a60,60 0 0 0 60,60 a60,60 0 1 0 -60,-60 z M518.182,240 a60,60 0 0 0 60,60 a60,60 0 1 0 -60,-60 z M125.455,120 a60,60 0 0 0 60,60 a60,60 0 1 0 -60,-60 z M256.364,120 a60,60 0 0 0 60,60 a60,60 0 1 0 -60,-60 z M387.273,120 a60,60 0 0 0 60,60 a60,60 0 1 0 -60,-60 z M583.636,120 a60,60 0 0 0 60,60 a60,60 0 1 0 -60,-60 z "/>
<glyph glyph-name="aelig" unicode="&#230;" d="M60,600 a60,60 0 0 0 60,60 a60,60 0 1 0 -60,-60 z M190.909,600 a60,60 0 0 0 60,60 a60,60 0 1 0 -60,-60 z M387.273,600 a60,60 0 0 0 60,60 a60,60 0 1 0 -60,-60 z M518.182,600 a60,60 0 0 0 60,60 a60,60 0 1 0 -60,-60 z M321.818,480 a60,60 0 0 0 60,60 a60,60 0 1 0 -60,-60 z M583.636,480 a60,60 0 0 0 60,60 a60,60 0 1 0 -60,-60 z M60,360 a60,60 0 0 0 60,60 a60,60 0 1 0 -60,-60 z M190.909,360 a60,60 0 0 0 60,60 a60,60 0 1 0 -60,-60 z M321.818,360 a60,60 0 0 0 60,60 a60,60 0 1 0 -60,-60 z M452.727,360 a60,60 0 0 0 60,60 a60,60 0 1 0 -60,-60 z M583.636,360 a60,60 0 0 0 60,60 a60,60 0 1 0 -60,-60 z M60,240 a60,60 0 0 0 60,60 a60,60 0 1 0 -60,-60 z M321.818,240 a60,60 0 0 0 60,60 a60,60 0 1 0 -60,-60 z M125.455,120 a60,60 0 0 0 60,60 a60,60 0 1 0 -60,-60 z M256.364,120 a60,60 0 0 0 60,60 a60,60 0 1 0 -60,-60 z M452.727,120 a60,60 0 0 0 60,60 a60,60 0 1 0 -60,-60 z M583.636,120 a60,60 0 0 0 60,60 a60,60 0 1 0 -60,-60 z "/>
<glyph glyph-name="e-grave" unicode="&#232;" d="M256.364,840 a60,60 0 0 0 60,60 a60,60 0 1 0 -60,-60 z M321.818,720 a60,60 0 0 0 60,60 a60,60 0 1 0 -60,-60 z M190.909,600 a60,60 0 0 0 60,60 a60,60 0 1 0 -60,-60 z M321.818,600 a60,60 0 0 0 60,60 a60,60 0 1 0 -60,-60 z M452.727,600 a60,60 0 0 0 60,60 a60,60 0 1 0 -60,-60 z M125.455,480 a60,60 0 0 0 60,60 a60,60 0 1 0 -60,-60 z M518.182,480 a60,60 0 0 0 60,60 a60,60 0 1 0 -60,-60 z M125.455,360 a60,60 0 0 0 60,60 a60,60 0 1 0 -60,-60 z M256.364,360 a60,60 0 0 0 60,60 a60,60 0 1 0 -60,-60 z M387.273,360 a60,60 0 0 0 60,60 a60,60 0 1 0 -60,-60 z M518.182,360 a60,60 0 0 0 60,60 a60,60 0 1 0 -60,-60 z M125.455,240 a60,60 0 0 0 60,60 a60,60 0 1 0 -60,-60 z M190.909,120 a60,60 0 0 0 60,60 a60,60 0 1 0 -60,-60 z M321.818,120 a60,60 0 0 0 60,60 a60,60 0 1 0 -60,-60 z M452.727,120 a60,60 0 0 0 60,60 a60,60 0 1 0 -60,-60 z "/>
<glyph glyph-name="e-acute" unicode="&#233;" d="M387.273,840 a60,60 0 0 0 60,60 a60,60 0 1 0 -60,-60 z M321.818,720 a60,60 0 0 0 60,60 a60,60 0 1 0 -60,-60 z M190.909,600 a60,60 0 0 0 60,60 a60,60 0 1 0 -60,-60 z M321.818,600 a60,60 0 0 0 60,60 a60,60 0 1 0 -60,-60 z M452.727,600 a60,60 0 0 0 60,60 a60,60 0 1 0 -60,-60 z M125.455,480 a60,60 0 0 0 60,60 a60,60 0 1 0 -60,-60 z M518.182,480 a60,60 0 0 0 60,60 a60,60 0 1 0 -60,-60 z M125.455,360 a60,60 0 0 0 60,60 a60,60 0 1 0 -60,-60 z M256.364,360 a60,60 0 0 0 60,60 a60,60 0 1 0 -60,-60 z M387.273,360 a60,60 0 0 0 60,60 a60,60 0 1 0 -60,-60 z M518.182,360 a60,60 0 0 0 60,60 a60,60 0 1 0 -60,-60 z M125.455,240 a60,60 0 0 0 60,60 a60,60 0 1 0 -60,-60 z M190.909,120 a60,60 0 0 0 60,60 a60,60 0 1 0 -60,-60 z M321.818,120 a60,60 0 0 0 60,60 a60,60 0 1 0 -60,-60 z M452.727,120 a60,60 0 0 0 60,60 a60,60 0 1 0 -60,-60 z "/>
<glyph glyph-name="e-umlaut" unicode="&#235;" d="M190.909,840 a60,60 0 0 0 60,60 a60,60 0 1 0 -60,-60 z M452.727,840 a60,60 0 0 0 60,60 a60,60 0 1 0 -60,-60 z M125.455,600 a60,60 0 0 0 60,60 a60,60 0 1 0 -60,-60 z M256.364,600 a60,60 0 0 0 60,60 a60,60 0 1 0 -60,-60 z M387.273,600 a60,60 0 0 0 60,60 a60,60 0 1 0 -60,-60 z M518.182,600 a60,60 0 0 0 60,60 a60,60 0 1 0 -60,-60 z M60,480 a60,60 0 0 0 60,60 a60,60 0 1 0 -60,-60 z M583.636,480 a60,60 0 0 0 60,60 a60,60 0 1 0 -60,-60 z M60,360 a60,60 0 0 0 60,60 a60,60 0 1 0 -60,-60 z M190.909,360 a60,60 0 0 0 60,60 a60,60 0 1 0 -60,-60 z M321.818,360 a60,60 0 0 0 60,60 a60,60 0 1 0 -60,-60 z M452.727,360 a60,60 0 0 0 60,60 a60,60 0 1 0 -60,-60 z M583.636,360 a60,60 0 0 0 60,60 a60,60 0 1 0 -60,-60 z M60,240 a60,60 0 0 0 60,60 a60,60 0 1 0 -60,-60 z M125.455,120 a60,60 0 0 0 60,60 a60,60 0 1 0 -60,-60 z M256.364,120 a60,60 0 0 0 60,60 a60,60 0 1 0 -60,-60 z M387.273,120 a60,60 0 0 0 60,60 a60,60 0 1 0 -60,-60 z M518.182,120 a60,60 0 0 0 60,60 a60,60 0 1 0 -60,-60 z "/>
<glyph glyph-name="i-grave" unicode="&#236;" d="M190.909,840 a60,60 0 0 0 60,60 a60,60 0 1 0 -60,-60 z M256.364,720 a60,60 0 0 0 60,60 a60,60 0 1 0 -60,-60 z M125.455,480 a60,60 0 0 0 60,60 a60,60 0 1 0 -60,-60 z M256.364,480 a60,60 0 0 0 60,60 a60,60 0 1 0 -60,-60 z M256.364,360 a60,60 0 0 0 60,60 a60,60 0 1 0 -60,-60 z M256.364,240 a60,60 0 0 0 60,60 a60,60 0 1 0 -60,-60 z M125.455,120 a60,60 0 0 0 60,60 a60,60 0 1 0 -60,-60 z M256.364,120 a60,60 0 0 0 60,60 a60,60 0 1 0 -60,-60 z M387.273,120 a60,60 0 0 0 60,60 a60,60 0 1 0 -60,-60 z "/>
<glyph glyph-name="i-acute" unicode="&#237;" d="M321.818,840 a60,60 0 0 0 60,60 a60,60 0 1 0 -60,-60 z M256.364,720 a60,60 0 0 0 60,60 a60,60 0 1 0 -60,-60 z M125.455,480 a60,60 0 0 0 60,60 a60,60 0 1 0 -60,-60 z M256.364,480 a60,60 0 0 0 60,60 a60,60 0 1 0 -60,-60 z M256.364,360 a60,60 0 0 0 60,60 a60,60 0 1 0 -60,-60 z M256.364,240 a60,60 0 0 0 60,60 a60,60 0 1 0 -60,-60 z M125.455,120 a60,60 0 0 0 60,60 a60,60 0 1 0 -60,-60 z M256.364,120 a60,60 0 0 0 60,60 a60,60 0 1 0 -60,-60 z M387.273,120 a60,60 0 0 0 60,60 a60,60 0 1 0 -60,-60 z "/>
<glyph glyph-name="i-cup" unicode="&#238;" d="M190.909,840 a60,60 0 0 0 60,60 a60,60 0 1 0 -60,-60 z M321.818,840 a60,60 0 0 0 60,60 a60,60 0 1 0 -60,-60 z M60,720 a60,60 0 0 0 60,60 a60,60 0 1 0 -60,-60 z M452.727,720 a60,60 0 0 0 60,60 a60,60 0 1 0 -60,-60 z M125.455,480 a60,60 0 0 0 60,60 a60,60 0 1 0 -60,-60 z M256.364,480 a60,60 0 0 0 60,60 a60,60 0 1 0 -60,-60 z M256.364,360 a60,60 0 0 0 60,60 a60,60 0 1 0 -60,-60 z M256.364,240 a60,60 0 0 0 60,60 a60,60 0 1 0 -60,-60 z M125.455,120 a60,60 0 0 0 60,60 a60,60 0 1 0 -60,-60 z M256.364,120 a60,60 0 0 0 60,60 a60,60 0 1 0 -60,-60 z M387.273,120 a60,60 0 0 0 60,60 a60,60 0 1 0 -60,-60 z "/>
<glyph glyph-name="i-umlaut" unicode="&#239;" d="M125.455,840 a60,60 0 0 0 60,60 a60,60 0 1 0 -60,-60 z M387.273,840 a60,60 0 0 0 60,60 a60,60 0 1 0 -60,-60 z M125.455,600 a60,60 0 0 0 60,60 a60,60 0 1 0 -60,-60 z M256.364,600 a60,60 0 0 0 60,60 a60,60 0 1 0 -60,-60 z M256.364,480 a60,60 0 0 0 60,60 a60,60 0 1 0 -60,-60 z M256.364,360 a60,60 0 0 0 60,60 a60,60 0 1 0 -60,-60 z M256.364,240 a60,60 0 0 0 60,60 a60,60 0 1 0 -60,-60 z M125.455,120 a60,60 0 0 0 60,60 a60,60 0 1 0 -60,-60 z M256.364,120 a60,60 0 0 0 60,60 a60,60 0 1 0 -60,-60 z M387.273,120 a60,60 0 0 0 60,60 a60,60 0 1 0 -60,-60 z "/>
<glyph glyph-name="n-tilde" unicode="&#241;" d="M125.455,840 a60,60 0 0 0 60,60 a60,60 0 1 0 -60,-60 z M256.364,840 a60,60 0 0 0 60,60 a60,60 0 1 0 -60,-60 z M518.182,840 a60,60 0 0 0 60,60 a60,60 0 1 0 -60,-60 z M60,720 a60,60 0 0 0 60,60 a60,60 0 1 0 -60,-60 z M321.818,720 a60,60 0 0 0 60,60 a60,60 0 1 0 -60,-60 z M452.727,720 a60,60 0 0 0 60,60 a60,60 0 1 0 -60,-60 z M125.455,480 a60,60 0 0 0 60,60 a60,60 0 1 0 -60,-60 z M256.364,480 a60,60 0 0 0 60,60 a60,60 0 1 0 -60,-60 z M387.273,480 a60,60 0 0 0 60,60 a60,60 0 1 0 -60,-60 z M125.455,360 a60,60 0 0 0 60,60 a60,60 0 1 0 -60,-60 z M452.727,360 a60,60 0 0 0 60,60 a60,60 0 1 0 -60,-60 z M125.455,240 a60,60 0 0 0 60,60 a60,60 0 1 0 -60,-60 z M452.727,240 a60,60 0 0 0 60,60 a60,60 0 1 0 -60,-60 z M125.455,120 a60,60 0 0 0 60,60 a60,60 0 1 0 -60,-60 z M452.727,120 a60,60 0 0 0 60,60 a60,60 0 1 0 -60,-60 z "/>
<glyph glyph-name="o-grave" unicode="&#242;" d="M256.364,840 a60,60 0 0 0 60,60 a60,60 0 1 0 -60,-60 z M321.818,720 a60,60 0 0 0 60,60 a60,60 0 1 0 -60,-60 z M190.909,600 a60,60 0 0 0 60,60 a60,60 0 1 0 -60,-60 z M321.818,600 a60,60 0 0 0 60,60 a60,60 0 1 0 -60,-60 z M452.727,600 a60,60 0 0 0 60,60 a60,60 0 1 0 -60,-60 z M125.455,480 a60,60 0 0 0 60,60 a60,60 0 1 0 -60,-60 z M518.182,480 a60,60 0 0 0 60,60 a60,60 0 1 0 -60,-60 z M125.455,360 a60,60 0 0 0 60,60 a60,60 0 1 0 -60,-60 z M518.182,360 a60,60 0 0 0 60,60 a60,60 0 1 0 -60,-60 z M125.455,240 a60,60 0 0 0 60,60 a60,60 0 1 0 -60,-60 z M518.182,240 a60,60 0 0 0 60,60 a60,60 0 1 0 -60,-60 z M190.909,120 a60,60 0 0 0 60,60 a60,60 0 1 0 -60,-60 z M321.818,120 a60,60 0 0 0 60,60 a60,60 0 1 0 -60,-60 z M452.727,120 a60,60 0 0 0 60,60 a60,60 0 1 0 -60,-60 z "/>
<glyph glyph-name="o-acute" unicode="&#243;" d="M387.273,840 a60,60 0 0 0 60,60 a60,60 0 1 0 -60,-60 z M321.818,720 a60,60 0 0 0 60,60 a60,60 0 1 0 -60,-60 z M190.909,600 a60,60 0 0 0 60,60 a60,60 0 1 0 -60,-60 z M321.818,600 a60,60 0 0 0 60,60 a60,60 0 1 0 -60,-60 z M452.727,600 a60,60 0 0 0 60,60 a60,60 0 1 0 -60,-60 z M125.455,480 a60,60 0 0 0 60,60 a60,60 0 1 0 -60,-60 z M518.182,480 a60,60 0 0 0 60,60 a60,60 0 1 0 -60,-60 z M125.455,360 a60,60 0 0 0 60,60 a60,60 0 1 0 -60,-60 z M518.182,360 a60,60 0 0 0 60,60 a60,60 0 1 0 -60,-60 z M125.455,240 a60,60 0 0 0 60,60 a60,60 0 1 0 -60,-60 z M518.182,240 a60,60 0 0 0 60,60 a60,60 0 1 0 -60,-60 z M190.909,120 a60,60 0 0 0 60,60 a60,60 0 1 0 -60,-60 z M321.818,120 a60,60 0 0 0 60,60 a60,60 0 1 0 -60,-60 z M452.727,120 a60,60 0 0 0 60,60 a60,60 0 1 0 -60,-60 z "/>
<glyph glyph-name="o-umlaut" unicode="&#246;" d="M190.909,840 a60,60 0 0 0 60,60 a60,60 0 1 0 -60,-60 z M452.727,840 a60,60 0 0 0 60,60 a60,60 0 1 0 -60,-60 z M190.909,600 a60,60 0 0 0 60,60 a60,60 0 1 0 -60,-60 z M321.818,600 a60,60 0 0 0 60,60 a60,60 0 1 0 -60,-60 z M452.727,600 a60,60 0 0 0 60,60 a60,60 0 1 0 -60,-60 z M125.455,480 a60,60 0 0 0 60,60 a60,60 0 1 0 -60,-60 z M518.182,480 a60,60 0 0 0 60,60 a60,60 0 1 0 -60,-60 z M125.455,360 a60,60 0 0 0 60,60 a60,60 0 1 0 -60,-60 z M518.182,360 a60,60 0 0 0 60,60 a60,60 0 1 0 -60,-60 z M125.455,240 a60,60 0 0 0 60,60 a60,60 0 1 0 -60,-60 z M518.182,240 a60,60 0 0 0 60,60 a60,60 0 1 0 -60,-60 z M190.909,120 a60,60 0 0 0 60,60 a60,60 0 1 0 -60,-60 z M321.818,120 a60,60 0 0 0 60,60 a60,60 0 1 0 -60,-60 z M452.727,120 a60,60 0 0 0 60,60 a60,60 0 1 0 -60,-60 z "/>
<glyph glyph-name="obelus" unicode="&#247;" d="M321.818,720 a60,60 0 0 0 60,60 a60,60 0 1 0 -60,-60 z M60,480 a60,60 0 0 0 60,60 a60,60 0 1 0 -60,-60 z M190.909,480 a60,60 0 0 0 60,60 a60,60 0 1 0 -60,-60 z M321.818,480 a60,60 0 0 0 60,60 a60,60 0 1 0 -60,-60 z M452.727,480 a60,60 0 0 0 60,60 a60,60 0 1 0 -60,-60 z M583.636,480 a60,60 0 0 0 60,60 a60,60 0 1 0 -60,-60 z M321.818,240 a60,60 0 0 0 60,60 a60,60 0 1 0 -60,-60 z "/>
<glyph glyph-name="o with stroke" unicode="&#248;" d="M583.636,720 a60,60 0 0 0 60,60 a60,60 0 1 0 -60,-60 z M125.455,600 a60,60 0 0 0 60,60 a60,60 0 1 0 -60,-60 z M256.364,600 a60,60 0 0 0 60,60 a60,60 0 1 0 -60,-60 z M387.273,600 a60,60 0 0 0 60,60 a60,60 0 1 0 -60,-60 z M518.182,600 a60,60 0 0 0 60,60 a60,60 0 1 0 -60,-60 z M60,480 a60,60 0 0 0 60,60 a60,60 0 1 0 -60,-60 z M452.727,480 a60,60 0 0 0 60,60 a60,60 0 1 0 -60,-60 z M583.636,480 a60,60 0 0 0 60,60 a60,60 0 1 0 -60,-60 z M60,360 a60,60 0 0 0 60,60 a60,60 0 1 0 -60,-60 z M321.818,360 a60,60 0 0 0 60,60 a60,60 0 1 0 -60,-60 z M583.636,360 a60,60 0 0 0 60,60 a60,60 0 1 0 -60,-60 z M60,240 a60,60 0 0 0 60,60 a60,60 0 1 0 -60,-60 z M190.909,240 a60,60 0 0 0 60,60 a60,60 0 1 0 -60,-60 z M583.636,240 a60,60 0 0 0 60,60 a60,60 0 1 0 -60,-60 z M125.455,120 a60,60 0 0 0 60,60 a60,60 0 1 0 -60,-60 z M256.364,120 a60,60 0 0 0 60,60 a60,60 0 1 0 -60,-60 z M387.273,120 a60,60 0 0 0 60,60 a60,60 0 1 0 -60,-60 z M518.182,120 a60,60 0 0 0 60,60 a60,60 0 1 0 -60,-60 z M60,0 a60,60 0 0 0 60,60 a60,60 0 1 0 -60,-60 z "/>
<glyph glyph-name="u-grave" unicode="&#249;" d="M256.364,840 a60,60 0 0 0 60,60 a60,60 0 1 0 -60,-60 z M321.818,720 a60,60 0 0 0 60,60 a60,60 0 1 0 -60,-60 z M125.455,600 a60,60 0 0 0 60,60 a60,60 0 1 0 -60,-60 z M518.182,600 a60,60 0 0 0 60,60 a60,60 0 1 0 -60,-60 z M125.455,480 a60,60 0 0 0 60,60 a60,60 0 1 0 -60,-60 z M518.182,480 a60,60 0 0 0 60,60 a60,60 0 1 0 -60,-60 z M125.455,360 a60,60 0 0 0 60,60 a60,60 0 1 0 -60,-60 z M518.182,360 a60,60 0 0 0 60,60 a60,60 0 1 0 -60,-60 z M125.455,240 a60,60 0 0 0 60,60 a60,60 0 1 0 -60,-60 z M518.182,240 a60,60 0 0 0 60,60 a60,60 0 1 0 -60,-60 z M256.364,120 a60,60 0 0 0 60,60 a60,60 0 1 0 -60,-60 z M387.273,120 a60,60 0 0 0 60,60 a60,60 0 1 0 -60,-60 z M583.636,120 a60,60 0 0 0 60,60 a60,60 0 1 0 -60,-60 z "/>
<glyph glyph-name="u-acute" unicode="&#250;" d="M387.273,840 a60,60 0 0 0 60,60 a60,60 0 1 0 -60,-60 z M321.818,720 a60,60 0 0 0 60,60 a60,60 0 1 0 -60,-60 z M125.455,600 a60,60 0 0 0 60,60 a60,60 0 1 0 -60,-60 z M518.182,600 a60,60 0 0 0 60,60 a60,60 0 1 0 -60,-60 z M125.455,480 a60,60 0 0 0 60,60 a60,60 0 1 0 -60,-60 z M518.182,480 a60,60 0 0 0 60,60 a60,60 0 1 0 -60,-60 z M125.455,360 a60,60 0 0 0 60,60 a60,60 0 1 0 -60,-60 z M518.182,360 a60,60 0 0 0 60,60 a60,60 0 1 0 -60,-60 z M125.455,240 a60,60 0 0 0 60,60 a60,60 0 1 0 -60,-60 z M518.182,240 a60,60 0 0 0 60,60 a60,60 0 1 0 -60,-60 z M256.364,120 a60,60 0 0 0 60,60 a60,60 0 1 0 -60,-60 z M387.273,120 a60,60 0 0 0 60,60 a60,60 0 1 0 -60,-60 z M583.636,120 a60,60 0 0 0 60,60 a60,60 0 1 0 -60,-60 z "/>
<glyph glyph-name="u-cap" unicode="&#251;" d="M256.364,840 a60,60 0 0 0 60,60 a60,60 0 1 0 -60,-60 z M387.273,840 a60,60 0 0 0 60,60 a60,60 0 1 0 -60,-60 z M125.455,720 a60,60 0 0 0 60,60 a60,60 0 1 0 -60,-60 z M518.182,720 a60,60 0 0 0 60,60 a60,60 0 1 0 -60,-60 z M125.455,480 a60,60 0 0 0 60,60 a60,60 0 1 0 -60,-60 z M518.182,480 a60,60 0 0 0 60,60 a60,60 0 1 0 -60,-60 z M125.455,360 a60,60 0 0 0 60,60 a60,60 0 1 0 -60,-60 z M518.182,360 a60,60 0 0 0 60,60 a60,60 0 1 0 -60,-60 z M125.455,240 a60,60 0 0 0 60,60 a60,60 0 1 0 -60,-60 z M518.182,240 a60,60 0 0 0 60,60 a60,60 0 1 0 -60,-60 z M256.364,120 a60,60 0 0 0 60,60 a60,60 0 1 0 -60,-60 z M387.273,120 a60,60 0 0 0 60,60 a60,60 0 1 0 -60,-60 z M583.636,120 a60,60 0 0 0 60,60 a60,60 0 1 0 -60,-60 z "/>
<glyph glyph-name="u-umlaut" unicode="&#252;" d="M190.909,840 a60,60 0 0 0 60,60 a60,60 0 1 0 -60,-60 z M452.727,840 a60,60 0 0 0 60,60 a60,60 0 1 0 -60,-60 z M125.455,600 a60,60 0 0 0 60,60 a60,60 0 1 0 -60,-60 z M518.182,600 a60,60 0 0 0 60,60 a60,60 0 1 0 -60,-60 z M125.455,480 a60,60 0 0 0 60,60 a60,60 0 1 0 -60,-60 z M518.182,480 a60,60 0 0 0 60,60 a60,60 0 1 0 -60,-60 z M125.455,360 a60,60 0 0 0 60,60 a60,60 0 1 0 -60,-60 z M518.182,360 a60,60 0 0 0 60,60 a60,60 0 1 0 -60,-60 z M125.455,240 a60,60 0 0 0 60,60 a60,60 0 1 0 -60,-60 z M518.182,240 a60,60 0 0 0 60,60 a60,60 0 1 0 -60,-60 z M256.364,120 a60,60 0 0 0 60,60 a60,60 0 1 0 -60,-60 z M387.273,120 a60,60 0 0 0 60,60 a60,60 0 1 0 -60,-60 z M583.636,120 a60,60 0 0 0 60,60 a60,60 0 1 0 -60,-60 z "/>
<glyph glyph-name="y-acute" unicode="&#253;" d="M387.273,840 a60,60 0 0 0 60,60 a60,60 0 1 0 -60,-60 z M321.818,720 a60,60 0 0 0 60,60 a60,60 0 1 0 -60,-60 z M60,600 a60,60 0 0 0 60,60 a60,60 0 1 0 -60,-60 z M583.636,600 a60,60 0 0 0 60,60 a60,60 0 1 0 -60,-60 z M125.455,480 a60,60 0 0 0 60,60 a60,60 0 1 0 -60,-60 z M518.182,480 a60,60 0 0 0 60,60 a60,60 0 1 0 -60,-60 z M190.909,360 a60,60 0 0 0 60,60 a60,60 0 1 0 -60,-60 z M452.727,360 a60,60 0 0 0 60,60 a60,60 0 1 0 -60,-60 z M256.364,240 a60,60 0 0 0 60,60 a60,60 0 1 0 -60,-60 z M387.273,240 a60,60 0 0 0 60,60 a60,60 0 1 0 -60,-60 z M321.818,120 a60,60 0 0 0 60,60 a60,60 0 1 0 -60,-60 z M256.364,0 a60,60 0 0 0 60,60 a60,60 0 1 0 -60,-60 z M190.909,-120 a60,60 0 0 0 60,60 a60,60 0 1 0 -60,-60 z "/>
<glyph glyph-name="y-umlaut" unicode="&#255;" d="M190.909,840 a60,60 0 0 0 60,60 a60,60 0 1 0 -60,-60 z M452.727,840 a60,60 0 0 0 60,60 a60,60 0 1 0 -60,-60 z M60,600 a60,60 0 0 0 60,60 a60,60 0 1 0 -60,-60 z M583.636,600 a60,60 0 0 0 60,60 a60,60 0 1 0 -60,-60 z M125.455,480 a60,60 0 0 0 60,60 a60,60 0 1 0 -60,-60 z M518.182,480 a60,60 0 0 0 60,60 a60,60 0 1 0 -60,-60 z M190.909,360 a60,60 0 0 0 60,60 a60,60 0 1 0 -60,-60 z M452.727,360 a60,60 0 0 0 60,60 a60,60 0 1 0 -60,-60 z M256.364,240 a60,60 0 0 0 60,60 a60,60 0 1 0 -60,-60 z M387.273,240 a60,60 0 0 0 60,60 a60,60 0 1 0 -60,-60 z M321.818,120 a60,60 0 0 0 60,60 a60,60 0 1 0 -60,-60 z M256.364,0 a60,60 0 0 0 60,60 a60,60 0 1 0 -60,-60 z M190.909,-120 a60,60 0 0 0 60,60 a60,60 0 1 0 -60,-60 z "/>
<glyph glyph-name="Sum" unicode="&#x2211;" d="M125.455,840 a60,60 0 0 0 60,60 a60,60 0 1 0 -60,-60 z M256.364,840 a60,60 0 0 0 60,60 a60,60 0 1 0 -60,-60 z M387.273,840 a60,60 0 0 0 60,60 a60,60 0 1 0 -60,-60 z M518.182,840 a60,60 0 0 0 60,60 a60,60 0 1 0 -60,-60 z M190.909,720 a60,60 0 0 0 60,60 a60,60 0 1 0 -60,-60 z M518.182,720 a60,60 0 0 0 60,60 a60,60 0 1 0 -60,-60 z M256.364,600 a60,60 0 0 0 60,60 a60,60 0 1 0 -60,-60 z M321.818,480 a60,60 0 0 0 60,60 a60,60 0 1 0 -60,-60 z M256.364,360 a60,60 0 0 0 60,60 a60,60 0 1 0 -60,-60 z M190.909,240 a60,60 0 0 0 60,60 a60,60 0 1 0 -60,-60 z M518.182,240 a60,60 0 0 0 60,60 a60,60 0 1 0 -60,-60 z M125.455,120 a60,60 0 0 0 60,60 a60,60 0 1 0 -60,-60 z M256.364,120 a60,60 0 0 0 60,60 a60,60 0 1 0 -60,-60 z M387.273,120 a60,60 0 0 0 60,60 a60,60 0 1 0 -60,-60 z M518.182,120 a60,60 0 0 0 60,60 a60,60 0 1 0 -60,-60 z "/>
<glyph glyph-name="pi" unicode="&#960;" d="M60,600 a60,60 0 0 0 60,60 a60,60 0 1 0 -60,-60 z M190.909,600 a60,60 0 0 0 60,60 a60,60 0 1 0 -60,-60 z M321.818,600 a60,60 0 0 0 60,60 a60,60 0 1 0 -60,-60 z M452.727,600 a60,60 0 0 0 60,60 a60,60 0 1 0 -60,-60 z M583.636,600 a60,60 0 0 0 60,60 a60,60 0 1 0 -60,-60 z M190.909,480 a60,60 0 0 0 60,60 a60,60 0 1 0 -60,-60 z M452.727,480 a60,60 0 0 0 60,60 a60,60 0 1 0 -60,-60 z M190.909,360 a60,60 0 0 0 60,60 a60,60 0 1 0 -60,-60 z M452.727,360 a60,60 0 0 0 60,60 a60,60 0 1 0 -60,-60 z M190.909,240 a60,60 0 0 0 60,60 a60,60 0 1 0 -60,-60 z M452.727,240 a60,60 0 0 0 60,60 a60,60 0 1 0 -60,-60 z M190.909,120 a60,60 0 0 0 60,60 a60,60 0 1 0 -60,-60 z M452.727,120 a60,60 0 0 0 60,60 a60,60 0 1 0 -60,-60 z "/>
</font>
</defs>
</svg>
